LibreBaskerville-wght550.00.ufo
<glyph name="exclam" format="2">
  <advance width="309.5"/>
  <unicode hex="0021"/>
  <outline>
    <contour>
      <point x="84.5" y="60.0" type="curve" smooth="yes"/>
      <point x="84.5" y="20.5"/>
      <point x="115.5" y="-10.0"/>
      <point x="155.0" y="-10.0" type="curve" smooth="yes"/>
      <point x="195.0" y="-10.0"/>
      <point x="226.0" y="21.0"/>
      <point x="226.0" y="60.0" type="curve" smooth="yes"/>
      <point x="226.0" y="99.5"/>
      <point x="194.5" y="131.0"/>
      <point x="155.0" y="131.0" type="curve" smooth="yes"/>
      <point x="115.5" y="131.0"/>
      <point x="84.5" y="99.5"/>
    </contour>
    <contour>
      <point x="181.5" y="207.0" type="line"/>
      <point x="181.5" y="374.5"/>
      <point x="191.5" y="450.0"/>
      <point x="204.5" y="526.0" type="curve" smooth="yes"/>
      <point x="218.5" y="606.5"/>
      <point x="226.0" y="642.5"/>
      <point x="226.0" y="702.0" type="curve" smooth="yes"/>
      <point x="226.0" y="750.0"/>
      <point x="200.5" y="780.0"/>
      <point x="154.5" y="780.0" type="curve" smooth="yes"/>
      <point x="108.5" y="780.0"/>
      <point x="83.0" y="750.0"/>
      <point x="83.0" y="702.0" type="curve" smooth="yes"/>
      <point x="83.0" y="641.0"/>
      <point x="91.0" y="606.5"/>
      <point x="104.5" y="528.0" type="curve" smooth="yes"/>
      <point x="118.0" y="450.0"/>
      <point x="127.5" y="374.5"/>
      <point x="127.5" y="207.0" type="curve"/>
    </contour>
  </outline>
</glyph>
<glyph name="quotedbl" format="2">
  <advance width="379.5"/>
  <unicode hex="0022"/>
  <outline>
    <contour>
      <point x="124.5" y="559.0" type="line"/>
      <point x="135.5" y="633.0"/>
      <point x="159.5" y="743.0"/>
      <point x="159.5" y="775.0" type="curve" smooth="yes"/>
      <point x="159.5" y="807.0"/>
      <point x="137.0" y="830.0"/>
      <point x="106.5" y="830.0" type="curve" smooth="yes"/>
      <point x="76.5" y="830.0"/>
      <point x="54.0" y="807.0"/>
      <point x="54.0" y="776.0" type="curve" smooth="yes"/>
      <point x="54.0" y="744.5"/>
      <point x="78.5" y="633.0"/>
      <point x="89.5" y="559.0" type="curve"/>
    </contour>
    <contour>
      <point x="290.5" y="559.0" type="line"/>
      <point x="301.0" y="633.0"/>
      <point x="325.0" y="743.0"/>
      <point x="325.0" y="775.0" type="curve" smooth="yes"/>
      <point x="325.0" y="807.0"/>
      <point x="302.5" y="830.0"/>
      <point x="272.5" y="830.0" type="curve" smooth="yes"/>
      <point x="242.0" y="830.0"/>
      <point x="219.5" y="807.0"/>
      <point x="219.5" y="776.0" type="curve" smooth="yes"/>
      <point x="219.5" y="744.5"/>
      <point x="244.5" y="633.0"/>
      <point x="255.5" y="559.0" type="curve"/>
    </contour>
  </outline>
</glyph>
<glyph name="numbersign" format="2">
  <advance width="684.0"/>
  <unicode hex="0023"/>
  <outline>
    <contour>
      <point x="616.5" y="307.5" type="line"/>
      <point x="476.0" y="307.5" type="line"/>
      <point x="499.0" y="472.5" type="line"/>
      <point x="637.0" y="472.5" type="line"/>
      <point x="646.5" y="527.5" type="line"/>
      <point x="509.0" y="527.5" type="line"/>
      <point x="543.5" y="770.0" type="line"/>
      <point x="477.0" y="770.0" type="line"/>
      <point x="442.5" y="527.5" type="line"/>
      <point x="292.5" y="527.5" type="line"/>
      <point x="328.0" y="770.0" type="line"/>
      <point x="261.5" y="770.0" type="line"/>
      <point x="226.0" y="527.5" type="line"/>
      <point x="78.5" y="527.5" type="line"/>
      <point x="69.5" y="472.5" type="line"/>
      <point x="216.0" y="472.5" type="line"/>
      <point x="192.5" y="307.5" type="line"/>
      <point x="47.0" y="307.5" type="line"/>
      <point x="37.5" y="252.5" type="line"/>
      <point x="181.0" y="252.5" type="line"/>
      <point x="142.5" y="0.0" type="line"/>
      <point x="209.0" y="0.0" type="line"/>
      <point x="247.5" y="252.5" type="line"/>
      <point x="397.5" y="252.5" type="line"/>
      <point x="362.0" y="0.0" type="line"/>
      <point x="427.5" y="0.0" type="line"/>
      <point x="465.0" y="252.5" type="line"/>
      <point x="607.5" y="252.5" type="line"/>
    </contour>
    <contour>
      <point x="431.0" y="472.5" type="line"/>
      <point x="408.5" y="307.5" type="line"/>
      <point x="259.0" y="307.5" type="line"/>
      <point x="282.5" y="472.5" type="line"/>
    </contour>
  </outline>
</glyph>
<glyph name="dollar" format="2">
  <advance width="633.0"/>
  <unicode hex="0024"/>
  <outline>
    <contour>
      <point x="286.5" y="900.0" type="line"/>
      <point x="286.5" y="779.0" type="line"/>
      <point x="169.0" y="775.0"/>
      <point x="73.0" y="692.5"/>
      <point x="73.0" y="565.0" type="curve" smooth="yes"/>
      <point x="73.0" y="446.5"/>
      <point x="159.5" y="386.0"/>
      <point x="286.5" y="334.5" type="curve"/>
      <point x="286.5" y="46.5" type="line"/>
      <point x="210.0" y="50.5"/>
      <point x="177.0" y="86.0"/>
      <point x="164.0" y="136.0" type="curve" smooth="yes"/>
      <point x="149.5" y="192.0"/>
      <point x="135.5" y="240.0"/>
      <point x="91.5" y="240.0" type="curve" smooth="yes"/>
      <point x="60.5" y="240.0"/>
      <point x="37.5" y="218.5"/>
      <point x="37.5" y="173.0" type="curve" smooth="yes"/>
      <point x="37.5" y="73.0"/>
      <point x="149.0" y="-2.0"/>
      <point x="286.5" y="-9.0" type="curve"/>
      <point x="286.5" y="-170.0" type="line"/>
      <point x="348.0" y="-170.0" type="line"/>
      <point x="348.0" y="-8.0" type="line"/>
      <point x="495.5" y="4.5"/>
      <point x="592.5" y="92.5"/>
      <point x="592.5" y="218.5" type="curve" smooth="yes"/>
      <point x="592.5" y="321.0"/>
      <point x="525.5" y="390.0"/>
      <point x="348.0" y="464.0" type="curve"/>
      <point x="348.0" y="724.0" type="line"/>
      <point x="469.5" y="716.5"/>
      <point x="417.0" y="561.0"/>
      <point x="508.5" y="561.0" type="curve" smooth="yes"/>
      <point x="542.0" y="561.0"/>
      <point x="563.5" y="582.5"/>
      <point x="563.5" y="617.0" type="curve" smooth="yes"/>
      <point x="563.5" y="698.0"/>
      <point x="462.0" y="772.0"/>
      <point x="348.0" y="777.5" type="curve"/>
      <point x="348.0" y="900.0" type="line"/>
    </contour>
    <contour>
      <point x="477.0" y="168.5" type="curve" smooth="yes"/>
      <point x="477.0" y="103.5"/>
      <point x="432.0" y="59.0"/>
      <point x="348.0" y="48.5" type="curve"/>
      <point x="348.0" y="309.0" type="line"/>
      <point x="430.0" y="273.0"/>
      <point x="477.0" y="235.5"/>
    </contour>
    <contour>
      <point x="176.5" y="617.0" type="curve" smooth="yes"/>
      <point x="176.5" y="674.5"/>
      <point x="223.0" y="718.0"/>
      <point x="286.5" y="723.0" type="curve"/>
      <point x="286.5" y="490.0" type="line"/>
      <point x="211.0" y="526.0"/>
      <point x="176.5" y="567.0"/>
    </contour>
  </outline>
</glyph>
<glyph name="percent" format="2">
  <advance width="691.5"/>
  <unicode hex="0025"/>
  <outline>
    <contour>
      <point x="659.0" y="770.0" type="line"/>
      <point x="599.5" y="770.0" type="line"/>
      <point x="33.0" y="0.0" type="line"/>
      <point x="101.5" y="0.0" type="line"/>
    </contour>
    <component base="zerosuperior" xOffset="51.5"/>
    <component base="zeroinferior" xOffset="328.5"/>
  </outline>
</glyph>
<glyph name="ampersand" format="2">
  <advance width="884.5"/>
  <unicode hex="0026"/>
  <outline>
    <contour>
      <point x="351.5" y="465.5" type="curve"/>
      <point x="316.5" y="510.5"/>
      <point x="297.0" y="563.0"/>
      <point x="297.0" y="618.0" type="curve" smooth="yes"/>
      <point x="297.0" y="680.5"/>
      <point x="319.5" y="714.0"/>
      <point x="362.0" y="714.0" type="curve" smooth="yes"/>
      <point x="408.5" y="714.0"/>
      <point x="438.5" y="676.0"/>
      <point x="438.5" y="617.0" type="curve" smooth="yes"/>
      <point x="438.5" y="560.0"/>
      <point x="411.5" y="512.0"/>
    </contour>
    <contour>
      <point x="462.5" y="133.0" type="line"/>
      <point x="407.0" y="86.0"/>
      <point x="340.5" y="58.0"/>
      <point x="287.0" y="58.0" type="curve" smooth="yes"/>
      <point x="217.5" y="58.0"/>
      <point x="167.0" y="109.0"/>
      <point x="167.0" y="179.0" type="curve" smooth="yes"/>
      <point x="167.0" y="246.0"/>
      <point x="210.5" y="312.5"/>
      <point x="286.0" y="359.0" type="curve"/>
    </contour>
    <contour>
      <point x="383.0" y="422.5" type="line"/>
      <point x="494.5" y="497.5"/>
      <point x="541.5" y="558.0"/>
      <point x="541.5" y="631.0" type="curve" smooth="yes"/>
      <point x="541.5" y="718.0"/>
      <point x="472.5" y="780.0"/>
      <point x="376.5" y="780.0" type="curve" smooth="yes"/>
      <point x="268.0" y="780.0"/>
      <point x="193.0" y="699.0"/>
      <point x="193.0" y="582.0" type="curve" smooth="yes"/>
      <point x="193.0" y="522.5"/>
      <point x="212.0" y="470.0"/>
      <point x="255.5" y="408.0" type="curve"/>
      <point x="97.0" y="330.5"/>
      <point x="28.0" y="257.0"/>
      <point x="28.0" y="167.0" type="curve" smooth="yes"/>
      <point x="28.0" y="65.0"/>
      <point x="119.0" y="-10.0"/>
      <point x="244.0" y="-10.0" type="curve" smooth="yes"/>
      <point x="336.5" y="-10.0"/>
      <point x="432.5" y="32.5"/>
      <point x="499.5" y="98.5" type="curve"/>
      <point x="584.5" y="20.0"/>
      <point x="636.0" y="-10.0"/>
      <point x="703.5" y="-10.0" type="curve" smooth="yes"/>
      <point x="786.5" y="-10.0"/>
      <point x="840.5" y="31.0"/>
      <point x="855.0" y="105.0" type="curve"/>
      <point x="829.5" y="112.0" type="line"/>
      <point x="807.0" y="71.0"/>
      <point x="790.5" y="60.0"/>
      <point x="754.5" y="60.0" type="curve" smooth="yes"/>
      <point x="695.5" y="60.0"/>
      <point x="631.0" y="101.5"/>
      <point x="576.0" y="174.0" type="curve"/>
      <point x="716.5" y="374.5" type="line" smooth="yes"/>
      <point x="745.5" y="416.5"/>
      <point x="769.0" y="432.0"/>
      <point x="828.5" y="432.0" type="curve"/>
      <point x="828.5" y="469.5" type="line"/>
      <point x="592.5" y="469.5" type="line"/>
      <point x="592.5" y="432.0" type="line"/>
      <point x="637.0" y="432.0"/>
      <point x="655.0" y="423.0"/>
      <point x="655.0" y="402.0" type="curve" smooth="yes"/>
      <point x="655.0" y="368.5"/>
      <point x="609.0" y="292.5"/>
      <point x="544.0" y="216.5" type="curve"/>
    </contour>
  </outline>
</glyph>
<glyph name="quotesingle" format="2">
  <advance width="214.0"/>
  <unicode hex="0027"/>
  <outline>
    <contour>
      <point x="124.5" y="559.0" type="line"/>
      <point x="135.5" y="633.0"/>
      <point x="159.5" y="743.0"/>
      <point x="159.5" y="775.0" type="curve" smooth="yes"/>
      <point x="159.5" y="807.0"/>
      <point x="137.0" y="830.0"/>
      <point x="106.5" y="830.0" type="curve" smooth="yes"/>
      <point x="76.5" y="830.0"/>
      <point x="54.0" y="807.0"/>
      <point x="54.0" y="776.0" type="curve" smooth="yes"/>
      <point x="54.0" y="744.5"/>
      <point x="78.5" y="633.0"/>
      <point x="89.5" y="559.0" type="curve"/>
    </contour>
  </outline>
</glyph>
<glyph name="parenleft" format="2">
  <advance width="337.5"/>
  <unicode hex="0028"/>
  <outline>
    <contour>
      <point x="286.0" y="831.0" type="line"/>
      <point x="124.5" y="677.0"/>
      <point x="41.0" y="503.0"/>
      <point x="41.0" y="323.0" type="curve" smooth="yes"/>
      <point x="41.0" y="138.5"/>
      <point x="128.0" y="-39.5"/>
      <point x="294.0" y="-194.0" type="curve"/>
      <point x="326.0" y="-163.5" type="line"/>
      <point x="207.0" y="-26.5"/>
      <point x="158.5" y="144.5"/>
      <point x="158.5" y="341.0" type="curve" smooth="yes"/>
      <point x="158.5" y="500.5"/>
      <point x="193.0" y="628.0"/>
      <point x="317.5" y="803.0" type="curve"/>
    </contour>
  </outline>
</glyph>
<glyph name="parenright" format="2">
  <advance width="337.5"/>
  <unicode hex="0029"/>
  <outline>
    <contour>
      <point x="20.0" y="803.0" type="line"/>
      <point x="144.5" y="628.0"/>
      <point x="179.0" y="500.5"/>
      <point x="179.0" y="341.0" type="curve" smooth="yes"/>
      <point x="179.0" y="144.5"/>
      <point x="130.5" y="-26.5"/>
      <point x="11.5" y="-163.5" type="curve"/>
      <point x="43.5" y="-194.0" type="line"/>
      <point x="209.5" y="-39.5"/>
      <point x="296.5" y="138.5"/>
      <point x="296.5" y="323.0" type="curve" smooth="yes"/>
      <point x="296.5" y="503.0"/>
      <point x="213.0" y="677.0"/>
      <point x="51.5" y="831.0" type="curve"/>
    </contour>
  </outline>
</glyph>
<glyph name="asterisk" format="2">
  <advance width="504.0"/>
  <unicode hex="002A"/>
  <outline>
    <contour>
      <point x="269.5" y="533.5" type="curve"/>
      <point x="270.5" y="445.5"/>
      <point x="299.0" y="434.5"/>
      <point x="299.0" y="399.5" type="curve" smooth="yes"/>
      <point x="299.0" y="370.5"/>
      <point x="278.0" y="349.0"/>
      <point x="251.5" y="349.0" type="curve" smooth="yes"/>
      <point x="222.5" y="349.0"/>
      <point x="202.0" y="371.5"/>
      <point x="202.0" y="402.0" type="curve" smooth="yes"/>
      <point x="202.0" y="430.5"/>
      <point x="232.0" y="452.5"/>
      <point x="233.5" y="533.0" type="curve"/>
      <point x="147.5" y="487.5"/>
      <point x="155.5" y="432.5"/>
      <point x="105.0" y="432.5" type="curve" smooth="yes"/>
      <point x="80.0" y="432.5"/>
      <point x="57.5" y="454.0"/>
      <point x="57.5" y="481.0" type="curve" smooth="yes"/>
      <point x="57.5" y="504.0"/>
      <point x="69.5" y="518.5"/>
      <point x="91.5" y="527.5" type="curve" smooth="yes"/>
      <point x="123.0" y="541.5"/>
      <point x="157.5" y="531.0"/>
      <point x="215.0" y="564.5" type="curve"/>
      <point x="158.0" y="595.0"/>
      <point x="129.5" y="592.0"/>
      <point x="102.0" y="599.5" type="curve" smooth="yes"/>
      <point x="78.0" y="604.0"/>
      <point x="58.5" y="625.5"/>
      <point x="58.5" y="648.0" type="curve" smooth="yes"/>
      <point x="58.5" y="676.5"/>
      <point x="82.5" y="696.5"/>
      <point x="107.5" y="696.5" type="curve" smooth="yes"/>
      <point x="156.0" y="696.5"/>
      <point x="159.0" y="638.0"/>
      <point x="233.5" y="596.0" type="curve"/>
      <point x="233.0" y="634.0"/>
      <point x="228.0" y="662.5"/>
      <point x="219.0" y="681.5" type="curve" smooth="yes"/>
      <point x="211.5" y="697.5"/>
      <point x="203.0" y="709.0"/>
      <point x="203.0" y="728.0" type="curve" smooth="yes"/>
      <point x="203.0" y="758.5"/>
      <point x="223.5" y="780.0"/>
      <point x="251.5" y="780.0" type="curve" smooth="yes"/>
      <point x="279.5" y="780.0"/>
      <point x="301.0" y="758.5"/>
      <point x="301.0" y="728.0" type="curve" smooth="yes"/>
      <point x="301.0" y="711.0"/>
      <point x="292.0" y="696.5"/>
      <point x="284.0" y="679.0" type="curve" smooth="yes"/>
      <point x="274.5" y="658.0"/>
      <point x="270.0" y="632.0"/>
      <point x="269.5" y="596.0" type="curve"/>
      <point x="356.0" y="646.0"/>
      <point x="342.0" y="696.5"/>
      <point x="395.5" y="696.5" type="curve" smooth="yes"/>
      <point x="420.5" y="696.5"/>
      <point x="444.5" y="675.5"/>
      <point x="444.5" y="648.0" type="curve" smooth="yes"/>
      <point x="444.5" y="616.0"/>
      <point x="420.5" y="600.0"/>
      <point x="389.0" y="597.0" type="curve" smooth="yes"/>
      <point x="360.0" y="594.5"/>
      <point x="329.5" y="587.5"/>
      <point x="288.0" y="564.5" type="curve"/>
      <point x="346.0" y="530.5"/>
      <point x="379.0" y="540.5"/>
      <point x="409.5" y="528.0" type="curve" smooth="yes"/>
      <point x="432.5" y="519.0"/>
      <point x="445.5" y="506.0"/>
      <point x="445.5" y="480.5" type="curve" smooth="yes"/>
      <point x="445.5" y="452.5"/>
      <point x="422.0" y="433.0"/>
      <point x="397.5" y="433.0" type="curve" smooth="yes"/>
      <point x="346.5" y="433.0"/>
      <point x="341.5" y="499.5"/>
    </contour>
  </outline>
</glyph>
<glyph name="plus" format="2">
  <advance width="555.0"/>
  <unicode hex="002B"/>
  <outline>
    <contour>
      <point x="307.5" y="95.0" type="line"/>
      <point x="307.5" y="310.0" type="line"/>
      <point x="517.5" y="310.0" type="line"/>
      <point x="517.5" y="366.0" type="line"/>
      <point x="307.5" y="366.0" type="line"/>
      <point x="307.5" y="581.0" type="line"/>
      <point x="247.5" y="581.0" type="line"/>
      <point x="247.5" y="366.0" type="line"/>
      <point x="37.5" y="366.0" type="line"/>
      <point x="37.5" y="310.0" type="line"/>
      <point x="247.5" y="310.0" type="line"/>
      <point x="247.5" y="95.0" type="line"/>
    </contour>
  </outline>
</glyph>
<glyph name="comma" format="2">
  <advance width="267.5"/>
  <unicode hex="002C"/>
  <outline>
    <contour>
      <point x="65.5" y="-165.0" type="line"/>
      <point x="165.5" y="-96.0"/>
      <point x="206.0" y="-38.5"/>
      <point x="206.0" y="34.5" type="curve" smooth="yes"/>
      <point x="206.0" y="95.5"/>
      <point x="178.5" y="131.0"/>
      <point x="131.5" y="131.0" type="curve" smooth="yes"/>
      <point x="90.5" y="131.0"/>
      <point x="60.5" y="102.0"/>
      <point x="60.5" y="61.5" type="curve" smooth="yes"/>
      <point x="60.5" y="26.5"/>
      <point x="83.0" y="0.0"/>
      <point x="112.0" y="0.0" type="curve" smooth="yes"/>
      <point x="122.5" y="0.0"/>
      <point x="134.5" y="3.5"/>
      <point x="142.0" y="8.0" type="curve"/>
      <point x="142.0" y="-38.5"/>
      <point x="111.0" y="-79.0"/>
      <point x="39.5" y="-128.0" type="curve"/>
    </contour>
  </outline>
</glyph>
<glyph name="hyphen" format="2">
  <advance width="460.0"/>
  <unicode hex="002D"/>
  <outline>
    <contour>
      <point x="388.5" y="245.5" type="line"/>
      <point x="388.5" y="333.5" type="line"/>
      <point x="71.5" y="333.5" type="line"/>
      <point x="71.5" y="245.5" type="line"/>
    </contour>
  </outline>
</glyph>
<glyph name="period" format="2">
  <advance width="262.5"/>
  <unicode hex="002E"/>
  <outline>
    <contour>
      <point x="60.5" y="59.5" type="curve" smooth="yes"/>
      <point x="60.5" y="21.0"/>
      <point x="91.5" y="-10.0"/>
      <point x="130.5" y="-10.0" type="curve" smooth="yes"/>
      <point x="171.0" y="-10.0"/>
      <point x="202.0" y="21.0"/>
      <point x="202.0" y="59.5" type="curve" smooth="yes"/>
      <point x="202.0" y="99.5"/>
      <point x="171.0" y="131.0"/>
      <point x="130.5" y="131.0" type="curve" smooth="yes"/>
      <point x="91.5" y="131.0"/>
      <point x="60.5" y="99.5"/>
    </contour>
  </outline>
</glyph>
<glyph name="slash" format="2">
  <advance width="468.5"/>
  <unicode hex="002F"/>
  <outline>
    <contour>
      <point x="443.0" y="770.0" type="line"/>
      <point x="388.0" y="770.0" type="line"/>
      <point x="26.0" y="0.0" type="line"/>
      <point x="90.5" y="0.0" type="line"/>
    </contour>
  </outline>
</glyph>
<glyph name="zero" format="2">
  <advance width="734.5"/>
  <unicode hex="0030"/>
  <outline>
    <contour>
      <point x="366.0" y="780.0" type="curve" smooth="yes"/>
      <point x="194.5" y="780.0"/>
      <point x="54.0" y="605.0"/>
      <point x="54.0" y="379.0" type="curve" smooth="yes"/>
      <point x="54.0" y="162.0"/>
      <point x="194.5" y="-10.0"/>
      <point x="366.0" y="-10.0" type="curve" smooth="yes"/>
      <point x="539.0" y="-10.0"/>
      <point x="680.5" y="162.0"/>
      <point x="680.5" y="379.0" type="curve" smooth="yes"/>
      <point x="680.5" y="605.0"/>
      <point x="539.0" y="780.0"/>
    </contour>
    <contour>
      <point x="366.0" y="43.0" type="curve" smooth="yes"/>
      <point x="266.0" y="43.0"/>
      <point x="206.0" y="119.5"/>
      <point x="206.0" y="376.0" type="curve" smooth="yes"/>
      <point x="206.0" y="643.5"/>
      <point x="266.0" y="727.0"/>
      <point x="366.0" y="727.0" type="curve" smooth="yes"/>
      <point x="466.0" y="727.0"/>
      <point x="526.0" y="643.5"/>
      <point x="526.0" y="376.0" type="curve" smooth="yes"/>
      <point x="526.0" y="119.5"/>
      <point x="465.5" y="43.0"/>
    </contour>
  </outline>
</glyph>
<glyph name="one" format="2">
  <advance width="441.0"/>
  <unicode hex="0031"/>
  <outline>
    <contour>
      <point x="289.0" y="780.0" type="line"/>
      <point x="220.5" y="757.0"/>
      <point x="117.5" y="741.0"/>
      <point x="49.5" y="738.0" type="curve"/>
      <point x="49.5" y="699.0" type="line"/>
      <point x="120.5" y="699.0"/>
      <point x="154.5" y="696.0"/>
      <point x="162.0" y="667.0" type="curve" smooth="yes"/>
      <point x="166.5" y="651.0"/>
      <point x="166.5" y="598.0"/>
      <point x="166.5" y="521.0" type="curve" smooth="yes"/>
      <point x="166.5" y="156.0" type="line" smooth="yes"/>
      <point x="166.5" y="62.0"/>
      <point x="150.5" y="43.0"/>
      <point x="54.5" y="39.0" type="curve"/>
      <point x="54.5" y="0.0" type="line"/>
      <point x="395.5" y="0.0" type="line"/>
      <point x="395.5" y="39.0" type="line"/>
      <point x="303.0" y="42.0"/>
      <point x="289.0" y="60.0"/>
      <point x="289.0" y="163.0" type="curve" smooth="yes"/>
    </contour>
  </outline>
</glyph>
<glyph name="two" format="2">
  <advance width="633.5"/>
  <unicode hex="0032"/>
  <outline>
    <contour>
      <point x="211.0" y="113.0" type="line"/>
      <point x="413.0" y="255.5"/>
      <point x="569.0" y="401.0"/>
      <point x="569.0" y="564.0" type="curve" smooth="yes"/>
      <point x="569.0" y="691.0"/>
      <point x="464.5" y="780.5"/>
      <point x="315.5" y="780.5" type="curve" smooth="yes"/>
      <point x="165.5" y="780.5"/>
      <point x="54.0" y="692.0"/>
      <point x="54.0" y="573.0" type="curve" smooth="yes"/>
      <point x="54.0" y="486.0"/>
      <point x="112.5" y="423.0"/>
      <point x="191.0" y="423.0" type="curve" smooth="yes"/>
      <point x="233.0" y="423.0"/>
      <point x="265.0" y="446.0"/>
      <point x="271.0" y="481.0" type="curve"/>
      <point x="208.5" y="481.0"/>
      <point x="168.5" y="525.0"/>
      <point x="168.5" y="594.0" type="curve" smooth="yes"/>
      <point x="168.5" y="673.0"/>
      <point x="223.0" y="728.5"/>
      <point x="299.0" y="728.5" type="curve" smooth="yes"/>
      <point x="378.5" y="728.5"/>
      <point x="428.5" y="666.0"/>
      <point x="428.5" y="566.0" type="curve" smooth="yes"/>
      <point x="428.5" y="426.0"/>
      <point x="355.5" y="311.5"/>
      <point x="44.5" y="39.5" type="curve"/>
      <point x="44.5" y="0.0" type="line"/>
      <point x="539.0" y="0.0" type="line"/>
      <point x="578.0" y="223.0" type="line"/>
      <point x="537.5" y="223.0" type="line"/>
      <point x="508.5" y="129.0"/>
      <point x="479.0" y="108.0"/>
      <point x="413.5" y="108.0" type="curve" smooth="yes"/>
      <point x="212.0" y="108.0" type="line"/>
    </contour>
  </outline>
</glyph>
<glyph name="three" format="2">
  <advance width="626.5"/>
  <unicode hex="0033"/>
  <outline>
    <contour>
      <point x="429.0" y="215.0" type="curve" smooth="yes"/>
      <point x="429.0" y="321.0"/>
      <point x="384.0" y="383.0"/>
      <point x="308.0" y="383.0" type="curve"/>
      <point x="285.0" y="372.5"/>
      <point x="258.0" y="365.0"/>
      <point x="239.5" y="365.0" type="curve" smooth="yes"/>
      <point x="207.5" y="365.0"/>
      <point x="187.0" y="380.0"/>
      <point x="187.0" y="404.0" type="curve" smooth="yes"/>
      <point x="187.0" y="425.0"/>
      <point x="206.0" y="437.0"/>
      <point x="237.5" y="437.0" type="curve" smooth="yes"/>
      <point x="255.0" y="437.0"/>
      <point x="280.0" y="432.0"/>
      <point x="299.5" y="426.0" type="curve"/>
      <point x="366.5" y="426.0"/>
      <point x="411.5" y="486.0"/>
      <point x="411.5" y="589.0" type="curve" smooth="yes"/>
      <point x="411.5" y="684.5"/>
      <point x="372.0" y="732.0"/>
      <point x="299.5" y="732.0" type="curve" smooth="yes"/>
      <point x="234.0" y="732.0"/>
      <point x="194.0" y="699.5"/>
      <point x="194.0" y="645.5" type="curve" smooth="yes"/>
      <point x="194.0" y="605.0"/>
      <point x="220.0" y="576.0"/>
      <point x="257.5" y="576.0" type="curve"/>
      <point x="250.5" y="547.0"/>
      <point x="222.0" y="528.0"/>
      <point x="184.0" y="528.0" type="curve" smooth="yes"/>
      <point x="122.5" y="528.0"/>
      <point x="74.0" y="577.0"/>
      <point x="74.0" y="638.5" type="curve" smooth="yes"/>
      <point x="74.0" y="723.5"/>
      <point x="164.5" y="780.0"/>
      <point x="300.0" y="780.0" type="curve" smooth="yes"/>
      <point x="450.5" y="780.0"/>
      <point x="548.0" y="709.5"/>
      <point x="548.0" y="602.0" type="curve" smooth="yes"/>
      <point x="548.0" y="514.0"/>
      <point x="484.5" y="438.5"/>
      <point x="401.0" y="417.0" type="curve"/>
      <point x="401.0" y="411.0" type="line"/>
      <point x="502.0" y="384.0"/>
      <point x="572.0" y="305.0"/>
      <point x="572.0" y="207.0" type="curve" smooth="yes"/>
      <point x="572.0" y="82.0"/>
      <point x="456.0" y="-10.0"/>
      <point x="295.5" y="-10.0" type="curve" smooth="yes"/>
      <point x="150.5" y="-10.0"/>
      <point x="44.0" y="65.0"/>
      <point x="44.0" y="167.5" type="curve" smooth="yes"/>
      <point x="44.0" y="240.5"/>
      <point x="99.0" y="299.0"/>
      <point x="167.5" y="299.0" type="curve" smooth="yes"/>
      <point x="208.0" y="299.0"/>
      <point x="241.0" y="277.0"/>
      <point x="248.5" y="245.0" type="curve"/>
      <point x="203.5" y="245.0"/>
      <point x="170.5" y="206.0"/>
      <point x="170.5" y="153.5" type="curve" smooth="yes"/>
      <point x="170.5" y="87.0"/>
      <point x="220.0" y="42.0"/>
      <point x="294.0" y="42.0" type="curve" smooth="yes"/>
      <point x="377.0" y="42.0"/>
      <point x="429.0" y="107.0"/>
    </contour>
  </outline>
</glyph>
<glyph name="four" format="2">
  <advance width="624.5"/>
  <unicode hex="0034"/>
  <outline>
    <contour>
      <point x="13.0" y="248.5" type="line"/>
      <point x="371.5" y="780.0" type="line"/>
      <point x="434.5" y="780.0" type="line"/>
      <point x="434.5" y="249.0" type="line"/>
      <point x="524.5" y="252.0"/>
      <point x="540.0" y="265.5"/>
      <point x="540.0" y="342.5" type="curve"/>
      <point x="576.0" y="342.5" type="line"/>
      <point x="576.0" y="109.5" type="line"/>
      <point x="540.0" y="109.5" type="line"/>
      <point x="540.0" y="182.5"/>
      <point x="524.5" y="195.5"/>
      <point x="434.5" y="197.5" type="curve"/>
      <point x="434.5" y="171.5" type="line" smooth="yes"/>
      <point x="434.5" y="73.5"/>
      <point x="448.5" y="40.5"/>
      <point x="520.5" y="39.0" type="curve"/>
      <point x="520.5" y="0.0" type="line"/>
      <point x="208.5" y="0.0" type="line"/>
      <point x="208.5" y="39.0" type="line"/>
      <point x="299.5" y="41.0"/>
      <point x="315.0" y="75.5"/>
      <point x="315.0" y="164.5" type="curve" smooth="yes"/>
      <point x="315.0" y="193.5" type="line"/>
      <point x="13.0" y="193.5" type="line"/>
    </contour>
    <contour>
      <point x="315.0" y="590.0" type="line"/>
      <point x="310.5" y="590.0" type="line"/>
      <point x="80.5" y="250.0" type="line"/>
      <point x="315.0" y="250.0" type="line"/>
    </contour>
  </outline>
</glyph>
<glyph name="five" format="2">
  <advance width="581.5"/>
  <unicode hex="0035"/>
  <outline>
    <contour>
      <point x="247.0" y="656.0" type="line"/>
      <point x="339.5" y="656.0" type="line" smooth="yes"/>
      <point x="430.0" y="656.0"/>
      <point x="492.0" y="701.0"/>
      <point x="509.5" y="780.0" type="curve"/>
      <point x="503.5" y="781.0" type="line"/>
      <point x="476.0" y="769.0"/>
      <point x="424.5" y="762.0"/>
      <point x="357.0" y="762.0" type="curve" smooth="yes"/>
      <point x="300.0" y="762.0"/>
      <point x="260.0" y="768.0"/>
      <point x="227.0" y="780.0" type="curve"/>
      <point x="117.5" y="367.0" type="line" smooth="yes"/>
      <point x="116.5" y="363.5"/>
      <point x="116.0" y="360.0"/>
      <point x="116.0" y="357.0" type="curve" smooth="yes"/>
      <point x="116.0" y="343.0"/>
      <point x="126.0" y="334.0"/>
      <point x="141.0" y="334.0" type="curve" smooth="yes"/>
      <point x="155.5" y="334.0"/>
      <point x="164.0" y="339.5"/>
      <point x="173.5" y="367.0" type="curve" smooth="yes"/>
      <point x="196.0" y="431.0"/>
      <point x="232.0" y="459.5"/>
      <point x="288.5" y="459.5" type="curve" smooth="yes"/>
      <point x="360.0" y="459.5"/>
      <point x="388.0" y="408.5"/>
      <point x="388.0" y="297.0" type="curve" smooth="yes"/>
      <point x="388.0" y="141.0"/>
      <point x="326.5" y="39.0"/>
      <point x="223.0" y="39.0" type="curve" smooth="yes"/>
      <point x="94.5" y="39.0"/>
      <point x="155.0" y="190.0"/>
      <point x="70.0" y="190.0" type="curve" smooth="yes"/>
      <point x="35.5" y="190.0"/>
      <point x="16.0" y="167.0"/>
      <point x="16.0" y="128.0" type="curve" smooth="yes"/>
      <point x="16.0" y="48.0"/>
      <point x="101.0" y="-10.0"/>
      <point x="220.0" y="-10.0" type="curve" smooth="yes"/>
      <point x="394.5" y="-10.0"/>
      <point x="530.0" y="115.0"/>
      <point x="530.0" y="274.0" type="curve" smooth="yes"/>
      <point x="530.0" y="408.0"/>
      <point x="434.5" y="510.0"/>
      <point x="308.0" y="510.0" type="curve" smooth="yes"/>
      <point x="267.0" y="510.0"/>
      <point x="223.0" y="496.0"/>
      <point x="202.0" y="476.5" type="curve"/>
      <point x="200.0" y="479.5" type="line"/>
    </contour>
  </outline>
</glyph>
<glyph name="six" format="2">
  <advance width="658.5"/>
  <unicode hex="0036"/>
  <outline>
    <contour>
      <point x="607.5" y="259.0" type="curve" smooth="yes"/>
      <point x="607.5" y="402.5"/>
      <point x="500.5" y="510.5"/>
      <point x="359.5" y="510.5" type="curve" smooth="yes"/>
      <point x="294.0" y="510.5"/>
      <point x="247.5" y="485.5"/>
      <point x="205.0" y="430.5" type="curve"/>
      <point x="202.0" y="432.5" type="line"/>
      <point x="202.0" y="602.0"/>
      <point x="270.0" y="730.0"/>
      <point x="359.5" y="730.0" type="curve" smooth="yes"/>
      <point x="464.0" y="730.0"/>
      <point x="431.5" y="616.0"/>
      <point x="511.5" y="616.0" type="curve" smooth="yes"/>
      <point x="548.0" y="616.0"/>
      <point x="571.5" y="638.0"/>
      <point x="571.5" y="673.0" type="curve" smooth="yes"/>
      <point x="571.5" y="733.0"/>
      <point x="491.0" y="780.0"/>
      <point x="389.5" y="780.0" type="curve" smooth="yes"/>
      <point x="205.5" y="780.0"/>
      <point x="54.5" y="580.0"/>
      <point x="54.5" y="337.0" type="curve" smooth="yes"/>
      <point x="54.5" y="133.0"/>
      <point x="168.0" y="-10.0"/>
      <point x="331.0" y="-10.0" type="curve" smooth="yes"/>
      <point x="484.0" y="-10.0"/>
      <point x="607.5" y="109.0"/>
    </contour>
    <contour>
      <point x="200.0" y="334.5" type="line"/>
      <point x="243.0" y="419.5"/>
      <point x="286.0" y="456.5"/>
      <point x="345.5" y="456.5" type="curve" smooth="yes"/>
      <point x="423.0" y="456.5"/>
      <point x="464.5" y="386.5"/>
      <point x="464.5" y="255.0" type="curve" smooth="yes"/>
      <point x="464.5" y="108.5"/>
      <point x="423.0" y="40.0"/>
      <point x="335.0" y="40.0" type="curve" smooth="yes"/>
      <point x="247.0" y="40.0"/>
      <point x="200.0" y="122.5"/>
      <point x="200.0" y="283.0" type="curve" smooth="yes"/>
    </contour>
  </outline>
</glyph>
<glyph name="seven" format="2">
  <advance width="509.0"/>
  <unicode hex="0037"/>
  <outline>
    <contour>
      <point x="417.5" y="661.0" type="line"/>
      <point x="300.06776049302573" y="433.96459918146854"/>
      <point x="274.0" y="385.0"/>
      <point x="203.5" y="264.5" type="curve" smooth="yes"/>
      <point x="111.0" y="99.0"/>
      <point x="101.5" y="73.5"/>
      <point x="101.5" y="42.0" type="curve" smooth="yes"/>
      <point x="101.5" y="12.5"/>
      <point x="123.0" y="-10.0"/>
      <point x="155.0" y="-10.0" type="curve" smooth="yes"/>
      <point x="195.0" y="-10.0"/>
      <point x="222.5" y="18.5"/>
      <point x="258.5" y="116.5" type="curve" smooth="yes"/>
      <point x="354.0" y="383.0"/>
      <point x="375.0" y="434.5"/>
      <point x="517.5" y="740.0" type="curve"/>
      <point x="517.5" y="770.0" type="line"/>
      <point x="212.0" y="770.0" type="line" smooth="yes"/>
      <point x="151.0" y="770.0"/>
      <point x="134.0" y="776.5"/>
      <point x="134.0" y="800.0" type="curve" smooth="yes"/>
      <point x="134.0" y="808.5"/>
      <point x="136.0" y="821.0"/>
      <point x="138.5" y="830.0" type="curve"/>
      <point x="97.5" y="830.0" type="line"/>
      <point x="25.5" y="550.0" type="line"/>
      <point x="64.5" y="550.0" type="line"/>
      <point x="80.5" y="589.0" type="line" smooth="yes"/>
      <point x="106.0" y="653.0"/>
      <point x="122.5" y="661.0"/>
      <point x="229.5" y="661.0" type="curve" smooth="yes"/>
    </contour>
  </outline>
</glyph>
<glyph name="eight" format="2">
  <advance width="620.5"/>
  <unicode hex="0038"/>
  <outline>
    <contour>
      <point x="335.5" y="322.5" type="line" smooth="yes"/>
      <point x="426.0" y="276.5"/>
      <point x="462.0" y="236.5"/>
      <point x="462.0" y="179.0" type="curve" smooth="yes"/>
      <point x="462.0" y="97.0"/>
      <point x="400.5" y="41.0"/>
      <point x="310.0" y="41.0" type="curve" smooth="yes"/>
      <point x="221.0" y="41.0"/>
      <point x="164.5" y="98.5"/>
      <point x="164.5" y="188.5" type="curve" smooth="yes"/>
      <point x="164.5" y="258.5"/>
      <point x="199.5" y="318.0"/>
      <point x="264.5" y="357.5" type="curve"/>
    </contour>
    <contour>
      <point x="418.5" y="440.5" type="curve"/>
      <point x="498.5" y="487.0"/>
      <point x="533.0" y="539.0"/>
      <point x="533.0" y="603.0" type="curve" smooth="yes"/>
      <point x="533.0" y="656.5"/>
      <point x="507.0" y="705.0"/>
      <point x="460.0" y="738.0" type="curve" smooth="yes"/>
      <point x="418.0" y="765.0"/>
      <point x="364.0" y="780.0"/>
      <point x="306.5" y="780.0" type="curve" smooth="yes"/>
      <point x="240.0" y="780.0"/>
      <point x="184.0" y="761.0"/>
      <point x="142.5" y="724.0" type="curve" smooth="yes"/>
      <point x="100.0" y="685.5"/>
      <point x="77.0" y="634.5"/>
      <point x="77.0" y="577.5" type="curve" smooth="yes"/>
      <point x="77.0" y="497.5"/>
      <point x="121.5" y="429.5"/>
      <point x="206.5" y="378.5" type="curve"/>
      <point x="106.5" y="328.5"/>
      <point x="54.5" y="260.0"/>
      <point x="54.5" y="180.5" type="curve" smooth="yes"/>
      <point x="54.5" y="72.5"/>
      <point x="164.0" y="-10.0"/>
      <point x="307.0" y="-10.0" type="curve" smooth="yes"/>
      <point x="457.0" y="-10.0"/>
      <point x="567.5" y="86.0"/>
      <point x="567.5" y="216.0" type="curve" smooth="yes"/>
      <point x="567.5" y="306.0"/>
      <point x="515.0" y="385.0"/>
    </contour>
    <contour>
      <point x="303.0" y="487.5" type="line" smooth="yes"/>
      <point x="217.5" y="527.0"/>
      <point x="177.5" y="568.0"/>
      <point x="177.5" y="617.5" type="curve" smooth="yes"/>
      <point x="177.5" y="683.0"/>
      <point x="229.0" y="730.0"/>
      <point x="301.5" y="730.0" type="curve" smooth="yes"/>
      <point x="378.0" y="730.0"/>
      <point x="435.5" y="671.0"/>
      <point x="435.5" y="593.0" type="curve" smooth="yes"/>
      <point x="435.5" y="544.0"/>
      <point x="408.5" y="496.5"/>
      <point x="360.5" y="461.5" type="curve"/>
    </contour>
  </outline>
</glyph>
<glyph name="nine" format="2">
  <advance width="658.5"/>
  <unicode hex="0039"/>
  <outline>
    <contour>
      <point x="51.0" y="511.0" type="curve"/>
      <point x="51.0" y="367.5"/>
      <point x="158.0" y="259.5"/>
      <point x="299.0" y="259.5" type="curve" smooth="yes"/>
      <point x="365.5" y="259.5"/>
      <point x="413.0" y="284.5"/>
      <point x="456.0" y="339.5" type="curve"/>
      <point x="459.0" y="337.5" type="line"/>
      <point x="459.0" y="168.0"/>
      <point x="390.0" y="40.0"/>
      <point x="299.0" y="40.0" type="curve" smooth="yes"/>
      <point x="194.5" y="40.0"/>
      <point x="227.0" y="154.0"/>
      <point x="147.0" y="154.0" type="curve" smooth="yes"/>
      <point x="110.5" y="154.0"/>
      <point x="87.0" y="132.0"/>
      <point x="87.0" y="97.0" type="curve" smooth="yes"/>
      <point x="87.0" y="37.0"/>
      <point x="167.5" y="-10.0"/>
      <point x="269.0" y="-10.0" type="curve" smooth="yes"/>
      <point x="453.0" y="-10.0"/>
      <point x="604.0" y="190.0"/>
      <point x="604.0" y="433.0" type="curve" smooth="yes"/>
      <point x="604.0" y="637.0"/>
      <point x="490.5" y="780.0"/>
      <point x="327.5" y="780.0" type="curve" smooth="yes"/>
      <point x="174.5" y="780.0"/>
      <point x="51.0" y="661.0"/>
    </contour>
    <contour>
      <point x="458.5" y="435.5" type="line"/>
      <point x="415.5" y="350.5"/>
      <point x="372.5" y="313.5"/>
      <point x="313.0" y="313.5" type="curve" smooth="yes"/>
      <point x="235.5" y="313.5"/>
      <point x="194.0" y="383.5"/>
      <point x="194.0" y="515.0" type="curve" smooth="yes"/>
      <point x="194.0" y="661.5"/>
      <point x="235.5" y="730.0"/>
      <point x="323.5" y="730.0" type="curve" smooth="yes"/>
      <point x="411.5" y="730.0"/>
      <point x="458.5" y="647.0"/>
      <point x="458.5" y="484.5" type="curve"/>
    </contour>
  </outline>
</glyph>
<glyph name="colon" format="2">
  <advance width="284.5"/>
  <unicode hex="003A"/>
  <outline>
    <contour>
      <point x="71.5" y="59.5" type="curve" smooth="yes"/>
      <point x="71.5" y="21.0"/>
      <point x="102.5" y="-10.0"/>
      <point x="141.5" y="-10.0" type="curve" smooth="yes"/>
      <point x="182.0" y="-10.0"/>
      <point x="213.0" y="21.0"/>
      <point x="213.0" y="59.5" type="curve" smooth="yes"/>
      <point x="213.0" y="99.5"/>
      <point x="182.0" y="131.0"/>
      <point x="141.5" y="131.0" type="curve" smooth="yes"/>
      <point x="102.5" y="131.0"/>
      <point x="71.5" y="99.5"/>
    </contour>
    <contour>
      <point x="71.5" y="380.5" type="curve" smooth="yes"/>
      <point x="71.5" y="342.0"/>
      <point x="102.5" y="311.0"/>
      <point x="141.5" y="311.0" type="curve" smooth="yes"/>
      <point x="182.0" y="311.0"/>
      <point x="213.0" y="342.0"/>
      <point x="213.0" y="380.5" type="curve" smooth="yes"/>
      <point x="213.0" y="420.5"/>
      <point x="182.0" y="452.0"/>
      <point x="141.5" y="452.0" type="curve" smooth="yes"/>
      <point x="102.5" y="452.0"/>
      <point x="71.5" y="420.5"/>
    </contour>
  </outline>
</glyph>
<glyph name="semicolon" format="2">
  <advance width="303.0"/>
  <unicode hex="003B"/>
  <outline>
    <contour>
      <point x="86.0" y="-165.0" type="line"/>
      <point x="186.0" y="-96.0"/>
      <point x="226.5" y="-38.5"/>
      <point x="226.5" y="34.5" type="curve" smooth="yes"/>
      <point x="226.5" y="95.5"/>
      <point x="199.0" y="131.0"/>
      <point x="152.0" y="131.0" type="curve" smooth="yes"/>
      <point x="111.0" y="131.0"/>
      <point x="81.0" y="102.0"/>
      <point x="81.0" y="61.5" type="curve" smooth="yes"/>
      <point x="81.0" y="26.5"/>
      <point x="103.5" y="0.0"/>
      <point x="132.5" y="0.0" type="curve" smooth="yes"/>
      <point x="143.0" y="0.0"/>
      <point x="155.0" y="3.5"/>
      <point x="162.5" y="8.0" type="curve"/>
      <point x="162.5" y="-38.5"/>
      <point x="131.5" y="-79.0"/>
      <point x="60.0" y="-128.0" type="curve"/>
    </contour>
    <contour>
      <point x="81.0" y="380.5" type="curve" smooth="yes"/>
      <point x="81.0" y="342.0"/>
      <point x="112.0" y="311.0"/>
      <point x="151.0" y="311.0" type="curve" smooth="yes"/>
      <point x="191.5" y="311.0"/>
      <point x="222.5" y="342.0"/>
      <point x="222.5" y="380.5" type="curve" smooth="yes"/>
      <point x="222.5" y="420.5"/>
      <point x="191.5" y="452.0"/>
      <point x="151.0" y="452.0" type="curve" smooth="yes"/>
      <point x="112.0" y="452.0"/>
      <point x="81.0" y="420.5"/>
    </contour>
  </outline>
</glyph>
<glyph name="less" format="2">
  <advance width="587.0"/>
  <unicode hex="003C"/>
  <outline>
    <contour>
      <point x="90.0" y="336.0" type="line"/>
      <point x="506.5" y="537.5" type="line"/>
      <point x="506.5" y="600.0" type="line"/>
      <point x="37.5" y="368.0" type="line"/>
      <point x="37.5" y="304.0" type="line"/>
      <point x="506.5" y="72.0" type="line"/>
      <point x="506.5" y="133.5" type="line"/>
    </contour>
  </outline>
</glyph>
<glyph name="equal" format="2">
  <advance width="619.0"/>
  <unicode hex="003D"/>
  <outline>
    <contour>
      <point x="542.0" y="477.0" type="line"/>
      <point x="77.0" y="477.0" type="line"/>
      <point x="77.0" y="422.0" type="line"/>
      <point x="542.0" y="422.0" type="line"/>
    </contour>
    <contour>
      <point x="542.0" y="302.0" type="line"/>
      <point x="77.0" y="302.0" type="line"/>
      <point x="77.0" y="247.0" type="line"/>
      <point x="542.0" y="247.0" type="line"/>
    </contour>
  </outline>
</glyph>
<glyph name="greater" format="2">
  <advance width="587.0"/>
  <unicode hex="003E"/>
  <outline>
    <contour>
      <point x="80.5" y="133.5" type="line"/>
      <point x="80.5" y="72.0" type="line"/>
      <point x="549.5" y="304.0" type="line"/>
      <point x="549.5" y="368.0" type="line"/>
      <point x="80.5" y="600.0" type="line"/>
      <point x="80.5" y="537.5" type="line"/>
      <point x="497.0" y="336.0" type="line"/>
    </contour>
  </outline>
</glyph>
<glyph name="question" format="2">
  <advance width="401.0"/>
  <unicode hex="003F"/>
  <outline>
    <contour>
      <point x="183.0" y="238.0" type="line"/>
      <point x="183.0" y="365.0" type="line"/>
      <point x="288.0" y="365.0"/>
      <point x="349.0" y="426.0"/>
      <point x="349.0" y="530.0" type="curve" smooth="yes"/>
      <point x="349.0" y="661.0"/>
      <point x="244.5" y="780.0"/>
      <point x="130.0" y="780.0" type="curve" smooth="yes"/>
      <point x="86.0" y="780.0"/>
      <point x="61.5" y="760.0"/>
      <point x="61.5" y="721.5" type="curve" smooth="yes"/>
      <point x="61.5" y="688.0"/>
      <point x="86.0" y="665.0"/>
      <point x="121.0" y="665.0" type="curve" smooth="yes"/>
      <point x="143.5" y="665.0"/>
      <point x="173.0" y="676.0"/>
      <point x="198.0" y="676.0" type="curve" smooth="yes"/>
      <point x="247.0" y="676.0"/>
      <point x="287.0" y="626.0"/>
      <point x="287.0" y="565.0" type="curve" smooth="yes"/>
      <point x="287.0" y="503.5"/>
      <point x="242.0" y="471.0"/>
      <point x="153.5" y="471.0" type="curve" smooth="yes"/>
      <point x="121.5" y="471.0" type="line"/>
      <point x="121.5" y="238.0" type="line"/>
    </contour>
    <contour>
      <point x="78.0" y="60.0" type="curve" smooth="yes"/>
      <point x="78.0" y="20.5"/>
      <point x="109.0" y="-10.0"/>
      <point x="148.5" y="-10.0" type="curve" smooth="yes"/>
      <point x="188.5" y="-10.0"/>
      <point x="219.5" y="21.0"/>
      <point x="219.5" y="60.0" type="curve" smooth="yes"/>
      <point x="219.5" y="99.5"/>
      <point x="188.0" y="131.0"/>
      <point x="148.5" y="131.0" type="curve" smooth="yes"/>
      <point x="109.0" y="131.0"/>
      <point x="78.0" y="99.5"/>
    </contour>
  </outline>
</glyph>
<glyph name="at" format="2">
  <advance width="1045.0"/>
  <unicode hex="0040"/>
  <outline>
    <contour>
      <point x="703.0" y="530.0" type="line"/>
      <point x="811.5" y="530.0" type="line"/>
      <point x="743.0" y="298.0" type="line" smooth="yes"/>
      <point x="725.5" y="239.0"/>
      <point x="716.0" y="191.5"/>
      <point x="716.0" y="172.0" type="curve" smooth="yes"/>
      <point x="716.0" y="147.5"/>
      <point x="733.5" y="132.0"/>
      <point x="761.0" y="132.0" type="curve" smooth="yes"/>
      <point x="846.5" y="132.0"/>
      <point x="937.0" y="279.5"/>
      <point x="937.0" y="419.0" type="curve" smooth="yes"/>
      <point x="937.0" y="598.0"/>
      <point x="787.5" y="730.0"/>
      <point x="584.0" y="730.0" type="curve" smooth="yes"/>
      <point x="341.5" y="730.0"/>
      <point x="154.5" y="542.5"/>
      <point x="154.5" y="299.5" type="curve" smooth="yes"/>
      <point x="154.5" y="72.5"/>
      <point x="318.5" y="-81.0"/>
      <point x="561.5" y="-81.0" type="curve" smooth="yes"/>
      <point x="675.0" y="-81.0"/>
      <point x="780.5" y="-48.0"/>
      <point x="878.5" y="19.0" type="curve"/>
      <point x="905.0" y="-17.0" type="line"/>
      <point x="784.0" y="-98.5"/>
      <point x="676.0" y="-134.0"/>
      <point x="547.0" y="-134.0" type="curve" smooth="yes"/>
      <point x="254.0" y="-134.0"/>
      <point x="46.0" y="46.5"/>
      <point x="46.0" y="300.5" type="curve" smooth="yes"/>
      <point x="46.0" y="569.5"/>
      <point x="278.5" y="780.0"/>
      <point x="576.0" y="780.0" type="curve" smooth="yes"/>
      <point x="822.0" y="780.0"/>
      <point x="988.0" y="635.5"/>
      <point x="988.0" y="422.0" type="curve" smooth="yes"/>
      <point x="988.0" y="238.0"/>
      <point x="866.0" y="77.0"/>
      <point x="726.0" y="77.0" type="curve" smooth="yes"/>
      <point x="657.5" y="77.0"/>
      <point x="621.0" y="117.0"/>
      <point x="615.0" y="192.0" type="curve"/>
      <point x="611.0" y="192.0" type="line"/>
      <point x="568.5" y="121.0"/>
      <point x="503.0" y="77.0"/>
      <point x="440.0" y="77.0" type="curve" smooth="yes"/>
      <point x="351.0" y="77.0"/>
      <point x="281.5" y="155.0"/>
      <point x="281.5" y="255.5" type="curve" smooth="yes"/>
      <point x="281.5" y="398.0"/>
      <point x="420.0" y="540.0"/>
      <point x="559.0" y="540.0" type="curve" smooth="yes"/>
      <point x="622.5" y="540.0"/>
      <point x="657.0" y="511.0"/>
      <point x="676.5" y="442.0" type="curve"/>
      <point x="680.5" y="441.5" type="line"/>
    </contour>
    <contour>
      <point x="569.0" y="493.0" type="curve" smooth="yes"/>
      <point x="481.5" y="493.0"/>
      <point x="397.0" y="364.5"/>
      <point x="397.0" y="231.5" type="curve" smooth="yes"/>
      <point x="397.0" y="163.0"/>
      <point x="419.0" y="127.0"/>
      <point x="460.5" y="127.0" type="curve" smooth="yes"/>
      <point x="543.5" y="127.0"/>
      <point x="642.5" y="271.5"/>
      <point x="642.5" y="393.5" type="curve" smooth="yes"/>
      <point x="642.5" y="456.5"/>
      <point x="616.0" y="493.0"/>
    </contour>
  </outline>
</glyph>
<glyph name="A" format="2">
  <advance width="790.5"/>
  <unicode hex="0041"/>
  <anchor x="391.0" y="830.0" name="topcap"/>
  <anchor x="652.0" y="0.0" name="bottom"/>
  <outline>
    <contour>
      <point x="526.5" y="172.0" type="line" smooth="yes"/>
      <point x="543.5" y="128.0"/>
      <point x="551.0" y="105.0"/>
      <point x="551.0" y="82.5" type="curve" smooth="yes"/>
      <point x="551.0" y="51.0"/>
      <point x="527.0" y="41.5"/>
      <point x="459.5" y="40.0" type="curve"/>
      <point x="459.5" y="0.0" type="line"/>
      <point x="811.5" y="0.0" type="line"/>
      <point x="811.5" y="40.0" type="line"/>
      <point x="732.0" y="44.5"/>
      <point x="713.5" y="58.5"/>
      <point x="655.5" y="201.0" type="curve" smooth="yes"/>
      <point x="422.5" y="775.0" type="line"/>
      <point x="364.0" y="775.0" type="line"/>
      <point x="102.5" y="120.0" type="line" smooth="yes"/>
      <point x="79.5" y="63.0"/>
      <point x="53.0" y="46.0"/>
      <point x="-9.5" y="39.0" type="curve"/>
      <point x="-9.5" y="0.0" type="line"/>
      <point x="249.0" y="0.0" type="line"/>
      <point x="249.0" y="39.0" type="line"/>
      <point x="191.5" y="39.0"/>
      <point x="165.0" y="48.0"/>
      <point x="165.0" y="86.5" type="curve" smooth="yes"/>
      <point x="165.0" y="114.0"/>
      <point x="180.5" y="165.0"/>
      <point x="219.5" y="256.0" type="curve"/>
      <point x="494.5" y="256.0" type="line"/>
    </contour>
    <contour>
      <point x="360.0" y="612.5" type="line"/>
      <point x="474.0" y="311.0" type="line"/>
      <point x="241.0" y="311.0" type="line"/>
    </contour>
  </outline>
</glyph>
<glyph name="B" format="2">
  <advance width="782.0"/>
  <unicode hex="0042"/>
  <outline>
    <contour>
      <point x="35.5" y="0.0" type="line"/>
      <point x="35.5" y="39.0" type="line"/>
      <point x="132.0" y="42.0"/>
      <point x="148.5" y="59.0"/>
      <point x="148.5" y="153.0" type="curve" smooth="yes"/>
      <point x="148.5" y="617.0" type="line" smooth="yes"/>
      <point x="148.5" y="710.0"/>
      <point x="135.0" y="727.0"/>
      <point x="56.0" y="731.0" type="curve"/>
      <point x="56.0" y="770.0" type="line"/>
      <point x="366.0" y="770.0" type="line" smooth="yes"/>
      <point x="555.5" y="770.0"/>
      <point x="665.5" y="702.0"/>
      <point x="665.5" y="585.0" type="curve" smooth="yes"/>
      <point x="665.5" y="501.5"/>
      <point x="610.5" y="447.0"/>
      <point x="493.5" y="412.5" type="curve"/>
      <point x="493.5" y="408.5" type="line"/>
      <point x="569.0" y="404.0"/>
      <point x="615.5" y="389.0"/>
      <point x="656.5" y="358.5" type="curve" smooth="yes"/>
      <point x="709.0" y="319.5"/>
      <point x="737.5" y="264.5"/>
      <point x="737.5" y="201.5" type="curve" smooth="yes"/>
      <point x="737.5" y="132.5"/>
      <point x="699.5" y="74.5"/>
      <point x="634.0" y="40.0" type="curve" smooth="yes"/>
      <point x="582.0" y="12.0"/>
      <point x="517.5" y="0.0"/>
      <point x="408.0" y="0.0" type="curve" smooth="yes"/>
    </contour>
    <contour>
      <point x="413.0" y="52.0" type="curve" smooth="yes"/>
      <point x="527.5" y="52.0"/>
      <point x="584.0" y="101.0"/>
      <point x="584.0" y="202.0" type="curve" smooth="yes"/>
      <point x="584.0" y="269.0"/>
      <point x="559.5" y="317.0"/>
      <point x="508.5" y="346.0" type="curve" smooth="yes"/>
      <point x="467.5" y="370.0"/>
      <point x="420.5" y="377.5"/>
      <point x="321.0" y="377.5" type="curve" smooth="yes"/>
      <point x="274.5" y="377.5" type="line"/>
      <point x="274.5" y="166.0" type="line" smooth="yes"/>
      <point x="274.5" y="84.5"/>
      <point x="314.0" y="52.0"/>
    </contour>
    <contour>
      <point x="332.0" y="432.5" type="line" smooth="yes"/>
      <point x="403.5" y="432.5"/>
      <point x="436.5" y="440.5"/>
      <point x="468.0" y="461.0" type="curve" smooth="yes"/>
      <point x="505.5" y="485.5"/>
      <point x="521.5" y="520.5"/>
      <point x="521.5" y="573.0" type="curve" smooth="yes"/>
      <point x="521.5" y="674.0"/>
      <point x="473.5" y="716.0"/>
      <point x="366.0" y="716.0" type="curve" smooth="yes"/>
      <point x="292.0" y="716.0" type="line" smooth="yes"/>
      <point x="281.0" y="716.0"/>
      <point x="274.5" y="709.0"/>
      <point x="274.5" y="699.0" type="curve" smooth="yes"/>
      <point x="274.5" y="432.5" type="line"/>
    </contour>
  </outline>
</glyph>
<glyph name="C" format="2">
  <advance width="812.5"/>
  <unicode hex="0043"/>
  <anchor x="453.5" y="830.0" name="topcap"/>
  <anchor x="437.0" y="0.0" name="bottom"/>
  <outline>
    <contour>
      <point x="679.5" y="708.0" type="line"/>
      <point x="597.5" y="759.0"/>
      <point x="531.5" y="780.0"/>
      <point x="451.0" y="780.0" type="curve" smooth="yes"/>
      <point x="215.5" y="780.0"/>
      <point x="53.5" y="614.0"/>
      <point x="53.5" y="372.0" type="curve" smooth="yes"/>
      <point x="53.5" y="139.0"/>
      <point x="205.0" y="-10.0"/>
      <point x="439.5" y="-10.0" type="curve" smooth="yes"/>
      <point x="541.0" y="-10.0"/>
      <point x="627.5" y="19.0"/>
      <point x="700.0" y="79.0" type="curve"/>
      <point x="718.5" y="0.0" type="line"/>
      <point x="759.5" y="0.0" type="line"/>
      <point x="759.5" y="260.0" type="line"/>
      <point x="717.0" y="260.0" type="line"/>
      <point x="680.5" y="121.5"/>
      <point x="593.0" y="50.0"/>
      <point x="463.5" y="50.0" type="curve" smooth="yes"/>
      <point x="297.5" y="50.0"/>
      <point x="207.5" y="168.0"/>
      <point x="207.5" y="378.0" type="curve" smooth="yes"/>
      <point x="207.5" y="591.5"/>
      <point x="300.5" y="721.5"/>
      <point x="460.0" y="721.5" type="curve" smooth="yes"/>
      <point x="576.0" y="721.5"/>
      <point x="664.0" y="647.5"/>
      <point x="692.5" y="528.5" type="curve"/>
      <point x="731.0" y="528.5" type="line"/>
      <point x="736.5" y="770.0" type="line"/>
      <point x="698.0" y="770.0" type="line"/>
    </contour>
  </outline>
</glyph>
<glyph name="D" format="2">
  <advance width="901.5"/>
  <unicode hex="0044"/>
  <anchor x="453.5" y="830.0" name="topcap"/>
  <anchor x="453.5" y="0.0" name="bottom"/>
  <outline>
    <contour>
      <point x="36.5" y="0.0" type="line"/>
      <point x="36.5" y="39.0" type="line"/>
      <point x="131.5" y="42.0"/>
      <point x="149.0" y="58.0"/>
      <point x="149.0" y="153.0" type="curve" smooth="yes"/>
      <point x="149.0" y="617.0" type="line" smooth="yes"/>
      <point x="149.0" y="710.0"/>
      <point x="135.5" y="727.0"/>
      <point x="54.5" y="731.0" type="curve"/>
      <point x="54.5" y="770.0" type="line"/>
      <point x="420.0" y="770.0" type="line" smooth="yes"/>
      <point x="668.5" y="770.0"/>
      <point x="849.0" y="602.0"/>
      <point x="849.0" y="372.0" type="curve" smooth="yes"/>
      <point x="849.0" y="153.0"/>
      <point x="681.0" y="0.0"/>
      <point x="440.5" y="0.0" type="curve" smooth="yes"/>
    </contour>
    <contour>
      <point x="292.0" y="715.0" type="line" smooth="yes"/>
      <point x="281.0" y="715.0"/>
      <point x="275.0" y="708.0"/>
      <point x="275.0" y="698.0" type="curve" smooth="yes"/>
      <point x="275.0" y="169.0" type="line" smooth="yes"/>
      <point x="275.0" y="92.0"/>
      <point x="322.5" y="55.0"/>
      <point x="423.0" y="55.0" type="curve" smooth="yes"/>
      <point x="600.5" y="55.0"/>
      <point x="700.5" y="165.0"/>
      <point x="700.5" y="370.0" type="curve" smooth="yes"/>
      <point x="700.5" y="587.0"/>
      <point x="593.0" y="715.0"/>
      <point x="418.0" y="715.0" type="curve" smooth="yes"/>
    </contour>
  </outline>
</glyph>
<glyph name="E" format="2">
  <advance width="745.0"/>
  <unicode hex="0045"/>
  <anchor x="391.5" y="830.0" name="topcap"/>
  <anchor x="391.5" y="0.0" name="bottom"/>
  <outline>
    <contour>
      <point x="273.5" y="695.0" type="line" smooth="yes"/>
      <point x="273.5" y="716.0"/>
      <point x="278.5" y="722.0"/>
      <point x="301.0" y="722.0" type="curve" smooth="yes"/>
      <point x="421.0" y="722.0" type="line" smooth="yes"/>
      <point x="560.0" y="722.0"/>
      <point x="608.0" y="693.0"/>
      <point x="624.5" y="584.0" type="curve"/>
      <point x="663.5" y="584.0" type="line"/>
      <point x="655.5" y="770.0" type="line"/>
      <point x="50.5" y="770.0" type="line"/>
      <point x="50.5" y="731.0" type="line"/>
      <point x="133.5" y="727.0"/>
      <point x="147.5" y="710.0"/>
      <point x="147.5" y="617.0" type="curve" smooth="yes"/>
      <point x="147.5" y="153.0" type="line" smooth="yes"/>
      <point x="147.5" y="59.0"/>
      <point x="131.5" y="42.0"/>
      <point x="40.0" y="39.0" type="curve"/>
      <point x="40.0" y="0.0" type="line"/>
      <point x="689.5" y="0.0" type="line"/>
      <point x="705.0" y="213.0" type="line"/>
      <point x="666.0" y="213.0" type="line"/>
      <point x="639.0" y="86.0"/>
      <point x="588.5" y="49.0"/>
      <point x="442.0" y="49.0" type="curve" smooth="yes"/>
      <point x="314.5" y="49.0"/>
      <point x="273.5" y="76.5"/>
      <point x="273.5" y="163.0" type="curve" smooth="yes"/>
      <point x="273.5" y="379.0" type="line"/>
      <point x="432.0" y="378.5"/>
      <point x="463.5" y="354.0"/>
      <point x="472.0" y="260.0" type="curve"/>
      <point x="508.0" y="260.0" type="line"/>
      <point x="508.0" y="543.0" type="line"/>
      <point x="472.0" y="543.0" type="line"/>
      <point x="466.0" y="448.5"/>
      <point x="431.0" y="424.5"/>
      <point x="273.5" y="424.5" type="curve"/>
    </contour>
  </outline>
</glyph>
<glyph name="F" format="2">
  <advance width="679.5"/>
  <unicode hex="0046"/>
  <outline>
    <contour>
      <point x="273.5" y="160.0" type="line" smooth="yes"/>
      <point x="273.5" y="58.0"/>
      <point x="292.0" y="42.0"/>
      <point x="416.0" y="39.0" type="curve"/>
      <point x="416.0" y="0.0" type="line"/>
      <point x="40.0" y="0.0" type="line"/>
      <point x="40.0" y="39.0" type="line"/>
      <point x="131.5" y="42.0"/>
      <point x="147.5" y="59.0"/>
      <point x="147.5" y="153.0" type="curve" smooth="yes"/>
      <point x="147.5" y="617.0" type="line" smooth="yes"/>
      <point x="147.5" y="710.0"/>
      <point x="133.5" y="727.0"/>
      <point x="50.5" y="731.0" type="curve"/>
      <point x="50.5" y="770.0" type="line"/>
      <point x="645.5" y="770.0" type="line"/>
      <point x="657.0" y="569.0" type="line"/>
      <point x="618.5" y="569.0" type="line"/>
      <point x="602.0" y="683.0"/>
      <point x="559.5" y="718.0"/>
      <point x="423.5" y="718.0" type="curve" smooth="yes"/>
      <point x="291.0" y="718.0" type="line" smooth="yes"/>
      <point x="280.0" y="718.0"/>
      <point x="273.5" y="711.5"/>
      <point x="273.5" y="701.0" type="curve" smooth="yes"/>
      <point x="273.5" y="405.5" type="line"/>
      <point x="419.0" y="405.5"/>
      <point x="462.5" y="428.5"/>
      <point x="472.0" y="533.0" type="curve"/>
      <point x="508.0" y="533.0" type="line"/>
      <point x="508.0" y="230.0" type="line"/>
      <point x="472.0" y="230.0" type="line"/>
      <point x="457.0" y="337.0"/>
      <point x="420.5" y="358.0"/>
      <point x="273.5" y="359.0" type="curve"/>
    </contour>
  </outline>
</glyph>
<glyph name="G" format="2">
  <advance width="873.0"/>
  <unicode hex="0047"/>
  <anchor x="451.5" y="830.0" name="topcap"/>
  <anchor x="436.0" y="0.0" name="bottom"/>
  <outline>
    <contour>
      <point x="433.0" y="-10.0" type="curve" smooth="yes"/>
      <point x="506.5" y="-10.0"/>
      <point x="570.5" y="6.5"/>
      <point x="619.0" y="34.5" type="curve" smooth="yes"/>
      <point x="693.5" y="78.0"/>
      <point x="713.0" y="83.0"/>
      <point x="767.5" y="83.0" type="curve"/>
      <point x="767.5" y="205.5" type="line" smooth="yes"/>
      <point x="767.5" y="277.5"/>
      <point x="787.0" y="299.5"/>
      <point x="852.0" y="299.5" type="curve"/>
      <point x="852.0" y="338.5" type="line"/>
      <point x="548.0" y="338.5" type="line"/>
      <point x="548.0" y="299.5" type="line"/>
      <point x="621.0" y="296.5"/>
      <point x="650.5" y="272.5"/>
      <point x="650.5" y="203.0" type="curve" smooth="yes"/>
      <point x="650.5" y="115.0"/>
      <point x="579.0" y="50.5"/>
      <point x="458.5" y="50.5" type="curve" smooth="yes"/>
      <point x="296.5" y="50.5"/>
      <point x="207.0" y="168.0"/>
      <point x="207.0" y="378.5" type="curve" smooth="yes"/>
      <point x="207.0" y="593.0"/>
      <point x="300.0" y="721.5"/>
      <point x="457.0" y="721.5" type="curve" smooth="yes"/>
      <point x="571.5" y="721.5"/>
      <point x="667.0" y="656.0"/>
      <point x="680.0" y="528.5" type="curve"/>
      <point x="729.0" y="528.5" type="line"/>
      <point x="735.5" y="770.0" type="line"/>
      <point x="700.0" y="770.0" type="line"/>
      <point x="680.0" y="708.0" type="line"/>
      <point x="595.5" y="759.0"/>
      <point x="528.0" y="780.0"/>
      <point x="446.5" y="780.0" type="curve" smooth="yes"/>
      <point x="213.5" y="780.0"/>
      <point x="53.5" y="614.0"/>
      <point x="53.5" y="371.5" type="curve" smooth="yes"/>
      <point x="53.5" y="138.0"/>
      <point x="200.0" y="-10.0"/>
    </contour>
  </outline>
</glyph>
<glyph name="H" format="2">
  <advance width="935.0"/>
  <unicode hex="0048"/>
  <anchor x="481.0" y="830.0" name="topcap"/>
  <anchor x="481.0" y="0.0" name="bottom"/>
  <outline>
    <contour>
      <point x="787.5" y="160.0" type="line" smooth="yes"/>
      <point x="787.5" y="58.0"/>
      <point x="802.5" y="42.0"/>
      <point x="894.5" y="39.0" type="curve"/>
      <point x="894.5" y="0.0" type="line"/>
      <point x="549.0" y="0.0" type="line"/>
      <point x="549.0" y="39.0" type="line"/>
      <point x="645.0" y="42.0"/>
      <point x="661.5" y="59.0"/>
      <point x="661.5" y="153.0" type="curve" smooth="yes"/>
      <point x="661.5" y="366.0" type="line"/>
      <point x="273.5" y="366.0" type="line"/>
      <point x="273.5" y="160.0" type="line" smooth="yes"/>
      <point x="273.5" y="58.0"/>
      <point x="289.0" y="42.0"/>
      <point x="385.0" y="39.0" type="curve"/>
      <point x="385.0" y="0.0" type="line"/>
      <point x="40.0" y="0.0" type="line"/>
      <point x="40.0" y="39.0" type="line"/>
      <point x="132.0" y="42.0"/>
      <point x="147.5" y="59.0"/>
      <point x="147.5" y="153.0" type="curve" smooth="yes"/>
      <point x="147.5" y="617.0" type="line" smooth="yes"/>
      <point x="147.5" y="710.0"/>
      <point x="134.0" y="727.0"/>
      <point x="50.5" y="731.0" type="curve"/>
      <point x="50.5" y="770.0" type="line"/>
      <point x="375.0" y="770.0" type="line"/>
      <point x="375.0" y="731.0" type="line"/>
      <point x="287.0" y="728.0"/>
      <point x="273.5" y="711.0"/>
      <point x="273.5" y="610.0" type="curve" smooth="yes"/>
      <point x="273.5" y="422.0" type="line"/>
      <point x="661.5" y="422.0" type="line"/>
      <point x="661.5" y="617.0" type="line" smooth="yes"/>
      <point x="661.5" y="710.0"/>
      <point x="647.0" y="727.0"/>
      <point x="559.0" y="731.0" type="curve"/>
      <point x="559.0" y="770.0" type="line"/>
      <point x="884.0" y="770.0" type="line"/>
      <point x="884.0" y="731.0" type="line"/>
      <point x="800.5" y="728.0"/>
      <point x="787.5" y="711.0"/>
      <point x="787.5" y="610.0" type="curve" smooth="yes"/>
    </contour>
  </outline>
</glyph>
<glyph name="I" format="2">
  <advance width="422.0"/>
  <unicode hex="0049"/>
  <anchor x="210.5" y="830.0" name="topcap"/>
  <anchor x="210.5" y="0.0" name="bottom"/>
  <outline>
    <contour>
      <point x="274.0" y="583.5" type="line"/>
      <point x="274.0" y="700.5"/>
      <point x="287.0" y="727.5"/>
      <point x="371.0" y="731.0" type="curve"/>
      <point x="371.0" y="770.0" type="line"/>
      <point x="50.5" y="770.0" type="line"/>
      <point x="50.5" y="731.0" type="line"/>
      <point x="134.5" y="727.0"/>
      <point x="148.0" y="700.0"/>
      <point x="148.0" y="587.0" type="curve" smooth="yes"/>
      <point x="148.0" y="183.0" type="line" smooth="yes"/>
      <point x="148.0" y="59.0"/>
      <point x="132.5" y="42.0"/>
      <point x="40.5" y="39.0" type="curve"/>
      <point x="40.5" y="0.0" type="line"/>
      <point x="381.0" y="0.0" type="line"/>
      <point x="381.0" y="39.0" type="line"/>
      <point x="289.0" y="42.0"/>
      <point x="274.0" y="58.5"/>
      <point x="274.0" y="186.5" type="curve" smooth="yes"/>
    </contour>
  </outline>
</glyph>
<glyph name="J" format="2">
  <advance width="400.5"/>
  <unicode hex="004A"/>
  <anchor x="201.0" y="830.0" name="topcap"/>
  <outline>
    <contour>
      <point x="137.5" y="617.0" type="line" smooth="yes"/>
      <point x="137.5" y="710.0"/>
      <point x="124.0" y="727.0"/>
      <point x="40.0" y="731.0" type="curve"/>
      <point x="40.0" y="770.0" type="line"/>
      <point x="360.5" y="770.0" type="line"/>
      <point x="360.5" y="731.0" type="line"/>
      <point x="276.0" y="728.0"/>
      <point x="263.5" y="711.0"/>
      <point x="263.5" y="610.0" type="curve" smooth="yes"/>
      <point x="263.5" y="-2.0" type="line" smooth="yes"/>
      <point x="263.5" y="-169.0"/>
      <point x="183.5" y="-260.0"/>
      <point x="32.0" y="-260.0" type="curve" smooth="yes"/>
      <point x="-73.5" y="-260.0"/>
      <point x="-139.0" y="-217.5"/>
      <point x="-139.0" y="-156.5" type="curve" smooth="yes"/>
      <point x="-139.0" y="-120.5"/>
      <point x="-115.5" y="-100.0"/>
      <point x="-81.5" y="-100.0" type="curve" smooth="yes"/>
      <point x="-54.0" y="-100.0"/>
      <point x="-41.0" y="-111.5"/>
      <point x="-18.0" y="-152.0" type="curve" smooth="yes"/>
      <point x="6.5" y="-195.5"/>
      <point x="22.0" y="-207.0"/>
      <point x="50.5" y="-207.0" type="curve" smooth="yes"/>
      <point x="106.0" y="-207.0"/>
      <point x="137.5" y="-143.0"/>
      <point x="137.5" y="-33.0" type="curve" smooth="yes"/>
    </contour>
  </outline>
</glyph>
<glyph name="K" format="2">
  <advance width="800.5"/>
  <unicode hex="004B"/>
  <anchor x="425.0" y="0.0" name="bottom"/>
  <outline>
    <contour>
      <point x="273.5" y="160.0" type="line" smooth="yes"/>
      <point x="273.5" y="58.5"/>
      <point x="288.5" y="40.5"/>
      <point x="375.5" y="39.0" type="curve"/>
      <point x="375.5" y="0.0" type="line"/>
      <point x="40.0" y="0.0" type="line"/>
      <point x="40.0" y="39.0" type="line"/>
      <point x="131.0" y="40.5"/>
      <point x="147.5" y="59.0"/>
      <point x="147.5" y="153.0" type="curve" smooth="yes"/>
      <point x="147.5" y="617.0" type="line" smooth="yes"/>
      <point x="147.5" y="714.0"/>
      <point x="130.0" y="729.0"/>
      <point x="50.5" y="731.0" type="curve"/>
      <point x="50.5" y="770.0" type="line"/>
      <point x="375.0" y="770.0" type="line"/>
      <point x="375.0" y="731.0" type="line"/>
      <point x="290.0" y="729.5"/>
      <point x="273.5" y="713.5"/>
      <point x="273.5" y="610.0" type="curve" smooth="yes"/>
      <point x="273.5" y="375.5" type="line"/>
      <point x="528.0" y="665.0" type="line" smooth="yes"/>
      <point x="542.0" y="681.0"/>
      <point x="549.5" y="694.0"/>
      <point x="549.5" y="705.5" type="curve" smooth="yes"/>
      <point x="549.5" y="721.5"/>
      <point x="532.0" y="731.0"/>
      <point x="487.0" y="731.0" type="curve"/>
      <point x="487.0" y="770.0" type="line"/>
      <point x="744.0" y="770.0" type="line"/>
      <point x="744.0" y="732.0" type="line"/>
      <point x="688.0" y="731.0"/>
      <point x="666.5" y="721.0"/>
      <point x="598.5" y="647.0" type="curve" smooth="yes"/>
      <point x="415.5" y="445.5" type="line"/>
      <point x="708.5" y="91.0" type="line" smooth="yes"/>
      <point x="739.0" y="54.0"/>
      <point x="766.5" y="40.5"/>
      <point x="817.5" y="39.0" type="curve"/>
      <point x="817.5" y="0.0" type="line"/>
      <point x="479.0" y="0.0" type="line"/>
      <point x="479.0" y="39.0" type="line"/>
      <point x="532.0" y="39.5"/>
      <point x="554.0" y="47.5"/>
      <point x="554.0" y="66.0" type="curve" smooth="yes"/>
      <point x="554.0" y="78.0"/>
      <point x="546.5" y="92.5"/>
      <point x="519.0" y="126.0" type="curve" smooth="yes"/>
      <point x="333.0" y="355.0" type="line"/>
      <point x="273.5" y="289.0" type="line"/>
    </contour>
  </outline>
</glyph>
<glyph name="L" format="2">
  <advance width="741.0"/>
  <unicode hex="004C"/>
  <anchor x="216.0" y="830.0" name="topcap"/>
  <anchor x="395.5" y="0.0" name="bottom"/>
  <outline>
    <contour>
      <point x="707.5" y="0.0" type="line"/>
      <point x="40.0" y="0.0" type="line"/>
      <point x="40.0" y="39.0" type="line"/>
      <point x="131.5" y="42.0"/>
      <point x="147.5" y="59.0"/>
      <point x="147.5" y="153.0" type="curve" smooth="yes"/>
      <point x="147.5" y="617.0" type="line" smooth="yes"/>
      <point x="147.5" y="710.0"/>
      <point x="133.5" y="727.0"/>
      <point x="50.5" y="731.0" type="curve"/>
      <point x="50.5" y="770.0" type="line"/>
      <point x="375.0" y="770.0" type="line"/>
      <point x="375.0" y="731.0" type="line"/>
      <point x="287.0" y="728.0"/>
      <point x="273.5" y="711.0"/>
      <point x="273.5" y="610.0" type="curve" smooth="yes"/>
      <point x="273.5" y="185.0" type="line" smooth="yes"/>
      <point x="273.5" y="73.0"/>
      <point x="314.5" y="50.0"/>
      <point x="453.0" y="50.0" type="curve" smooth="yes"/>
      <point x="606.5" y="50.0"/>
      <point x="654.5" y="80.0"/>
      <point x="684.0" y="212.0" type="curve"/>
      <point x="723.0" y="212.0" type="line"/>
    </contour>
  </outline>
</glyph>
<glyph name="M" format="2">
  <advance width="1117.5"/>
  <unicode hex="004D"/>
  <outline>
    <contour>
      <point x="565.5" y="183.0" type="line"/>
      <point x="811.0" y="770.0" type="line"/>
      <point x="1069.0" y="770.0" type="line"/>
      <point x="1069.0" y="731.0" type="line"/>
      <point x="981.5" y="729.5"/>
      <point x="968.0" y="701.0"/>
      <point x="968.0" y="580.0" type="curve" smooth="yes"/>
      <point x="968.0" y="190.0" type="line" smooth="yes"/>
      <point x="968.0" y="58.0"/>
      <point x="983.0" y="42.0"/>
      <point x="1079.5" y="39.0" type="curve"/>
      <point x="1079.5" y="0.0" type="line"/>
      <point x="729.5" y="0.0" type="line"/>
      <point x="729.5" y="39.0" type="line"/>
      <point x="826.0" y="42.0"/>
      <point x="842.0" y="59.0"/>
      <point x="842.0" y="183.0" type="curve" smooth="yes"/>
      <point x="842.0" y="649.0" type="line"/>
      <point x="834.5" y="649.0" type="line"/>
      <point x="554.0" y="-10.0" type="line"/>
      <point x="506.0" y="-10.0" type="line"/>
      <point x="223.5" y="649.0" type="line"/>
      <point x="219.5" y="649.0" type="line"/>
      <point x="219.5" y="190.0" type="line" smooth="yes"/>
      <point x="219.5" y="58.0"/>
      <point x="234.5" y="42.0"/>
      <point x="331.0" y="39.0" type="curve"/>
      <point x="331.0" y="0.0" type="line"/>
      <point x="37.5" y="0.0" type="line"/>
      <point x="37.5" y="39.0" type="line"/>
      <point x="134.0" y="42.0"/>
      <point x="150.5" y="59.0"/>
      <point x="150.5" y="183.0" type="curve" smooth="yes"/>
      <point x="150.5" y="587.0" type="line" smooth="yes"/>
      <point x="150.5" y="700.0"/>
      <point x="136.0" y="729.0"/>
      <point x="48.0" y="731.0" type="curve"/>
      <point x="48.0" y="770.0" type="line"/>
      <point x="319.0" y="770.0" type="line"/>
      <point x="561.5" y="183.0" type="line"/>
    </contour>
  </outline>
</glyph>
<glyph name="N" format="2">
  <advance width="921.0"/>
  <unicode hex="004E"/>
  <anchor x="481.0" y="830.0" name="topcap"/>
  <anchor x="475.5" y="0.0" name="bottom"/>
  <outline>
    <contour>
      <point x="682.0" y="-10.0" type="line"/>
      <point x="223.0" y="618.5" type="line"/>
      <point x="219.0" y="618.5" type="line"/>
      <point x="219.0" y="190.0" type="line" smooth="yes"/>
      <point x="219.0" y="58.0"/>
      <point x="233.5" y="42.0"/>
      <point x="320.5" y="39.0" type="curve"/>
      <point x="320.5" y="0.0" type="line"/>
      <point x="37.5" y="0.0" type="line"/>
      <point x="37.5" y="39.0" type="line"/>
      <point x="133.5" y="42.0"/>
      <point x="150.0" y="59.0"/>
      <point x="150.0" y="183.0" type="curve" smooth="yes"/>
      <point x="150.0" y="587.0" type="line" smooth="yes"/>
      <point x="150.0" y="700.0"/>
      <point x="135.5" y="727.0"/>
      <point x="47.5" y="731.0" type="curve"/>
      <point x="47.5" y="770.0" type="line"/>
      <point x="286.0" y="770.0" type="line"/>
      <point x="706.0" y="189.5" type="line"/>
      <point x="710.0" y="189.5" type="line"/>
      <point x="710.0" y="580.0" type="line" smooth="yes"/>
      <point x="710.0" y="712.0"/>
      <point x="695.5" y="728.0"/>
      <point x="608.5" y="731.0" type="curve"/>
      <point x="608.5" y="770.0" type="line"/>
      <point x="891.5" y="770.0" type="line"/>
      <point x="891.5" y="731.0" type="line"/>
      <point x="795.5" y="728.0"/>
      <point x="779.0" y="711.0"/>
      <point x="779.0" y="587.0" type="curve" smooth="yes"/>
      <point x="779.0" y="-10.0" type="line"/>
    </contour>
  </outline>
</glyph>
<glyph name="O" format="2">
  <advance width="944.5"/>
  <unicode hex="004F"/>
  <anchor x="473.0" y="830.0" name="topcap"/>
  <anchor x="473.0" y="0.0" name="bottom"/>
  <outline>
    <contour>
      <point x="472.5" y="780.0" type="curve" smooth="yes"/>
      <point x="235.5" y="780.0"/>
      <point x="51.0" y="605.0"/>
      <point x="51.0" y="379.0" type="curve" smooth="yes"/>
      <point x="51.0" y="162.0"/>
      <point x="237.5" y="-10.0"/>
      <point x="472.5" y="-10.0" type="curve" smooth="yes"/>
      <point x="707.5" y="-10.0"/>
      <point x="894.0" y="162.0"/>
      <point x="894.0" y="379.0" type="curve" smooth="yes"/>
      <point x="894.0" y="605.0"/>
      <point x="709.5" y="780.0"/>
    </contour>
    <contour>
      <point x="472.5" y="50.0" type="curve" smooth="yes"/>
      <point x="306.5" y="50.0"/>
      <point x="203.0" y="176.0"/>
      <point x="203.0" y="376.0" type="curve" smooth="yes"/>
      <point x="203.0" y="587.0"/>
      <point x="306.5" y="720.0"/>
      <point x="472.5" y="720.0" type="curve" smooth="yes"/>
      <point x="638.5" y="720.0"/>
      <point x="742.0" y="587.0"/>
      <point x="742.0" y="376.0" type="curve" smooth="yes"/>
      <point x="742.0" y="176.0"/>
      <point x="637.5" y="50.0"/>
    </contour>
  </outline>
</glyph>
<glyph name="P" format="2">
  <advance width="702.0"/>
  <unicode hex="0050"/>
  <outline>
    <contour>
      <point x="679.0" y="566.5" type="curve" smooth="yes"/>
      <point x="679.0" y="697.0"/>
      <point x="573.0" y="770.0"/>
      <point x="380.5" y="770.0" type="curve" smooth="yes"/>
      <point x="50.5" y="770.0" type="line"/>
      <point x="50.5" y="731.0" type="line"/>
      <point x="134.0" y="727.0"/>
      <point x="147.5" y="710.0"/>
      <point x="147.5" y="617.0" type="curve" smooth="yes"/>
      <point x="147.5" y="153.0" type="line" smooth="yes"/>
      <point x="147.5" y="59.0"/>
      <point x="131.5" y="42.0"/>
      <point x="40.0" y="39.0" type="curve"/>
      <point x="40.0" y="0.0" type="line"/>
      <point x="415.0" y="0.0" type="line"/>
      <point x="415.0" y="39.0" type="line"/>
      <point x="292.5" y="39.0"/>
      <point x="273.5" y="57.5"/>
      <point x="273.5" y="158.0" type="curve" smooth="yes"/>
      <point x="273.5" y="342.5" type="line"/>
      <point x="361.0" y="342.5" type="line" smooth="yes"/>
      <point x="578.5" y="342.5"/>
      <point x="679.0" y="425.0"/>
    </contour>
    <contour>
      <point x="273.5" y="701.5" type="line" smooth="yes"/>
      <point x="273.5" y="711.5"/>
      <point x="280.0" y="718.5"/>
      <point x="291.0" y="718.5" type="curve" smooth="yes"/>
      <point x="375.5" y="718.5" type="line" smooth="yes"/>
      <point x="483.5" y="718.5"/>
      <point x="533.5" y="667.0"/>
      <point x="533.5" y="561.0" type="curve" smooth="yes"/>
      <point x="533.5" y="447.0"/>
      <point x="471.5" y="397.5"/>
      <point x="341.5" y="397.5" type="curve" smooth="yes"/>
      <point x="273.5" y="397.5" type="line"/>
    </contour>
  </outline>
</glyph>
<glyph name="Q" format="2">
  <advance width="948.5"/>
  <unicode hex="0051"/>
  <outline>
    <contour>
      <point x="472.5" y="780.0" type="curve" smooth="yes"/>
      <point x="235.0" y="780.0"/>
      <point x="52.0" y="605.5"/>
      <point x="52.0" y="376.5" type="curve" smooth="yes"/>
      <point x="52.0" y="160.5"/>
      <point x="216.5" y="-15.5"/>
      <point x="436.0" y="-28.0" type="curve"/>
      <point x="308.0" y="-100.5" type="line" smooth="yes"/>
      <point x="250.0" y="-133.5"/>
      <point x="238.5" y="-144.5"/>
      <point x="238.5" y="-165.0" type="curve" smooth="yes"/>
      <point x="238.5" y="-180.5"/>
      <point x="251.0" y="-191.5"/>
      <point x="271.5" y="-191.5" type="curve" smooth="yes"/>
      <point x="319.5" y="-191.5"/>
      <point x="330.5" y="-130.5"/>
      <point x="400.5" y="-130.5" type="curve" smooth="yes"/>
      <point x="503.0" y="-130.5"/>
      <point x="608.0" y="-260.0"/>
      <point x="756.0" y="-260.0" type="curve" smooth="yes"/>
      <point x="858.0" y="-260.0"/>
      <point x="936.0" y="-198.0"/>
      <point x="936.0" y="-114.5" type="curve" smooth="yes"/>
      <point x="936.0" y="-102.0"/>
      <point x="934.5" y="-86.5"/>
      <point x="932.0" y="-72.0" type="curve"/>
      <point x="901.0" y="-72.0" type="line"/>
      <point x="881.0" y="-131.0"/>
      <point x="850.0" y="-153.5"/>
      <point x="787.5" y="-153.5" type="curve" smooth="yes"/>
      <point x="677.0" y="-153.5"/>
      <point x="591.5" y="-86.0"/>
      <point x="475.0" y="-86.0" type="curve" smooth="yes"/>
      <point x="463.0" y="-86.0"/>
      <point x="446.5" y="-87.0"/>
      <point x="438.0" y="-88.0" type="curve"/>
      <point x="438.0" y="-84.0" type="line"/>
      <point x="464.5" y="-65.5"/>
      <point x="492.5" y="-52.0"/>
      <point x="540.0" y="-34.5" type="curve" smooth="yes"/>
      <point x="628.0" y="-3.0"/>
      <point x="681.0" y="20.0"/>
      <point x="730.5" y="58.0" type="curve" smooth="yes"/>
      <point x="833.5" y="134.0"/>
      <point x="897.0" y="247.0"/>
      <point x="897.0" y="378.0" type="curve" smooth="yes"/>
      <point x="897.0" y="604.0"/>
      <point x="710.5" y="780.0"/>
    </contour>
    <contour>
      <point x="472.5" y="25.0" type="curve" smooth="yes"/>
      <point x="307.0" y="25.0"/>
      <point x="204.0" y="160.0"/>
      <point x="204.0" y="375.5" type="curve" smooth="yes"/>
      <point x="204.0" y="588.0"/>
      <point x="306.5" y="720.0"/>
      <point x="472.5" y="720.0" type="curve" smooth="yes"/>
      <point x="639.5" y="720.0"/>
      <point x="745.0" y="586.5"/>
      <point x="745.0" y="375.5" type="curve" smooth="yes"/>
      <point x="745.0" y="162.0"/>
      <point x="638.5" y="25.0"/>
    </contour>
  </outline>
</glyph>
<glyph name="R" format="2">
  <advance width="801.5"/>
  <unicode hex="0052"/>
  <anchor x="387.0" y="830.0" name="topcap"/>
  <anchor x="425.0" y="0.0" name="bottom"/>
  <outline>
    <contour>
      <point x="676.5" y="577.0" type="curve" smooth="yes"/>
      <point x="676.5" y="698.0"/>
      <point x="568.0" y="770.0"/>
      <point x="380.5" y="770.0" type="curve" smooth="yes"/>
      <point x="50.5" y="770.0" type="line"/>
      <point x="50.5" y="731.0" type="line"/>
      <point x="134.5" y="727.0"/>
      <point x="147.5" y="710.0"/>
      <point x="147.5" y="617.0" type="curve" smooth="yes"/>
      <point x="147.5" y="153.0" type="line" smooth="yes"/>
      <point x="147.5" y="59.0"/>
      <point x="131.0" y="40.5"/>
      <point x="40.0" y="39.0" type="curve"/>
      <point x="40.0" y="0.0" type="line"/>
      <point x="415.0" y="0.0" type="line"/>
      <point x="415.0" y="39.0" type="line"/>
      <point x="291.0" y="39.0"/>
      <point x="273.5" y="59.0"/>
      <point x="273.5" y="158.0" type="curve" smooth="yes"/>
      <point x="273.5" y="360.0" type="line"/>
      <point x="315.0" y="360.0"/>
      <point x="337.0" y="352.0"/>
      <point x="371.0" y="309.0" type="curve" smooth="yes"/>
      <point x="617.5" y="0.0" type="line"/>
      <point x="832.5" y="0.0" type="line"/>
      <point x="832.5" y="39.0" type="line"/>
      <point x="780.5" y="43.5"/>
      <point x="736.0" y="61.5"/>
      <point x="702.0" y="102.0" type="curve" smooth="yes"/>
      <point x="475.5" y="368.0" type="line"/>
      <point x="615.5" y="392.5"/>
      <point x="676.5" y="468.5"/>
    </contour>
    <contour>
      <point x="273.5" y="701.5" type="line" smooth="yes"/>
      <point x="273.5" y="711.5"/>
      <point x="280.0" y="718.5"/>
      <point x="291.0" y="718.5" type="curve" smooth="yes"/>
      <point x="380.5" y="718.5" type="line" smooth="yes"/>
      <point x="481.0" y="718.5"/>
      <point x="533.5" y="668.0"/>
      <point x="533.5" y="572.0" type="curve" smooth="yes"/>
      <point x="533.5" y="461.0"/>
      <point x="470.0" y="415.0"/>
      <point x="341.5" y="415.0" type="curve" smooth="yes"/>
      <point x="273.5" y="415.0" type="line"/>
    </contour>
  </outline>
</glyph>
<glyph name="S" format="2">
  <advance width="654.0"/>
  <unicode hex="0053"/>
  <anchor x="318.0" y="830.0" name="topcap"/>
  <anchor x="320.0" y="0.0" name="bottom"/>
  <outline>
    <contour>
      <point x="71.0" y="5.5" type="line"/>
      <point x="94.5" y="5.5" type="line"/>
      <point x="118.5" y="60.0" type="line"/>
      <point x="183.0" y="10.5"/>
      <point x="242.0" y="-10.0"/>
      <point x="319.5" y="-10.0" type="curve" smooth="yes"/>
      <point x="487.5" y="-10.0"/>
      <point x="604.5" y="83.5"/>
      <point x="604.5" y="218.0" type="curve" smooth="yes"/>
      <point x="604.5" y="326.0"/>
      <point x="538.5" y="391.0"/>
      <point x="346.5" y="471.0" type="curve" smooth="yes"/>
      <point x="220.5" y="522.5"/>
      <point x="185.0" y="554.0"/>
      <point x="185.0" y="614.0" type="curve" smooth="yes"/>
      <point x="185.0" y="679.5"/>
      <point x="239.5" y="724.0"/>
      <point x="321.0" y="724.0" type="curve" smooth="yes"/>
      <point x="408.0" y="724.0"/>
      <point x="475.0" y="667.5"/>
      <point x="507.0" y="558.5" type="curve"/>
      <point x="545.0" y="558.5" type="line"/>
      <point x="534.0" y="766.0" type="line"/>
      <point x="510.5" y="766.0" type="line"/>
      <point x="488.5" y="718.5" type="line"/>
      <point x="433.5" y="760.5"/>
      <point x="379.5" y="780.0"/>
      <point x="316.5" y="780.0" type="curve" smooth="yes"/>
      <point x="178.0" y="780.0"/>
      <point x="81.0" y="692.5"/>
      <point x="81.0" y="568.0" type="curve" smooth="yes"/>
      <point x="81.0" y="463.0"/>
      <point x="143.5" y="396.0"/>
      <point x="304.0" y="330.0" type="curve" smooth="yes"/>
      <point x="449.0" y="271.5"/>
      <point x="485.5" y="238.5"/>
      <point x="485.5" y="173.0" type="curve" smooth="yes"/>
      <point x="485.5" y="96.5"/>
      <point x="421.0" y="46.0"/>
      <point x="322.0" y="46.0" type="curve" smooth="yes"/>
      <point x="202.0" y="46.0"/>
      <point x="112.5" y="121.5"/>
      <point x="94.0" y="245.0" type="curve"/>
      <point x="56.0" y="245.0" type="line"/>
    </contour>
  </outline>
</glyph>
<glyph name="T" format="2">
  <advance width="815.0"/>
  <unicode hex="0054"/>
  <anchor x="407.5" y="830.0" name="topcap"/>
  <anchor x="407.5" y="0.0" name="bottom"/>
  <outline>
    <contour>
      <point x="790.5" y="770.0" type="line"/>
      <point x="21.5" y="770.0" type="line"/>
      <point x="16.5" y="564.5" type="line"/>
      <point x="54.5" y="564.5" type="line"/>
      <point x="58.5" y="716.5"/>
      <point x="139.0" y="722.5"/>
      <point x="239.5" y="722.5" type="curve" smooth="yes"/>
      <point x="326.5" y="722.5"/>
      <point x="340.0" y="715.0"/>
      <point x="340.0" y="691.5" type="curve" smooth="yes"/>
      <point x="340.0" y="162.0" type="line" smooth="yes"/>
      <point x="340.0" y="76.0"/>
      <point x="322.5" y="43.0"/>
      <point x="206.5" y="39.0" type="curve"/>
      <point x="206.5" y="0.0" type="line"/>
      <point x="605.0" y="0.0" type="line"/>
      <point x="605.0" y="39.0" type="line"/>
      <point x="489.5" y="43.0"/>
      <point x="473.0" y="76.0"/>
      <point x="473.0" y="162.0" type="curve" smooth="yes"/>
      <point x="473.0" y="691.5" type="line" smooth="yes"/>
      <point x="473.0" y="715.0"/>
      <point x="487.5" y="722.5"/>
      <point x="589.0" y="722.5" type="curve" smooth="yes"/>
      <point x="700.5" y="722.5"/>
      <point x="750.0" y="688.5"/>
      <point x="758.5" y="564.5" type="curve"/>
      <point x="800.5" y="564.5" type="line"/>
    </contour>
  </outline>
</glyph>
<glyph name="U" format="2">
  <advance width="870.5"/>
  <unicode hex="0055"/>
  <anchor x="470.5" y="830.0" name="topcap"/>
  <anchor x="463.0" y="0.0" name="bottom"/>
  <outline>
    <contour>
      <point x="739.5" y="517.0" type="line" smooth="yes"/>
      <point x="739.5" y="627.5"/>
      <point x="745.5" y="678.5"/>
      <point x="765.5" y="705.0" type="curve" smooth="yes"/>
      <point x="781.0" y="725.5"/>
      <point x="806.5" y="731.0"/>
      <point x="852.0" y="731.0" type="curve"/>
      <point x="852.0" y="770.0" type="line"/>
      <point x="545.0" y="770.0" type="line"/>
      <point x="545.0" y="731.0" type="line"/>
      <point x="591.5" y="731.0"/>
      <point x="619.0" y="725.5"/>
      <point x="637.0" y="707.5" type="curve" smooth="yes"/>
      <point x="661.0" y="682.5"/>
      <point x="668.0" y="632.0"/>
      <point x="668.0" y="517.0" type="curve" smooth="yes"/>
      <point x="668.0" y="281.0" type="line" smooth="yes"/>
      <point x="668.0" y="133.0"/>
      <point x="600.5" y="57.0"/>
      <point x="465.0" y="57.0" type="curve" smooth="yes"/>
      <point x="323.5" y="57.0"/>
      <point x="265.0" y="131.5"/>
      <point x="265.0" y="275.0" type="curve" smooth="yes"/>
      <point x="265.0" y="542.0" type="line" smooth="yes"/>
      <point x="265.0" y="643.0"/>
      <point x="269.5" y="685.5"/>
      <point x="287.5" y="708.0" type="curve" smooth="yes"/>
      <point x="302.5" y="727.0"/>
      <point x="327.5" y="731.0"/>
      <point x="378.0" y="731.0" type="curve"/>
      <point x="378.0" y="770.0" type="line"/>
      <point x="28.0" y="770.0" type="line"/>
      <point x="28.0" y="731.0" type="line"/>
      <point x="74.0" y="731.0"/>
      <point x="96.5" y="725.5"/>
      <point x="110.5" y="708.0" type="curve" smooth="yes"/>
      <point x="129.0" y="685.0"/>
      <point x="131.5" y="643.0"/>
      <point x="131.5" y="542.0" type="curve" smooth="yes"/>
      <point x="131.5" y="273.0" type="line" smooth="yes"/>
      <point x="131.5" y="69.5"/>
      <point x="227.5" y="-10.0"/>
      <point x="433.5" y="-10.0" type="curve" smooth="yes"/>
      <point x="652.5" y="-10.0"/>
      <point x="739.5" y="91.5"/>
      <point x="739.5" y="310.0" type="curve" smooth="yes"/>
    </contour>
  </outline>
</glyph>
<glyph name="V" format="2">
  <advance width="794.5"/>
  <unicode hex="0056"/>
  <outline>
    <contour>
      <point x="262.0" y="606.5" type="line" smooth="yes"/>
      <point x="246.5" y="647.5"/>
      <point x="240.0" y="670.5"/>
      <point x="240.0" y="689.0" type="curve" smooth="yes"/>
      <point x="240.0" y="717.5"/>
      <point x="258.0" y="729.0"/>
      <point x="330.0" y="730.0" type="curve"/>
      <point x="330.0" y="770.0" type="line"/>
      <point x="-22.0" y="770.0" type="line"/>
      <point x="-22.0" y="730.0" type="line"/>
      <point x="52.0" y="728.0"/>
      <point x="81.0" y="697.0"/>
      <point x="124.0" y="593.5" type="curve" smooth="yes"/>
      <point x="372.5" y="-10.0" type="line"/>
      <point x="427.0" y="-10.0" type="line"/>
      <point x="694.0" y="650.0" type="line" smooth="yes"/>
      <point x="716.5" y="705.5"/>
      <point x="747.5" y="727.5"/>
      <point x="806.0" y="731.0" type="curve"/>
      <point x="806.0" y="770.0" type="line"/>
      <point x="542.5" y="770.0" type="line"/>
      <point x="542.5" y="731.0" type="line"/>
      <point x="608.0" y="731.0"/>
      <point x="626.5" y="721.0"/>
      <point x="626.5" y="687.0" type="curve" smooth="yes"/>
      <point x="626.5" y="661.5"/>
      <point x="619.5" y="636.0"/>
      <point x="584.0" y="546.0" type="curve" smooth="yes"/>
      <point x="431.0" y="162.5" type="line"/>
    </contour>
  </outline>
</glyph>
<glyph name="W" format="2">
  <advance width="1201.5"/>
  <unicode hex="0057"/>
  <anchor x="621.5" y="830.0" name="topcap"/>
  <outline>
    <contour>
      <point x="730.5" y="598.5" type="line" smooth="yes"/>
      <point x="718.5" y="638.0"/>
      <point x="711.5" y="664.5"/>
      <point x="711.5" y="684.5" type="curve" smooth="yes"/>
      <point x="711.5" y="719.5"/>
      <point x="732.0" y="730.0"/>
      <point x="798.0" y="730.0" type="curve"/>
      <point x="798.0" y="770.0" type="line"/>
      <point x="468.5" y="770.0" type="line"/>
      <point x="468.5" y="730.0" type="line"/>
      <point x="519.0" y="726.5"/>
      <point x="544.5" y="709.5"/>
      <point x="575.5" y="634.5" type="curve"/>
      <point x="408.5" y="174.0" type="line"/>
      <point x="262.5" y="607.0" type="line" smooth="yes"/>
      <point x="247.5" y="650.0"/>
      <point x="242.0" y="668.5"/>
      <point x="242.0" y="687.5" type="curve" smooth="yes"/>
      <point x="242.0" y="719.0"/>
      <point x="265.0" y="730.0"/>
      <point x="332.5" y="730.0" type="curve"/>
      <point x="332.5" y="770.0" type="line"/>
      <point x="-19.5" y="770.0" type="line"/>
      <point x="-19.5" y="730.0" type="line"/>
      <point x="59.5" y="730.0"/>
      <point x="87.0" y="702.0"/>
      <point x="135.5" y="569.0" type="curve" smooth="yes"/>
      <point x="345.5" y="-10.0" type="line"/>
      <point x="404.5" y="-10.0" type="line"/>
      <point x="610.0" y="538.5" type="line"/>
      <point x="793.0" y="-10.0" type="line"/>
      <point x="855.0" y="-10.0" type="line"/>
      <point x="1101.0" y="650.0" type="line" smooth="yes"/>
      <point x="1122.0" y="707.5"/>
      <point x="1157.5" y="731.0"/>
      <point x="1213.0" y="731.0" type="curve"/>
      <point x="1213.0" y="770.0" type="line"/>
      <point x="949.5" y="770.0" type="line"/>
      <point x="949.5" y="731.0" type="line"/>
      <point x="1007.0" y="731.0"/>
      <point x="1031.0" y="721.0"/>
      <point x="1031.0" y="683.5" type="curve" smooth="yes"/>
      <point x="1031.0" y="660.5"/>
      <point x="1023.5" y="631.0"/>
      <point x="1006.0" y="582.5" type="curve" smooth="yes"/>
      <point x="860.5" y="172.5" type="line"/>
    </contour>
  </outline>
</glyph>
<glyph name="X" format="2">
  <advance width="833.0"/>
  <unicode hex="0058"/>
  <outline>
    <contour>
      <point x="482.0" y="422.5" type="line"/>
      <point x="673.0" y="663.0" type="line" smooth="yes"/>
      <point x="719.5" y="722.0"/>
      <point x="742.5" y="731.0"/>
      <point x="802.5" y="731.0" type="curve"/>
      <point x="802.5" y="770.0" type="line"/>
      <point x="516.0" y="770.0" type="line"/>
      <point x="516.0" y="731.0" type="line"/>
      <point x="578.5" y="731.0"/>
      <point x="594.0" y="720.0"/>
      <point x="594.0" y="693.5" type="curve" smooth="yes"/>
      <point x="594.0" y="671.5"/>
      <point x="583.5" y="649.5"/>
      <point x="555.0" y="614.0" type="curve" smooth="yes"/>
      <point x="441.5" y="475.0" type="line"/>
      <point x="335.5" y="627.0" type="line" smooth="yes"/>
      <point x="316.0" y="654.5"/>
      <point x="306.5" y="676.5"/>
      <point x="306.5" y="693.5" type="curve" smooth="yes"/>
      <point x="306.5" y="719.0"/>
      <point x="327.0" y="731.0"/>
      <point x="373.0" y="731.0" type="curve"/>
      <point x="373.0" y="770.0" type="line"/>
      <point x="19.0" y="770.0" type="line"/>
      <point x="19.0" y="731.0" type="line"/>
      <point x="70.0" y="731.0"/>
      <point x="107.0" y="715.5"/>
      <point x="141.5" y="669.5" type="curve" smooth="yes"/>
      <point x="359.5" y="380.0" type="line"/>
      <point x="152.0" y="121.5" type="line" smooth="yes"/>
      <point x="99.0" y="56.0"/>
      <point x="68.5" y="39.0"/>
      <point x="0.0" y="39.0" type="curve"/>
      <point x="0.0" y="0.0" type="line"/>
      <point x="292.5" y="0.0" type="line"/>
      <point x="292.5" y="39.0" type="line"/>
      <point x="231.0" y="39.0"/>
      <point x="209.0" y="45.5"/>
      <point x="209.0" y="66.0" type="curve" smooth="yes"/>
      <point x="209.0" y="94.0"/>
      <point x="251.0" y="141.0"/>
      <point x="321.5" y="229.0" type="curve" smooth="yes"/>
      <point x="399.0" y="325.5" type="line"/>
      <point x="509.5" y="164.5" type="line" smooth="yes"/>
      <point x="553.0" y="101.0"/>
      <point x="561.5" y="85.5"/>
      <point x="561.5" y="68.0" type="curve" smooth="yes"/>
      <point x="561.5" y="50.0"/>
      <point x="547.0" y="39.0"/>
      <point x="483.5" y="39.0" type="curve"/>
      <point x="483.5" y="0.0" type="line"/>
      <point x="840.5" y="0.0" type="line"/>
      <point x="840.5" y="39.0" type="line"/>
      <point x="788.5" y="39.0"/>
      <point x="744.0" y="64.5"/>
      <point x="710.5" y="110.0" type="curve" smooth="yes"/>
    </contour>
  </outline>
</glyph>
<glyph name="Y" format="2">
  <advance width="746.5"/>
  <unicode hex="0059"/>
  <anchor x="399.5" y="830.0" name="topcap"/>
  <outline>
    <contour>
      <point x="107.5" y="645.0" type="line" smooth="yes"/>
      <point x="67.0" y="714.5"/>
      <point x="44.0" y="731.0"/>
      <point x="-9.5" y="731.0" type="curve"/>
      <point x="-9.5" y="770.0" type="line"/>
      <point x="316.0" y="770.0" type="line"/>
      <point x="316.0" y="731.0" type="line"/>
      <point x="255.0" y="731.0"/>
      <point x="232.5" y="721.0"/>
      <point x="232.5" y="698.0" type="curve" smooth="yes"/>
      <point x="232.5" y="685.0"/>
      <point x="240.0" y="666.5"/>
      <point x="256.5" y="637.0" type="curve" smooth="yes"/>
      <point x="405.5" y="368.0" type="line"/>
      <point x="409.5" y="368.0" type="line"/>
      <point x="529.0" y="568.0" type="line" smooth="yes"/>
      <point x="572.0" y="640.5"/>
      <point x="588.0" y="676.0"/>
      <point x="588.0" y="699.0" type="curve" smooth="yes"/>
      <point x="588.0" y="723.0"/>
      <point x="571.0" y="731.0"/>
      <point x="519.0" y="731.0" type="curve"/>
      <point x="519.0" y="770.0" type="line"/>
      <point x="759.0" y="770.0" type="line"/>
      <point x="759.0" y="731.0" type="line"/>
      <point x="702.0" y="731.0"/>
      <point x="674.0" y="703.0"/>
      <point x="587.0" y="555.5" type="curve" smooth="yes"/>
      <point x="437.0" y="300.5" type="line"/>
      <point x="437.0" y="190.0" type="line" smooth="yes"/>
      <point x="437.0" y="58.5"/>
      <point x="453.0" y="39.0"/>
      <point x="543.5" y="39.0" type="curve"/>
      <point x="543.5" y="0.0" type="line"/>
      <point x="203.5" y="0.0" type="line"/>
      <point x="203.5" y="39.0" type="line"/>
      <point x="292.5" y="39.0"/>
      <point x="311.0" y="59.0"/>
      <point x="311.0" y="183.0" type="curve" smooth="yes"/>
      <point x="311.0" y="290.0" type="line"/>
    </contour>
  </outline>
</glyph>
<glyph name="Z" format="2">
  <advance width="783.5"/>
  <unicode hex="005A"/>
  <anchor x="421.5" y="830.0" name="topcap"/>
  <anchor x="417.5" y="0.0" name="bottom"/>
  <outline>
    <contour>
      <point x="741.0" y="245.0" type="line"/>
      <point x="696.5" y="245.0" type="line"/>
      <point x="672.0" y="89.0"/>
      <point x="642.5" y="51.0"/>
      <point x="502.0" y="51.0" type="curve" smooth="yes"/>
      <point x="204.0" y="51.0" type="line"/>
      <point x="713.5" y="756.5" type="line"/>
      <point x="713.5" y="770.0" type="line"/>
      <point x="85.0" y="770.0" type="line"/>
      <point x="69.5" y="576.0" type="line"/>
      <point x="107.5" y="576.0" type="line"/>
      <point x="126.0" y="680.0"/>
      <point x="170.0" y="723.0"/>
      <point x="266.5" y="723.0" type="curve" smooth="yes"/>
      <point x="530.0" y="723.0" type="line"/>
      <point x="15.5" y="13.5" type="line"/>
      <point x="15.5" y="0.0" type="line"/>
      <point x="728.5" y="0.0" type="line"/>
    </contour>
  </outline>
</glyph>
<glyph name="bracketleft" format="2">
  <advance width="381.5"/>
  <unicode hex="005B"/>
  <outline>
    <contour>
      <point x="363.5" y="770.5" type="line"/>
      <point x="363.5" y="820.0" type="line"/>
      <point x="101.5" y="820.0" type="line"/>
      <point x="101.5" y="-150.0" type="line"/>
      <point x="363.5" y="-150.0" type="line"/>
      <point x="363.5" y="-100.5" type="line"/>
      <point x="208.5" y="-100.5" type="line"/>
      <point x="208.5" y="770.5" type="line"/>
    </contour>
  </outline>
</glyph>
<glyph name="backslash" format="2">
  <advance width="468.5"/>
  <unicode hex="005C"/>
  <outline>
    <contour>
      <point x="378.0" y="0.0" type="line"/>
      <point x="442.5" y="0.0" type="line"/>
      <point x="80.5" y="770.0" type="line"/>
      <point x="25.5" y="770.0" type="line"/>
    </contour>
  </outline>
</glyph>
<glyph name="bracketright" format="2">
  <advance width="381.5"/>
  <unicode hex="005D"/>
  <outline>
    <contour>
      <point x="18.0" y="-100.5" type="line"/>
      <point x="18.0" y="-150.0" type="line"/>
      <point x="280.0" y="-150.0" type="line"/>
      <point x="280.0" y="820.0" type="line"/>
      <point x="18.0" y="820.0" type="line"/>
      <point x="18.0" y="770.5" type="line"/>
      <point x="173.0" y="770.5" type="line"/>
      <point x="173.0" y="-100.5" type="line"/>
    </contour>
  </outline>
</glyph>
<glyph name="asciicircum" format="2">
  <advance width="486.0"/>
  <unicode hex="005E"/>
  <outline>
    <contour>
      <point x="197.0" y="409.5" type="line"/>
      <point x="70.0" y="230.0" type="line"/>
      <point x="121.0" y="230.0" type="line"/>
      <point x="243.0" y="338.5" type="line"/>
      <point x="365.0" y="230.0" type="line"/>
      <point x="416.0" y="230.0" type="line"/>
      <point x="289.0" y="409.5" type="line"/>
    </contour>
  </outline>
</glyph>
<glyph name="underscore" format="2">
  <advance width="726.0"/>
  <unicode hex="005F"/>
  <outline>
    <contour>
      <point x="655.0" y="-145.5" type="line"/>
      <point x="655.0" y="-72.5" type="line"/>
      <point x="71.0" y="-72.5" type="line"/>
      <point x="71.0" y="-145.5" type="line"/>
    </contour>
  </outline>
</glyph>
<glyph name="grave" format="2">
  <advance width="287.0"/>
  <unicode hex="0060"/>
  <anchor x="159.0" y="651.0" name="_top"/>
  <outline>
    <contour>
      <point x="269.0" y="651.0" type="line"/>
      <point x="140.5" y="770.0" type="line" smooth="yes"/>
      <point x="112.0" y="796.5"/>
      <point x="88.5" y="808.0"/>
      <point x="64.5" y="808.0" type="curve" smooth="yes"/>
      <point x="36.5" y="808.0"/>
      <point x="18.0" y="793.0"/>
      <point x="18.0" y="768.0" type="curve" smooth="yes"/>
      <point x="18.0" y="746.0"/>
      <point x="41.0" y="730.5"/>
      <point x="78.0" y="713.5" type="curve" smooth="yes"/>
      <point x="213.5" y="651.0" type="line"/>
    </contour>
  </outline>
</glyph>
<glyph name="a" format="2">
  <advance width="564.0"/>
  <unicode hex="0061"/>
  <anchor x="254.0" y="651.0" name="top"/>
  <anchor x="439.5" y="0.0" name="bottom"/>
  <outline>
    <contour>
      <point x="346.5" y="203.5" type="line" smooth="yes"/>
      <point x="346.5" y="128.5"/>
      <point x="294.5" y="67.5"/>
      <point x="227.5" y="67.5" type="curve" smooth="yes"/>
      <point x="187.5" y="67.5"/>
      <point x="159.5" y="95.0"/>
      <point x="159.5" y="136.5" type="curve" smooth="yes"/>
      <point x="159.5" y="189.5"/>
      <point x="214.5" y="236.0"/>
      <point x="346.5" y="290.5" type="curve"/>
    </contour>
    <contour>
      <point x="204.0" y="276.5" type="line" smooth="yes"/>
      <point x="83.0" y="226.0"/>
      <point x="38.5" y="175.0"/>
      <point x="38.5" y="114.0" type="curve" smooth="yes"/>
      <point x="38.5" y="40.5"/>
      <point x="92.5" y="-9.0"/>
      <point x="175.5" y="-9.0" type="curve" smooth="yes"/>
      <point x="251.5" y="-9.0"/>
      <point x="316.0" y="30.0"/>
      <point x="352.5" y="97.0" type="curve"/>
      <point x="357.5" y="97.0" type="line"/>
      <point x="357.5" y="29.0"/>
      <point x="388.5" y="-10.0"/>
      <point x="448.0" y="-10.0" type="curve" smooth="yes"/>
      <point x="496.0" y="-10.0"/>
      <point x="541.5" y="12.0"/>
      <point x="558.5" y="44.0" type="curve"/>
      <point x="544.0" y="70.5" type="line"/>
      <point x="532.5" y="56.0"/>
      <point x="517.5" y="53.0"/>
      <point x="502.0" y="53.0" type="curve" smooth="yes"/>
      <point x="475.5" y="53.0"/>
      <point x="462.5" y="85.5"/>
      <point x="462.5" y="152.5" type="curve" smooth="yes"/>
      <point x="462.5" y="374.0" type="line" smooth="yes"/>
      <point x="462.5" y="494.5"/>
      <point x="408.5" y="540.0"/>
      <point x="266.5" y="540.0" type="curve" smooth="yes"/>
      <point x="134.0" y="540.0"/>
      <point x="63.0" y="501.0"/>
      <point x="63.0" y="437.5" type="curve" smooth="yes"/>
      <point x="63.0" y="401.0"/>
      <point x="82.5" y="380.0"/>
      <point x="117.0" y="380.0" type="curve" smooth="yes"/>
      <point x="149.0" y="380.0"/>
      <point x="165.0" y="395.0"/>
      <point x="178.5" y="430.5" type="curve"/>
      <point x="195.5" y="480.5"/>
      <point x="210.5" y="496.5"/>
      <point x="252.5" y="496.5" type="curve" smooth="yes"/>
      <point x="316.5" y="496.5"/>
      <point x="346.5" y="460.0"/>
      <point x="346.5" y="380.0" type="curve" smooth="yes"/>
      <point x="346.5" y="338.5" type="line"/>
    </contour>
  </outline>
</glyph>
<glyph name="b" format="2">
  <advance width="664.0"/>
  <unicode hex="0062"/>
  <outline>
    <contour>
      <point x="207.0" y="290.0" type="line" smooth="yes"/>
      <point x="207.0" y="340.5"/>
      <point x="215.0" y="381.5"/>
      <point x="229.5" y="411.0" type="curve" smooth="yes"/>
      <point x="252.5" y="457.5"/>
      <point x="296.5" y="485.0"/>
      <point x="347.5" y="485.0" type="curve" smooth="yes"/>
      <point x="435.0" y="485.0"/>
      <point x="488.5" y="400.0"/>
      <point x="488.5" y="263.0" type="curve" smooth="yes"/>
      <point x="488.5" y="124.5"/>
      <point x="435.5" y="42.0"/>
      <point x="349.5" y="42.0" type="curve" smooth="yes"/>
      <point x="267.0" y="42.0"/>
      <point x="207.0" y="114.5"/>
      <point x="207.0" y="214.0" type="curve" smooth="yes"/>
    </contour>
    <contour>
      <point x="205.0" y="830.0" type="line"/>
      <point x="-1.0" y="790.0" type="line"/>
      <point x="-1.0" y="760.5" type="line"/>
      <point x="59.0" y="752.0"/>
      <point x="66.5" y="748.0"/>
      <point x="75.0" y="728.5" type="curve" smooth="yes"/>
      <point x="83.5" y="708.0"/>
      <point x="88.0" y="665.0"/>
      <point x="88.0" y="599.5" type="curve" smooth="yes"/>
      <point x="88.0" y="0.0" type="line"/>
      <point x="116.0" y="0.0" type="line"/>
      <point x="177.5" y="67.0" type="line"/>
      <point x="218.0" y="19.5"/>
      <point x="288.0" y="-11.0"/>
      <point x="362.0" y="-11.0" type="curve" smooth="yes"/>
      <point x="506.0" y="-11.0"/>
      <point x="621.0" y="107.5"/>
      <point x="621.0" y="265.5" type="curve" smooth="yes"/>
      <point x="621.0" y="419.5"/>
      <point x="511.5" y="540.0"/>
      <point x="369.0" y="540.0" type="curve" smooth="yes"/>
      <point x="301.0" y="540.0"/>
      <point x="247.5" y="513.0"/>
      <point x="209.0" y="460.0" type="curve"/>
      <point x="205.0" y="460.0" type="line"/>
    </contour>
  </outline>
</glyph>
<glyph name="c" format="2">
  <advance width="550.0"/>
  <unicode hex="0063"/>
  <anchor x="318.0" y="651.0" name="top"/>
  <anchor x="292.0" y="0.0" name="bottom"/>
  <outline>
    <contour>
      <point x="489.0" y="116.5" type="line"/>
      <point x="439.5" y="73.0"/>
      <point x="386.5" y="51.5"/>
      <point x="332.0" y="51.5" type="curve" smooth="yes"/>
      <point x="232.5" y="51.5"/>
      <point x="178.0" y="131.5"/>
      <point x="178.0" y="276.5" type="curve" smooth="yes"/>
      <point x="178.0" y="412.0"/>
      <point x="225.5" y="487.5"/>
      <point x="311.0" y="487.5" type="curve" smooth="yes"/>
      <point x="347.5" y="487.5"/>
      <point x="363.5" y="477.5"/>
      <point x="396.5" y="430.5" type="curve" smooth="yes"/>
      <point x="420.5" y="395.5"/>
      <point x="437.0" y="384.5"/>
      <point x="464.5" y="384.5" type="curve" smooth="yes"/>
      <point x="498.0" y="384.5"/>
      <point x="519.5" y="404.5"/>
      <point x="519.5" y="437.0" type="curve" smooth="yes"/>
      <point x="519.5" y="496.5"/>
      <point x="438.5" y="540.0"/>
      <point x="327.0" y="540.0" type="curve" smooth="yes"/>
      <point x="158.5" y="540.0"/>
      <point x="44.0" y="429.5"/>
      <point x="44.0" y="262.0" type="curve" smooth="yes"/>
      <point x="44.0" y="101.0"/>
      <point x="148.5" y="-7.5"/>
      <point x="300.5" y="-7.5" type="curve" smooth="yes"/>
      <point x="388.0" y="-7.5"/>
      <point x="468.0" y="26.0"/>
      <point x="517.0" y="83.0" type="curve"/>
    </contour>
  </outline>
</glyph>
<glyph name="d" format="2">
  <advance width="684.5"/>
  <unicode hex="0064"/>
  <anchor x="306.5" y="0.0" name="bottom"/>
  <outline>
    <contour>
      <point x="482.5" y="-10.0" type="line"/>
      <point x="660.5" y="1.0" type="line"/>
      <point x="660.5" y="37.5" type="line"/>
      <point x="601.0" y="37.5"/>
      <point x="590.0" y="45.0"/>
      <point x="583.0" y="78.5" type="curve" smooth="yes"/>
      <point x="577.5" y="105.0"/>
      <point x="576.0" y="160.0"/>
      <point x="576.0" y="255.5" type="curve" smooth="yes"/>
      <point x="576.0" y="830.0" type="line"/>
      <point x="347.0" y="791.0" type="line"/>
      <point x="347.0" y="759.0" type="line"/>
      <point x="416.5" y="759.0"/>
      <point x="446.5" y="747.5"/>
      <point x="453.0" y="719.0" type="curve" smooth="yes"/>
      <point x="457.0" y="701.5"/>
      <point x="459.0" y="643.5"/>
      <point x="459.0" y="567.0" type="curve" smooth="yes"/>
      <point x="459.0" y="471.0" type="line"/>
      <point x="417.0" y="518.0"/>
      <point x="369.0" y="540.0"/>
      <point x="300.0" y="540.0" type="curve" smooth="yes"/>
      <point x="153.0" y="540.0"/>
      <point x="43.5" y="422.0"/>
      <point x="43.5" y="263.5" type="curve" smooth="yes"/>
      <point x="43.5" y="103.5"/>
      <point x="151.5" y="-10.0"/>
      <point x="303.0" y="-10.0" type="curve" smooth="yes"/>
      <point x="375.5" y="-10.0"/>
      <point x="431.5" y="16.0"/>
      <point x="478.5" y="74.0" type="curve"/>
      <point x="482.5" y="74.0" type="line"/>
    </contour>
    <contour>
      <point x="457.0" y="243.5" type="line" smooth="yes"/>
      <point x="457.0" y="173.5"/>
      <point x="449.5" y="134.5"/>
      <point x="430.5" y="105.5" type="curve" smooth="yes"/>
      <point x="405.0" y="66.0"/>
      <point x="355.0" y="42.5"/>
      <point x="309.5" y="42.5" type="curve" smooth="yes"/>
      <point x="223.0" y="42.5"/>
      <point x="176.0" y="127.5"/>
      <point x="176.0" y="267.0" type="curve" smooth="yes"/>
      <point x="176.0" y="402.5"/>
      <point x="223.5" y="483.0"/>
      <point x="310.0" y="483.0" type="curve" smooth="yes"/>
      <point x="354.5" y="483.0"/>
      <point x="400.5" y="462.0"/>
      <point x="427.5" y="423.0" type="curve" smooth="yes"/>
      <point x="448.5" y="393.0"/>
      <point x="457.0" y="356.0"/>
      <point x="457.0" y="296.0" type="curve" smooth="yes"/>
    </contour>
  </outline>
</glyph>
<glyph name="e" format="2">
  <advance width="579.0"/>
  <unicode hex="0065"/>
  <anchor x="313.5" y="651.0" name="top"/>
  <anchor x="312.5" y="0.0" name="bottom"/>
  <outline>
    <contour>
      <point x="501.5" y="124.5" type="line"/>
      <point x="450.5" y="73.5"/>
      <point x="399.0" y="48.5"/>
      <point x="343.5" y="48.5" type="curve" smooth="yes"/>
      <point x="241.5" y="48.5"/>
      <point x="176.0" y="135.0"/>
      <point x="176.0" y="269.5" type="curve" smooth="yes"/>
      <point x="176.0" y="286.5"/>
      <point x="177.0" y="299.5"/>
      <point x="180.0" y="308.5" type="curve"/>
      <point x="505.5" y="308.5" type="line" smooth="yes"/>
      <point x="534.5" y="308.5"/>
      <point x="537.5" y="310.5"/>
      <point x="537.5" y="330.0" type="curve" smooth="yes"/>
      <point x="537.5" y="463.0"/>
      <point x="458.5" y="540.0"/>
      <point x="324.0" y="540.0" type="curve" smooth="yes"/>
      <point x="159.5" y="540.0"/>
      <point x="43.5" y="423.0"/>
      <point x="43.5" y="258.5" type="curve" smooth="yes"/>
      <point x="43.5" y="99.0"/>
      <point x="152.0" y="-10.0"/>
      <point x="312.0" y="-10.0" type="curve" smooth="yes"/>
      <point x="400.0" y="-10.0"/>
      <point x="471.0" y="23.0"/>
      <point x="531.0" y="93.0" type="curve"/>
    </contour>
    <contour>
      <point x="187.0" y="359.5" type="line"/>
      <point x="202.0" y="438.5"/>
      <point x="250.0" y="487.0"/>
      <point x="314.0" y="487.0" type="curve" smooth="yes"/>
      <point x="373.0" y="487.0"/>
      <point x="413.0" y="446.0"/>
      <point x="413.0" y="386.5" type="curve" smooth="yes"/>
      <point x="413.0" y="363.0"/>
      <point x="405.5" y="359.5"/>
      <point x="351.5" y="359.5" type="curve" smooth="yes"/>
    </contour>
  </outline>
</glyph>
<glyph name="f" format="2">
  <advance width="427.5"/>
  <unicode hex="0066"/>
  <outline>
    <contour>
      <point x="19.5" y="471.0" type="line"/>
      <point x="130.0" y="471.0" type="line"/>
      <point x="130.0" y="155.5" type="line" smooth="yes"/>
      <point x="130.0" y="54.5"/>
      <point x="120.0" y="41.5"/>
      <point x="42.0" y="37.5" type="curve"/>
      <point x="42.0" y="0.0" type="line"/>
      <point x="353.0" y="0.0" type="line"/>
      <point x="353.0" y="37.5" type="line"/>
      <point x="267.0" y="39.5"/>
      <point x="246.5" y="64.0"/>
      <point x="246.5" y="163.5" type="curve" smooth="yes"/>
      <point x="246.5" y="471.0" type="line"/>
      <point x="411.5" y="471.0" type="line"/>
      <point x="411.5" y="522.0" type="line"/>
      <point x="246.5" y="522.0" type="line"/>
      <point x="246.5" y="592.0" type="line" smooth="yes"/>
      <point x="246.5" y="652.5"/>
      <point x="252.5" y="693.0"/>
      <point x="265.5" y="721.5" type="curve" smooth="yes"/>
      <point x="281.5" y="758.0"/>
      <point x="307.0" y="778.0"/>
      <point x="340.5" y="778.0" type="curve" smooth="yes"/>
      <point x="362.5" y="778.0"/>
      <point x="378.0" y="771.5"/>
      <point x="402.5" y="748.0" type="curve" smooth="yes"/>
      <point x="435.0" y="714.5"/>
      <point x="449.0" y="703.5"/>
      <point x="469.0" y="703.5" type="curve" smooth="yes"/>
      <point x="498.5" y="703.5"/>
      <point x="521.0" y="725.0"/>
      <point x="521.0" y="753.5" type="curve" smooth="yes"/>
      <point x="521.0" y="798.0"/>
      <point x="459.0" y="830.0"/>
      <point x="373.0" y="830.0" type="curve" smooth="yes"/>
      <point x="223.0" y="830.0"/>
      <point x="130.0" y="735.0"/>
      <point x="130.0" y="586.0" type="curve" smooth="yes"/>
      <point x="130.0" y="522.0" type="line"/>
      <point x="19.5" y="522.0" type="line"/>
    </contour>
  </outline>
</glyph>
<glyph name="g" format="2">
  <advance width="604.5"/>
  <unicode hex="0067"/>
  <outline>
    <contour>
      <point x="275.0" y="222.5" type="curve" smooth="yes"/>
      <point x="224.0" y="222.5"/>
      <point x="190.0" y="277.5"/>
      <point x="190.0" y="361.0" type="curve" smooth="yes"/>
      <point x="190.0" y="443.5"/>
      <point x="223.0" y="495.5"/>
      <point x="274.0" y="495.5" type="curve" smooth="yes"/>
      <point x="324.5" y="495.5"/>
      <point x="353.5" y="445.5"/>
      <point x="353.5" y="359.5" type="curve" smooth="yes"/>
      <point x="353.5" y="273.5"/>
      <point x="324.5" y="222.5"/>
    </contour>
    <contour>
      <point x="223.5" y="103.0" type="curve" smooth="yes"/>
      <point x="185.5" y="106.0"/>
      <point x="165.5" y="115.0"/>
      <point x="165.5" y="133.5" type="curve" smooth="yes"/>
      <point x="165.5" y="158.0"/>
      <point x="190.5" y="166.5"/>
      <point x="262.5" y="173.0" type="curve" smooth="yes"/>
      <point x="408.0" y="186.5"/>
      <point x="474.5" y="257.5"/>
      <point x="474.5" y="363.5" type="curve" smooth="yes"/>
      <point x="474.5" y="400.0"/>
      <point x="468.5" y="426.5"/>
      <point x="453.5" y="451.0" type="curve"/>
      <point x="467.5" y="465.0"/>
      <point x="483.5" y="473.0"/>
      <point x="498.0" y="473.0" type="curve" smooth="yes"/>
      <point x="534.5" y="473.0"/>
      <point x="538.5" y="436.0"/>
      <point x="577.0" y="436.0" type="curve" smooth="yes"/>
      <point x="602.5" y="436.0"/>
      <point x="620.5" y="453.5"/>
      <point x="620.5" y="478.5" type="curve" smooth="yes"/>
      <point x="620.5" y="515.5"/>
      <point x="588.0" y="540.0"/>
      <point x="538.5" y="540.0" type="curve" smooth="yes"/>
      <point x="507.0" y="540.0"/>
      <point x="476.0" y="526.5"/>
      <point x="423.0" y="489.0" type="curve"/>
      <point x="385.0" y="521.0"/>
      <point x="328.5" y="540.0"/>
      <point x="271.0" y="540.0" type="curve" smooth="yes"/>
      <point x="155.5" y="540.0"/>
      <point x="70.0" y="465.0"/>
      <point x="70.0" y="364.5" type="curve" smooth="yes"/>
      <point x="70.0" y="296.0"/>
      <point x="113.5" y="230.0"/>
      <point x="173.0" y="206.0" type="curve"/>
      <point x="173.0" y="202.0" type="line"/>
      <point x="111.0" y="191.0"/>
      <point x="71.0" y="153.0"/>
      <point x="71.0" y="102.5" type="curve" smooth="yes"/>
      <point x="71.0" y="47.5"/>
      <point x="109.5" y="14.0"/>
      <point x="183.5" y="5.0" type="curve" smooth="yes"/>
      <point x="230.5" y="-1.0"/>
      <point x="300.0" y="-9.5"/>
      <point x="360.5" y="-18.0" type="curve" smooth="yes"/>
      <point x="413.0" y="-25.0"/>
      <point x="449.5" y="-62.0"/>
      <point x="449.5" y="-111.0" type="curve" smooth="yes"/>
      <point x="449.5" y="-177.5"/>
      <point x="395.5" y="-211.0"/>
      <point x="289.0" y="-211.0" type="curve" smooth="yes"/>
      <point x="190.5" y="-211.0"/>
      <point x="135.5" y="-179.0"/>
      <point x="135.5" y="-123.5" type="curve" smooth="yes"/>
      <point x="135.5" y="-87.0"/>
      <point x="160.0" y="-56.0"/>
      <point x="195.5" y="-48.5" type="curve"/>
      <point x="175.5" y="-28.5"/>
      <point x="148.0" y="-17.5"/>
      <point x="119.0" y="-17.5" type="curve" smooth="yes"/>
      <point x="67.5" y="-17.5"/>
      <point x="27.0" y="-57.5"/>
      <point x="27.0" y="-120.0" type="curve" smooth="yes"/>
      <point x="27.0" y="-206.0"/>
      <point x="126.0" y="-260.0"/>
      <point x="283.0" y="-260.0" type="curve" smooth="yes"/>
      <point x="456.5" y="-260.0"/>
      <point x="550.5" y="-199.5"/>
      <point x="550.5" y="-87.5" type="curve" smooth="yes"/>
      <point x="550.5" y="3.5"/>
      <point x="487.0" y="69.5"/>
      <point x="387.5" y="84.0" type="curve" smooth="yes"/>
      <point x="328.5" y="93.0"/>
      <point x="291.0" y="97.5"/>
    </contour>
  </outline>
</glyph>
<glyph name="h" format="2">
  <advance width="701.0"/>
  <unicode hex="0068"/>
  <anchor x="394.0" y="651.0" name="top"/>
  <anchor x="352.0" y="0.0" name="bottom"/>
  <outline>
    <contour>
      <point x="226.0" y="292.0" type="line" smooth="yes"/>
      <point x="226.0" y="350.5"/>
      <point x="234.0" y="383.0"/>
      <point x="252.5" y="412.5" type="curve" smooth="yes"/>
      <point x="278.5" y="455.0"/>
      <point x="321.5" y="479.5"/>
      <point x="373.0" y="479.5" type="curve" smooth="yes"/>
      <point x="451.5" y="479.5"/>
      <point x="480.5" y="425.0"/>
      <point x="480.5" y="279.0" type="curve" smooth="yes"/>
      <point x="480.5" y="154.5" type="line" smooth="yes"/>
      <point x="480.5" y="53.5"/>
      <point x="472.0" y="41.5"/>
      <point x="394.0" y="37.5" type="curve"/>
      <point x="394.0" y="0.0" type="line"/>
      <point x="683.0" y="0.0" type="line"/>
      <point x="683.0" y="37.5" type="line"/>
      <point x="605.5" y="42.5"/>
      <point x="599.5" y="51.5"/>
      <point x="599.5" y="161.5" type="curve" smooth="yes"/>
      <point x="599.5" y="319.0" type="line" smooth="yes"/>
      <point x="599.5" y="392.0"/>
      <point x="584.0" y="445.5"/>
      <point x="555.0" y="480.5" type="curve" smooth="yes"/>
      <point x="523.0" y="518.5"/>
      <point x="470.0" y="540.0"/>
      <point x="407.0" y="540.0" type="curve" smooth="yes"/>
      <point x="335.0" y="540.0"/>
      <point x="269.0" y="508.5"/>
      <point x="228.0" y="455.0" type="curve"/>
      <point x="224.0" y="455.0" type="line"/>
      <point x="224.0" y="830.0" type="line"/>
      <point x="20.5" y="792.0" type="line"/>
      <point x="20.5" y="756.5" type="line"/>
      <point x="80.5" y="756.5"/>
      <point x="94.0" y="749.5"/>
      <point x="100.5" y="716.5" type="curve" smooth="yes"/>
      <point x="105.5" y="692.5"/>
      <point x="107.5" y="648.0"/>
      <point x="107.5" y="569.5" type="curve" smooth="yes"/>
      <point x="107.5" y="154.5" type="line" smooth="yes"/>
      <point x="107.5" y="53.5"/>
      <point x="99.0" y="42.5"/>
      <point x="20.0" y="37.5" type="curve"/>
      <point x="20.0" y="0.0" type="line"/>
      <point x="310.5" y="0.0" type="line"/>
      <point x="310.5" y="37.5" type="line"/>
      <point x="232.5" y="42.5"/>
      <point x="226.0" y="52.0"/>
      <point x="226.0" y="161.5" type="curve" smooth="yes"/>
    </contour>
  </outline>
</glyph>
<glyph name="i" format="2">
  <advance width="351.0"/>
  <unicode hex="0069"/>
  <anchor x="183.5" y="0.0" name="bottom"/>
  <anchor x="180.0" y="651.0" name="top"/>
  <outline>
    <contour>
      <point x="242.5" y="540.0" type="line"/>
      <point x="28.5" y="502.0" type="line"/>
      <point x="28.5" y="467.5" type="line"/>
      <point x="92.0" y="467.5"/>
      <point x="110.5" y="459.0"/>
      <point x="117.0" y="427.0" type="curve" smooth="yes"/>
      <point x="121.5" y="409.0"/>
      <point x="124.0" y="357.0"/>
      <point x="124.0" y="280.0" type="curve" smooth="yes"/>
      <point x="124.0" y="154.5" type="line" smooth="yes"/>
      <point x="124.0" y="60.5"/>
      <point x="109.5" y="41.5"/>
      <point x="31.5" y="37.5" type="curve"/>
      <point x="31.5" y="0.0" type="line"/>
      <point x="332.5" y="0.0" type="line"/>
      <point x="332.5" y="37.5" type="line"/>
      <point x="254.5" y="40.5"/>
      <point x="242.5" y="57.0"/>
      <point x="242.5" y="161.5" type="curve" smooth="yes"/>
    </contour>
    <contour>
      <point x="111.5" y="747.5" type="curve" smooth="yes"/>
      <point x="111.5" y="708.5"/>
      <point x="142.0" y="678.0"/>
      <point x="181.0" y="678.0" type="curve" smooth="yes"/>
      <point x="220.5" y="678.0"/>
      <point x="251.0" y="708.5"/>
      <point x="251.0" y="747.5" type="curve" smooth="yes"/>
      <point x="251.0" y="787.0"/>
      <point x="220.5" y="817.5"/>
      <point x="181.0" y="817.5" type="curve" smooth="yes"/>
      <point x="142.0" y="817.5"/>
      <point x="111.5" y="787.0"/>
    </contour>
  </outline>
</glyph>
<glyph name="j" format="2">
  <advance width="317.5"/>
  <unicode hex="006A"/>
  <anchor x="167.5" y="651.0" name="top"/>
  <outline>
    <contour>
      <point x="229.5" y="540.0" type="line"/>
      <point x="15.5" y="502.0" type="line"/>
      <point x="15.5" y="467.5" type="line"/>
      <point x="79.5" y="467.5"/>
      <point x="97.0" y="458.5"/>
      <point x="103.5" y="427.5" type="curve" smooth="yes"/>
      <point x="108.0" y="410.0"/>
      <point x="111.0" y="360.0"/>
      <point x="111.0" y="285.0" type="curve" smooth="yes"/>
      <point x="111.0" y="-73.0" type="line" smooth="yes"/>
      <point x="111.0" y="-175.5"/>
      <point x="87.5" y="-212.0"/>
      <point x="31.0" y="-212.0" type="curve" smooth="yes"/>
      <point x="-4.0" y="-212.0"/>
      <point x="-16.5" y="-194.0"/>
      <point x="-34.0" y="-161.0" type="curve" smooth="yes"/>
      <point x="-51.0" y="-129.5"/>
      <point x="-62.5" y="-114.5"/>
      <point x="-92.5" y="-114.5" type="curve" smooth="yes"/>
      <point x="-122.5" y="-114.5"/>
      <point x="-145.0" y="-132.5"/>
      <point x="-145.0" y="-164.0" type="curve" smooth="yes"/>
      <point x="-145.0" y="-219.5"/>
      <point x="-84.0" y="-260.0"/>
      <point x="9.5" y="-260.0" type="curve" smooth="yes"/>
      <point x="151.0" y="-260.0"/>
      <point x="229.5" y="-168.0"/>
      <point x="229.5" y="-2.0" type="curve" smooth="yes"/>
    </contour>
    <contour>
      <point x="99.5" y="747.5" type="curve" smooth="yes"/>
      <point x="99.5" y="708.5"/>
      <point x="130.0" y="678.0"/>
      <point x="169.0" y="678.0" type="curve" smooth="yes"/>
      <point x="208.5" y="678.0"/>
      <point x="239.0" y="708.5"/>
      <point x="239.0" y="747.5" type="curve" smooth="yes"/>
      <point x="239.0" y="787.0"/>
      <point x="208.5" y="817.5"/>
      <point x="169.0" y="817.5" type="curve" smooth="yes"/>
      <point x="130.0" y="817.5"/>
      <point x="99.5" y="787.0"/>
    </contour>
  </outline>
</glyph>
<glyph name="k" format="2">
  <advance width="640.0"/>
  <unicode hex="006B"/>
  <anchor x="335.5" y="0.0" name="bottom"/>
  <outline>
    <contour>
      <point x="353.0" y="0.0" type="line"/>
      <point x="640.0" y="0.0" type="line"/>
      <point x="640.0" y="37.5" type="line"/>
      <point x="590.5" y="37.5"/>
      <point x="570.0" y="49.5"/>
      <point x="535.5" y="93.0" type="curve" smooth="yes"/>
      <point x="350.0" y="327.5" type="line"/>
      <point x="470.5" y="437.0" type="line" smooth="yes"/>
      <point x="518.0" y="480.0"/>
      <point x="544.0" y="492.5"/>
      <point x="594.5" y="492.5" type="curve"/>
      <point x="594.5" y="530.0" type="line"/>
      <point x="328.0" y="530.0" type="line"/>
      <point x="328.0" y="492.5" type="line"/>
      <point x="387.0" y="492.5"/>
      <point x="412.0" y="485.5"/>
      <point x="412.0" y="472.5" type="curve" smooth="yes"/>
      <point x="412.0" y="458.5"/>
      <point x="384.0" y="430.5"/>
      <point x="319.5" y="368.5" type="curve" smooth="yes"/>
      <point x="225.0" y="277.5" type="line"/>
      <point x="225.0" y="830.0" type="line"/>
      <point x="17.0" y="792.0" type="line"/>
      <point x="17.0" y="756.5" type="line"/>
      <point x="59.0" y="756.5"/>
      <point x="83.0" y="755.5"/>
      <point x="95.0" y="737.0" type="curve" smooth="yes"/>
      <point x="108.5" y="717.5"/>
      <point x="109.0" y="671.0"/>
      <point x="109.0" y="576.0" type="curve" smooth="yes"/>
      <point x="109.0" y="154.5" type="line" smooth="yes"/>
      <point x="109.0" y="59.5"/>
      <point x="93.5" y="40.0"/>
      <point x="16.5" y="37.5" type="curve"/>
      <point x="16.5" y="0.0" type="line"/>
      <point x="306.0" y="0.0" type="line"/>
      <point x="306.0" y="37.5" type="line"/>
      <point x="237.5" y="39.0"/>
      <point x="225.0" y="58.5"/>
      <point x="225.0" y="161.5" type="curve" smooth="yes"/>
      <point x="225.0" y="210.5" type="line"/>
      <point x="268.5" y="252.0" type="line"/>
      <point x="359.5" y="131.0" type="line" smooth="yes"/>
      <point x="389.5" y="91.0"/>
      <point x="410.5" y="58.5"/>
      <point x="411.0" y="49.5" type="curve" smooth="yes"/>
      <point x="411.0" y="41.0"/>
      <point x="396.5" y="37.5"/>
      <point x="353.0" y="37.5" type="curve"/>
    </contour>
  </outline>
</glyph>
<glyph name="l" format="2">
  <advance width="340.0"/>
  <unicode hex="006C"/>
  <anchor x="176.0" y="830.0" name="topcap"/>
  <anchor x="177.0" y="0.0" name="bottom"/>
  <outline>
    <contour>
      <point x="228.0" y="830.0" type="line"/>
      <point x="17.5" y="792.5" type="line"/>
      <point x="17.5" y="758.5" type="line"/>
      <point x="80.0" y="758.5"/>
      <point x="98.5" y="750.5"/>
      <point x="105.5" y="718.5" type="curve" smooth="yes"/>
      <point x="109.5" y="701.0"/>
      <point x="112.0" y="649.5"/>
      <point x="112.0" y="575.0" type="curve" smooth="yes"/>
      <point x="112.0" y="153.0" type="line" smooth="yes"/>
      <point x="112.0" y="60.0"/>
      <point x="97.5" y="41.5"/>
      <point x="20.5" y="37.5" type="curve"/>
      <point x="20.5" y="0.0" type="line"/>
      <point x="316.0" y="0.0" type="line"/>
      <point x="316.0" y="37.5" type="line"/>
      <point x="239.0" y="40.5"/>
      <point x="228.0" y="56.5"/>
      <point x="228.0" y="160.0" type="curve" smooth="yes"/>
    </contour>
  </outline>
</glyph>
<glyph name="m" format="2">
  <advance width="1089.5"/>
  <unicode hex="006D"/>
  <outline>
    <contour>
      <point x="239.5" y="292.0" type="line" smooth="yes"/>
      <point x="239.5" y="345.5"/>
      <point x="246.0" y="376.0"/>
      <point x="261.5" y="405.5" type="curve" smooth="yes"/>
      <point x="284.5" y="450.5"/>
      <point x="327.0" y="480.0"/>
      <point x="378.5" y="480.0" type="curve" smooth="yes"/>
      <point x="465.0" y="480.0"/>
      <point x="494.0" y="430.5"/>
      <point x="494.0" y="283.0" type="curve" smooth="yes"/>
      <point x="494.0" y="154.5" type="line" smooth="yes"/>
      <point x="494.0" y="53.5"/>
      <point x="485.5" y="42.5"/>
      <point x="407.5" y="37.5" type="curve"/>
      <point x="407.5" y="0.0" type="line"/>
      <point x="699.0" y="0.0" type="line"/>
      <point x="699.0" y="37.5" type="line"/>
      <point x="619.0" y="42.5"/>
      <point x="613.0" y="52.5"/>
      <point x="613.0" y="162.5" type="curve" smooth="yes"/>
      <point x="613.0" y="292.0" type="line" smooth="yes"/>
      <point x="613.0" y="346.0"/>
      <point x="619.0" y="375.5"/>
      <point x="634.5" y="404.5" type="curve" smooth="yes"/>
      <point x="659.0" y="449.5"/>
      <point x="701.0" y="480.0"/>
      <point x="753.5" y="480.0" type="curve" smooth="yes"/>
      <point x="838.0" y="480.0"/>
      <point x="868.0" y="429.0"/>
      <point x="868.0" y="283.0" type="curve" smooth="yes"/>
      <point x="868.0" y="154.5" type="line" smooth="yes"/>
      <point x="868.0" y="54.5"/>
      <point x="859.0" y="41.5"/>
      <point x="781.0" y="37.5" type="curve"/>
      <point x="781.0" y="0.0" type="line"/>
      <point x="1072.0" y="0.0" type="line"/>
      <point x="1072.0" y="37.5" type="line"/>
      <point x="994.5" y="42.5"/>
      <point x="987.0" y="52.5"/>
      <point x="987.0" y="162.5" type="curve" smooth="yes"/>
      <point x="987.0" y="319.0" type="line" smooth="yes"/>
      <point x="987.0" y="406.0"/>
      <point x="976.0" y="451.5"/>
      <point x="951.0" y="482.0" type="curve" smooth="yes"/>
      <point x="921.0" y="518.5"/>
      <point x="862.5" y="540.0"/>
      <point x="792.0" y="540.0" type="curve" smooth="yes"/>
      <point x="715.0" y="540.0"/>
      <point x="642.5" y="505.0"/>
      <point x="594.0" y="446.0" type="curve"/>
      <point x="590.0" y="446.0" type="line"/>
      <point x="564.5" y="506.0"/>
      <point x="506.0" y="540.0"/>
      <point x="420.0" y="540.0" type="curve" smooth="yes"/>
      <point x="343.0" y="540.0"/>
      <point x="284.5" y="511.5"/>
      <point x="226.5" y="446.5" type="curve"/>
      <point x="221.0" y="446.5" type="line"/>
      <point x="208.5" y="540.0" type="line"/>
      <point x="30.5" y="502.0" type="line"/>
      <point x="30.5" y="467.5" type="line"/>
      <point x="93.0" y="467.5"/>
      <point x="106.0" y="461.5"/>
      <point x="113.5" y="427.5" type="curve" smooth="yes"/>
      <point x="118.5" y="409.5"/>
      <point x="120.5" y="356.5"/>
      <point x="120.5" y="280.5" type="curve" smooth="yes"/>
      <point x="120.5" y="154.5" type="line" smooth="yes"/>
      <point x="120.5" y="53.5"/>
      <point x="111.0" y="42.5"/>
      <point x="32.5" y="37.5" type="curve"/>
      <point x="32.5" y="0.0" type="line"/>
      <point x="323.5" y="0.0" type="line"/>
      <point x="323.5" y="37.5" type="line"/>
      <point x="245.5" y="42.5"/>
      <point x="239.5" y="51.5"/>
      <point x="239.5" y="162.5" type="curve" smooth="yes"/>
    </contour>
  </outline>
</glyph>
<glyph name="n" format="2">
  <advance width="708.0"/>
  <unicode hex="006E"/>
  <anchor x="362.5" y="651.0" name="top"/>
  <anchor x="362.5" y="0.0" name="bottom"/>
  <outline>
    <contour>
      <point x="236.5" y="296.0" type="line" smooth="yes"/>
      <point x="236.5" y="348.0"/>
      <point x="243.5" y="377.0"/>
      <point x="256.5" y="402.5" type="curve" smooth="yes"/>
      <point x="281.5" y="451.0"/>
      <point x="323.5" y="480.5"/>
      <point x="374.5" y="480.5" type="curve" smooth="yes"/>
      <point x="459.5" y="480.5"/>
      <point x="489.5" y="430.5"/>
      <point x="489.5" y="287.0" type="curve" smooth="yes"/>
      <point x="489.5" y="153.0" type="line" smooth="yes"/>
      <point x="489.5" y="54.0"/>
      <point x="480.5" y="41.0"/>
      <point x="403.5" y="37.0" type="curve"/>
      <point x="403.5" y="0.0" type="line"/>
      <point x="689.5" y="0.0" type="line"/>
      <point x="689.5" y="37.0" type="line"/>
      <point x="614.5" y="42.0"/>
      <point x="606.5" y="52.0"/>
      <point x="606.5" y="160.0" type="curve" smooth="yes"/>
      <point x="606.5" y="314.0" type="line" smooth="yes"/>
      <point x="606.5" y="399.0"/>
      <point x="592.5" y="443.0"/>
      <point x="569.5" y="474.0" type="curve" smooth="yes"/>
      <point x="535.5" y="518.0"/>
      <point x="484.5" y="540.0"/>
      <point x="411.5" y="540.0" type="curve" smooth="yes"/>
      <point x="336.5" y="540.0"/>
      <point x="270.0" y="505.0"/>
      <point x="223.0" y="446.5" type="curve"/>
      <point x="219.0" y="446.5" type="line"/>
      <point x="206.5" y="540.0" type="line"/>
      <point x="30.0" y="502.0" type="line"/>
      <point x="30.0" y="469.0" type="line"/>
      <point x="89.5" y="469.0"/>
      <point x="105.0" y="462.5"/>
      <point x="113.0" y="427.0" type="curve" smooth="yes"/>
      <point x="117.0" y="410.0"/>
      <point x="119.5" y="360.0"/>
      <point x="119.5" y="282.0" type="curve" smooth="yes"/>
      <point x="119.5" y="153.0" type="line" smooth="yes"/>
      <point x="119.5" y="53.0"/>
      <point x="109.0" y="42.0"/>
      <point x="33.0" y="37.0" type="curve"/>
      <point x="33.0" y="0.0" type="line"/>
      <point x="321.5" y="0.0" type="line"/>
      <point x="321.5" y="37.0" type="line"/>
      <point x="243.0" y="42.0"/>
      <point x="236.5" y="52.0"/>
      <point x="236.5" y="160.0" type="curve" smooth="yes"/>
    </contour>
  </outline>
</glyph>
<glyph name="o" format="2">
  <advance width="657.0"/>
  <unicode hex="006F"/>
  <anchor x="327.0" y="651.0" name="top"/>
  <anchor x="327.0" y="0.0" name="bottom"/>
  <outline>
    <contour>
      <point x="326.5" y="540.0" type="curve" smooth="yes"/>
      <point x="172.5" y="540.0"/>
      <point x="42.5" y="427.0"/>
      <point x="42.5" y="269.0" type="curve" smooth="yes"/>
      <point x="42.5" y="106.0"/>
      <point x="172.5" y="-10.0"/>
      <point x="326.5" y="-10.0" type="curve" smooth="yes"/>
      <point x="482.0" y="-10.0"/>
      <point x="614.5" y="107.0"/>
      <point x="614.5" y="269.0" type="curve" smooth="yes"/>
      <point x="614.5" y="426.0"/>
      <point x="482.0" y="540.0"/>
    </contour>
    <contour>
      <point x="326.5" y="487.0" type="curve" smooth="yes"/>
      <point x="418.5" y="487.0"/>
      <point x="479.5" y="398.0"/>
      <point x="479.5" y="268.0" type="curve" smooth="yes"/>
      <point x="479.5" y="134.0"/>
      <point x="419.5" y="46.0"/>
      <point x="326.5" y="46.0" type="curve" smooth="yes"/>
      <point x="235.5" y="46.0"/>
      <point x="177.5" y="133.0"/>
      <point x="177.5" y="268.0" type="curve" smooth="yes"/>
      <point x="177.5" y="399.0"/>
      <point x="236.5" y="487.0"/>
    </contour>
  </outline>
</glyph>
<glyph name="p" format="2">
  <advance width="688.0"/>
  <unicode hex="0070"/>
  <outline>
    <contour>
      <point x="214.0" y="536.0" type="line"/>
      <point x="17.5" y="503.0" type="line"/>
      <point x="17.5" y="466.5" type="line"/>
      <point x="78.5" y="466.5"/>
      <point x="98.0" y="457.0"/>
      <point x="104.0" y="425.5" type="curve" smooth="yes"/>
      <point x="108.5" y="405.5"/>
      <point x="111.0" y="348.5"/>
      <point x="111.0" y="279.5" type="curve" smooth="yes"/>
      <point x="111.0" y="-93.5" type="line" smooth="yes"/>
      <point x="111.0" y="-189.5"/>
      <point x="95.5" y="-209.0"/>
      <point x="19.5" y="-211.5" type="curve"/>
      <point x="19.5" y="-250.0" type="line"/>
      <point x="346.0" y="-250.0" type="line"/>
      <point x="346.0" y="-211.5" type="line"/>
      <point x="244.5" y="-208.5"/>
      <point x="229.0" y="-192.5"/>
      <point x="229.0" y="-86.5" type="curve" smooth="yes"/>
      <point x="229.0" y="58.0" type="line"/>
      <point x="268.5" y="11.0"/>
      <point x="318.5" y="-10.0"/>
      <point x="382.0" y="-10.0" type="curve" smooth="yes"/>
      <point x="533.0" y="-10.0"/>
      <point x="644.5" y="103.5"/>
      <point x="644.5" y="264.5" type="curve" smooth="yes"/>
      <point x="644.5" y="424.5"/>
      <point x="534.5" y="540.0"/>
      <point x="381.5" y="540.0" type="curve" smooth="yes"/>
      <point x="313.5" y="540.0"/>
      <point x="261.0" y="512.0"/>
      <point x="218.0" y="461.5" type="curve"/>
      <point x="214.0" y="461.5" type="line"/>
    </contour>
    <contour>
      <point x="260.5" y="430.5" type="curve" smooth="yes"/>
      <point x="285.0" y="466.0"/>
      <point x="327.0" y="487.5"/>
      <point x="372.5" y="487.5" type="curve" smooth="yes"/>
      <point x="460.0" y="487.5"/>
      <point x="512.5" y="403.0"/>
      <point x="512.5" y="261.5" type="curve" smooth="yes"/>
      <point x="512.5" y="122.0"/>
      <point x="461.5" y="47.5"/>
      <point x="375.5" y="47.5" type="curve" smooth="yes"/>
      <point x="330.0" y="47.5"/>
      <point x="289.0" y="69.5"/>
      <point x="261.0" y="108.5" type="curve" smooth="yes"/>
      <point x="239.0" y="138.5"/>
      <point x="230.0" y="173.0"/>
      <point x="230.0" y="232.0" type="curve" smooth="yes"/>
      <point x="230.0" y="305.0" type="line" smooth="yes"/>
      <point x="230.0" y="360.5"/>
      <point x="241.0" y="402.0"/>
    </contour>
  </outline>
</glyph>
<glyph name="q" format="2">
  <advance width="663.5"/>
  <unicode hex="0071"/>
  <outline>
    <contour>
      <point x="456.5" y="240.5" type="line"/>
      <point x="456.5" y="191.0"/>
      <point x="448.5" y="149.5"/>
      <point x="434.0" y="119.5" type="curve" smooth="yes"/>
      <point x="411.5" y="73.5"/>
      <point x="367.0" y="46.5"/>
      <point x="316.0" y="46.5" type="curve" smooth="yes"/>
      <point x="228.0" y="46.5"/>
      <point x="175.5" y="128.5"/>
      <point x="175.5" y="267.0" type="curve" smooth="yes"/>
      <point x="175.5" y="403.5"/>
      <point x="228.5" y="486.5"/>
      <point x="315.5" y="486.5" type="curve" smooth="yes"/>
      <point x="396.0" y="486.5"/>
      <point x="456.5" y="414.0"/>
      <point x="456.5" y="315.5" type="curve"/>
    </contour>
    <contour>
      <point x="459.0" y="-94.5" type="line" smooth="yes"/>
      <point x="459.0" y="-185.5"/>
      <point x="435.0" y="-210.5"/>
      <point x="344.0" y="-212.5" type="curve"/>
      <point x="344.0" y="-250.0" type="line"/>
      <point x="675.5" y="-250.0" type="line"/>
      <point x="675.5" y="-212.5" type="line"/>
      <point x="583.5" y="-209.5"/>
      <point x="575.5" y="-198.5"/>
      <point x="575.5" y="-87.5" type="curve" smooth="yes"/>
      <point x="575.5" y="529.0" type="line"/>
      <point x="541.0" y="529.0" type="line"/>
      <point x="481.0" y="465.5" type="line"/>
      <point x="435.5" y="512.5"/>
      <point x="371.0" y="540.0"/>
      <point x="302.0" y="540.0" type="curve" smooth="yes"/>
      <point x="155.0" y="540.0"/>
      <point x="43.5" y="420.0"/>
      <point x="43.5" y="260.5" type="curve" smooth="yes"/>
      <point x="43.5" y="102.5"/>
      <point x="149.0" y="-10.0"/>
      <point x="296.5" y="-10.0" type="curve" smooth="yes"/>
      <point x="362.5" y="-10.0"/>
      <point x="408.0" y="12.5"/>
      <point x="454.5" y="67.0" type="curve"/>
      <point x="459.0" y="67.0" type="line"/>
    </contour>
  </outline>
</glyph>
<glyph name="r" format="2">
  <advance width="487.5"/>
  <unicode hex="0072"/>
  <anchor x="279.5" y="651.0" name="top"/>
  <anchor x="182.5" y="0.0" name="bottom"/>
  <outline>
    <contour>
      <point x="240.0" y="198.0" type="line" smooth="yes"/>
      <point x="240.0" y="249.0"/>
      <point x="246.5" y="301.0"/>
      <point x="257.5" y="340.0" type="curve" smooth="yes"/>
      <point x="274.5" y="403.0"/>
      <point x="307.0" y="447.0"/>
      <point x="337.5" y="447.0" type="curve" smooth="yes"/>
      <point x="363.5" y="447.0"/>
      <point x="379.0" y="414.5"/>
      <point x="420.5" y="414.5" type="curve" smooth="yes"/>
      <point x="460.0" y="414.5"/>
      <point x="484.0" y="440.5"/>
      <point x="484.0" y="478.0" type="curve" smooth="yes"/>
      <point x="484.0" y="515.0"/>
      <point x="453.5" y="540.0"/>
      <point x="406.5" y="540.0" type="curve" smooth="yes"/>
      <point x="340.0" y="540.0"/>
      <point x="273.5" y="490.0"/>
      <point x="237.5" y="415.0" type="curve"/>
      <point x="233.5" y="415.0" type="line"/>
      <point x="218.5" y="534.5" type="line"/>
      <point x="31.0" y="497.0" type="line"/>
      <point x="31.0" y="462.0" type="line"/>
      <point x="114.5" y="462.0"/>
      <point x="121.5" y="447.5"/>
      <point x="121.5" y="274.0" type="curve" smooth="yes"/>
      <point x="121.5" y="154.5" type="line" smooth="yes"/>
      <point x="121.5" y="53.5"/>
      <point x="113.0" y="42.0"/>
      <point x="34.0" y="37.5" type="curve"/>
      <point x="34.0" y="0.0" type="line"/>
      <point x="334.0" y="0.0" type="line"/>
      <point x="334.0" y="37.5" type="line"/>
      <point x="249.5" y="40.5"/>
      <point x="240.0" y="50.5"/>
      <point x="240.0" y="157.0" type="curve" smooth="yes"/>
    </contour>
  </outline>
</glyph>
<glyph name="s" format="2">
  <advance width="460.0"/>
  <unicode hex="0073"/>
  <anchor x="222.5" y="651.0" name="top"/>
  <anchor x="240.0" y="1.0" name="bottom"/>
  <outline>
    <contour>
      <point x="106.5" y="35.0" type="line"/>
      <point x="140.5" y="6.0"/>
      <point x="189.5" y="-10.0"/>
      <point x="244.0" y="-10.0" type="curve" smooth="yes"/>
      <point x="348.5" y="-10.0"/>
      <point x="418.5" y="49.5"/>
      <point x="418.5" y="142.5" type="curve" smooth="yes"/>
      <point x="418.5" y="216.5"/>
      <point x="374.5" y="259.0"/>
      <point x="263.0" y="324.0" type="curve" smooth="yes"/>
      <point x="191.5" y="365.0"/>
      <point x="161.0" y="391.0"/>
      <point x="161.0" y="431.5" type="curve" smooth="yes"/>
      <point x="161.0" y="469.5"/>
      <point x="188.0" y="493.0"/>
      <point x="229.0" y="493.0" type="curve" smooth="yes"/>
      <point x="277.5" y="493.0"/>
      <point x="308.5" y="461.5"/>
      <point x="338.5" y="383.0" type="curve"/>
      <point x="371.0" y="383.0" type="line"/>
      <point x="371.0" y="530.5" type="line"/>
      <point x="348.5" y="530.5" type="line"/>
      <point x="329.5" y="508.0" type="line"/>
      <point x="300.0" y="528.0"/>
      <point x="257.0" y="540.5"/>
      <point x="218.5" y="540.5" type="curve" smooth="yes"/>
      <point x="130.0" y="540.5"/>
      <point x="62.5" y="476.0"/>
      <point x="62.5" y="386.0" type="curve" smooth="yes"/>
      <point x="62.5" y="314.5"/>
      <point x="105.5" y="273.5"/>
      <point x="201.0" y="217.5" type="curve" smooth="yes"/>
      <point x="287.0" y="167.0"/>
      <point x="312.0" y="144.0"/>
      <point x="312.0" y="106.0" type="curve" smooth="yes"/>
      <point x="312.0" y="61.5"/>
      <point x="280.5" y="37.5"/>
      <point x="229.5" y="37.5" type="curve" smooth="yes"/>
      <point x="160.5" y="37.5"/>
      <point x="117.0" y="82.0"/>
      <point x="92.5" y="177.0" type="curve"/>
      <point x="59.0" y="177.0" type="line"/>
      <point x="59.0" y="0.0" type="line"/>
      <point x="85.5" y="0.0" type="line"/>
    </contour>
  </outline>
</glyph>
<glyph name="t" format="2">
  <advance width="380.0"/>
  <unicode hex="0074"/>
  <anchor x="245.5" y="0.0" name="bottom"/>
  <outline>
    <contour>
      <point x="99.0" y="471.0" type="line"/>
      <point x="99.0" y="112.0" type="line" smooth="yes"/>
      <point x="99.0" y="34.5"/>
      <point x="149.5" y="-10.0"/>
      <point x="239.5" y="-10.0" type="curve" smooth="yes"/>
      <point x="307.5" y="-10.0"/>
      <point x="354.0" y="16.0"/>
      <point x="372.5" y="63.5" type="curve"/>
      <point x="349.5" y="87.5" type="line"/>
      <point x="331.5" y="58.5"/>
      <point x="311.5" y="46.5"/>
      <point x="281.5" y="46.5" type="curve" smooth="yes"/>
      <point x="234.0" y="46.5"/>
      <point x="217.5" y="77.5"/>
      <point x="217.5" y="165.5" type="curve" smooth="yes"/>
      <point x="217.5" y="471.0" type="line"/>
      <point x="342.0" y="471.0" type="line"/>
      <point x="342.0" y="522.0" type="line"/>
      <point x="217.5" y="522.0" type="line"/>
      <point x="217.5" y="645.5" type="line"/>
      <point x="177.5" y="645.5" type="line"/>
      <point x="153.5" y="587.5"/>
      <point x="107.5" y="544.5"/>
      <point x="32.5" y="512.0" type="curve"/>
      <point x="32.5" y="471.0" type="line"/>
    </contour>
  </outline>
</glyph>
<glyph name="u" format="2">
  <advance width="689.5"/>
  <unicode hex="0075"/>
  <anchor x="316.5" y="651.0" name="top"/>
  <anchor x="294.0" y="0.0" name="bottom"/>
  <outline>
    <contour>
      <point x="464.0" y="267.0" type="line" smooth="yes"/>
      <point x="464.0" y="204.0"/>
      <point x="457.0" y="170.5"/>
      <point x="439.5" y="137.0" type="curve" smooth="yes"/>
      <point x="412.5" y="80.5"/>
      <point x="374.0" y="52.5"/>
      <point x="325.5" y="52.5" type="curve" smooth="yes"/>
      <point x="252.0" y="52.5"/>
      <point x="219.5" y="113.0"/>
      <point x="219.5" y="252.0" type="curve" smooth="yes"/>
      <point x="219.5" y="530.0" type="line"/>
      <point x="17.0" y="530.0" type="line"/>
      <point x="17.0" y="492.5" type="line"/>
      <point x="95.5" y="484.5"/>
      <point x="101.0" y="477.5"/>
      <point x="101.0" y="368.0" type="curve" smooth="yes"/>
      <point x="101.0" y="221.0" type="line" smooth="yes"/>
      <point x="101.0" y="143.5"/>
      <point x="113.0" y="91.5"/>
      <point x="138.5" y="57.5" type="curve" smooth="yes"/>
      <point x="170.5" y="14.5"/>
      <point x="227.5" y="-10.0"/>
      <point x="290.5" y="-10.0" type="curve" smooth="yes"/>
      <point x="365.0" y="-10.0"/>
      <point x="432.5" y="25.0"/>
      <point x="475.0" y="93.5" type="curve"/>
      <point x="479.0" y="93.5" type="line"/>
      <point x="490.0" y="-11.0" type="line"/>
      <point x="672.0" y="1.0" type="line"/>
      <point x="672.0" y="38.0" type="line"/>
      <point x="608.5" y="38.0"/>
      <point x="595.5" y="44.0"/>
      <point x="589.0" y="78.0" type="curve" smooth="yes"/>
      <point x="584.5" y="101.0"/>
      <point x="582.5" y="146.5"/>
      <point x="582.5" y="225.0" type="curve" smooth="yes"/>
      <point x="582.5" y="530.0" type="line"/>
      <point x="379.0" y="530.0" type="line"/>
      <point x="379.0" y="492.5" type="line"/>
      <point x="458.0" y="484.5"/>
      <point x="464.0" y="476.5"/>
      <point x="464.0" y="368.0" type="curve" smooth="yes"/>
    </contour>
  </outline>
</glyph>
<glyph name="v" format="2">
  <advance width="617.0"/>
  <unicode hex="0076"/>
  <outline>
    <contour>
      <point x="266.0" y="-10.5" type="line"/>
      <point x="340.5" y="-10.5" type="line"/>
      <point x="507.5" y="371.0" type="line" smooth="yes"/>
      <point x="520.5" y="400.5"/>
      <point x="539.0" y="447.5"/>
      <point x="555.0" y="468.0" type="curve" smooth="yes"/>
      <point x="569.5" y="484.5"/>
      <point x="586.5" y="492.5"/>
      <point x="608.0" y="492.5" type="curve"/>
      <point x="608.0" y="530.0" type="line"/>
      <point x="398.0" y="530.0" type="line"/>
      <point x="398.0" y="492.5" type="line"/>
      <point x="449.5" y="492.0"/>
      <point x="464.0" y="481.0"/>
      <point x="464.0" y="451.5" type="curve" smooth="yes"/>
      <point x="464.0" y="429.0"/>
      <point x="455.5" y="401.5"/>
      <point x="437.0" y="357.5" type="curve" smooth="yes"/>
      <point x="338.0" y="119.5" type="line"/>
      <point x="334.0" y="119.5" type="line"/>
      <point x="233.5" y="395.5" type="line" smooth="yes"/>
      <point x="225.5" y="417.0"/>
      <point x="218.0" y="439.0"/>
      <point x="218.0" y="458.5" type="curve" smooth="yes"/>
      <point x="218.0" y="485.5"/>
      <point x="228.0" y="491.5"/>
      <point x="288.0" y="492.5" type="curve"/>
      <point x="288.0" y="530.0" type="line"/>
      <point x="6.0" y="530.0" type="line"/>
      <point x="6.0" y="492.5" type="line"/>
      <point x="55.0" y="491.5"/>
      <point x="71.5" y="482.5"/>
      <point x="102.5" y="403.5" type="curve" smooth="yes"/>
    </contour>
  </outline>
</glyph>
<glyph name="w" format="2">
  <advance width="871.5"/>
  <unicode hex="0077"/>
  <anchor x="460.0" y="651.0" name="top"/>
  <outline>
    <contour>
      <point x="295.5" y="-10.0" type="line"/>
      <point x="239.5" y="-10.0" type="line"/>
      <point x="106.0" y="403.5" type="line" smooth="yes"/>
      <point x="84.0" y="472.5"/>
      <point x="62.0" y="491.0"/>
      <point x="10.0" y="492.5" type="curve"/>
      <point x="10.0" y="530.0" type="line"/>
      <point x="285.5" y="530.0" type="line"/>
      <point x="285.5" y="492.5" type="line"/>
      <point x="235.5" y="492.0"/>
      <point x="218.0" y="480.5"/>
      <point x="218.0" y="451.0" type="curve" smooth="yes"/>
      <point x="218.0" y="437.5"/>
      <point x="222.5" y="419.5"/>
      <point x="229.0" y="395.5" type="curve" smooth="yes"/>
      <point x="294.5" y="159.0" type="line"/>
      <point x="298.5" y="159.0" type="line"/>
      <point x="442.0" y="530.0" type="line"/>
      <point x="498.5" y="530.0" type="line"/>
      <point x="617.5" y="159.0" type="line"/>
      <point x="622.0" y="159.0" type="line"/>
      <point x="692.0" y="343.5" type="line" smooth="yes"/>
      <point x="715.0" y="404.5"/>
      <point x="721.5" y="430.0"/>
      <point x="721.5" y="450.5" type="curve" smooth="yes"/>
      <point x="721.5" y="482.5"/>
      <point x="702.5" y="492.5"/>
      <point x="656.5" y="492.5" type="curve"/>
      <point x="656.5" y="530.0" type="line"/>
      <point x="864.0" y="530.0" type="line"/>
      <point x="864.0" y="492.5" type="line"/>
      <point x="821.0" y="492.5"/>
      <point x="808.5" y="478.5"/>
      <point x="759.0" y="354.5" type="curve" smooth="yes"/>
      <point x="612.5" y="-10.0" type="line"/>
      <point x="554.5" y="-10.0" type="line"/>
      <point x="440.5" y="352.0" type="line"/>
      <point x="436.5" y="352.0" type="line"/>
    </contour>
  </outline>
</glyph>
<glyph name="x" format="2">
  <advance width="628.5"/>
  <unicode hex="0078"/>
  <outline>
    <contour>
      <point x="338.5" y="330.0" type="line"/>
      <point x="267.0" y="432.5" type="line" smooth="yes"/>
      <point x="257.5" y="446.0"/>
      <point x="252.0" y="457.5"/>
      <point x="252.0" y="466.5" type="curve" smooth="yes"/>
      <point x="252.0" y="483.0"/>
      <point x="268.5" y="492.5"/>
      <point x="303.0" y="492.5" type="curve"/>
      <point x="303.0" y="530.0" type="line"/>
      <point x="27.5" y="530.0" type="line"/>
      <point x="27.5" y="492.5" type="line"/>
      <point x="63.0" y="492.5"/>
      <point x="81.5" y="484.5"/>
      <point x="109.0" y="447.0" type="curve" smooth="yes"/>
      <point x="259.0" y="246.5" type="line"/>
      <point x="138.5" y="102.5" type="line" smooth="yes"/>
      <point x="97.5" y="52.5"/>
      <point x="61.5" y="37.5"/>
      <point x="9.5" y="37.5" type="curve"/>
      <point x="9.5" y="0.0" type="line"/>
      <point x="249.5" y="0.0" type="line"/>
      <point x="249.5" y="37.5" type="line"/>
      <point x="210.5" y="37.5"/>
      <point x="194.0" y="49.0"/>
      <point x="194.0" y="69.5" type="curve" smooth="yes"/>
      <point x="194.0" y="80.0"/>
      <point x="198.5" y="92.0"/>
      <point x="226.5" y="125.5" type="curve" smooth="yes"/>
      <point x="291.0" y="206.0" type="line"/>
      <point x="355.0" y="121.0" type="line" smooth="yes"/>
      <point x="377.5" y="91.0"/>
      <point x="387.5" y="75.0"/>
      <point x="387.5" y="63.0" type="curve" smooth="yes"/>
      <point x="387.5" y="43.5"/>
      <point x="373.0" y="37.5"/>
      <point x="329.5" y="37.5" type="curve"/>
      <point x="329.5" y="0.0" type="line"/>
      <point x="621.5" y="0.0" type="line"/>
      <point x="621.5" y="37.5" type="line"/>
      <point x="579.5" y="37.5"/>
      <point x="550.5" y="53.0"/>
      <point x="514.5" y="100.0" type="curve" smooth="yes"/>
      <point x="369.0" y="289.0" type="line"/>
      <point x="471.5" y="413.5" type="line" smooth="yes"/>
      <point x="523.5" y="477.0"/>
      <point x="549.5" y="491.5"/>
      <point x="598.5" y="492.5" type="curve"/>
      <point x="598.5" y="530.0" type="line"/>
      <point x="374.0" y="530.0" type="line"/>
      <point x="374.0" y="492.5" type="line"/>
      <point x="411.0" y="492.5"/>
      <point x="428.5" y="483.5"/>
      <point x="428.5" y="463.5" type="curve" smooth="yes"/>
      <point x="428.5" y="449.5"/>
      <point x="421.0" y="436.0"/>
      <point x="399.0" y="408.0" type="curve" smooth="yes"/>
    </contour>
  </outline>
</glyph>
<glyph name="y" format="2">
  <advance width="642.5"/>
  <unicode hex="0079"/>
  <anchor x="359.5" y="651.0" name="top"/>
  <outline>
    <contour>
      <point x="507.5" y="325.5" type="line" smooth="yes"/>
      <point x="575.0" y="474.0"/>
      <point x="590.0" y="492.5"/>
      <point x="641.0" y="492.5" type="curve"/>
      <point x="641.0" y="530.0" type="line"/>
      <point x="410.5" y="530.0" type="line"/>
      <point x="410.5" y="492.5" type="line"/>
      <point x="467.0" y="492.5"/>
      <point x="482.0" y="483.5"/>
      <point x="482.0" y="448.5" type="curve" smooth="yes"/>
      <point x="482.0" y="426.0"/>
      <point x="475.0" y="405.5"/>
      <point x="439.0" y="320.5" type="curve" smooth="yes"/>
      <point x="350.5" y="110.5" type="line"/>
      <point x="346.0" y="110.5" type="line"/>
      <point x="240.0" y="389.5" type="line" smooth="yes"/>
      <point x="229.5" y="416.5"/>
      <point x="221.5" y="445.0"/>
      <point x="221.5" y="458.5" type="curve" smooth="yes"/>
      <point x="221.5" y="483.0"/>
      <point x="241.0" y="492.5"/>
      <point x="290.0" y="492.5" type="curve"/>
      <point x="290.0" y="530.0" type="line"/>
      <point x="6.0" y="530.0" type="line"/>
      <point x="6.0" y="492.5" type="line"/>
      <point x="58.5" y="489.5"/>
      <point x="70.0" y="479.0"/>
      <point x="102.5" y="403.5" type="curve" smooth="yes"/>
      <point x="287.0" y="-24.0" type="line"/>
      <point x="256.0" y="-85.0" type="line" smooth="yes"/>
      <point x="235.0" y="-126.0"/>
      <point x="205.0" y="-144.0"/>
      <point x="147.0" y="-151.0" type="curve" smooth="yes"/>
      <point x="89.5" y="-158.0"/>
      <point x="69.0" y="-174.0"/>
      <point x="69.0" y="-207.0" type="curve" smooth="yes"/>
      <point x="69.0" y="-241.0"/>
      <point x="94.0" y="-260.0"/>
      <point x="137.0" y="-260.0" type="curve" smooth="yes"/>
      <point x="197.5" y="-260.0"/>
      <point x="255.0" y="-220.0"/>
      <point x="284.0" y="-157.0" type="curve" smooth="yes"/>
    </contour>
  </outline>
</glyph>
<glyph name="z" format="2">
  <advance width="562.5"/>
  <unicode hex="007A"/>
  <anchor x="293.5" y="651.0" name="top"/>
  <anchor x="289.5" y="0.0" name="bottom"/>
  <outline>
    <contour>
      <point x="523.5" y="162.5" type="line"/>
      <point x="487.5" y="162.5" type="line"/>
      <point x="463.0" y="67.5"/>
      <point x="431.0" y="50.0"/>
      <point x="292.5" y="50.0" type="curve" smooth="yes"/>
      <point x="190.0" y="50.0" type="line"/>
      <point x="514.5" y="516.5" type="line"/>
      <point x="514.5" y="530.0" type="line"/>
      <point x="74.0" y="530.0" type="line"/>
      <point x="60.0" y="383.0" type="line"/>
      <point x="95.5" y="383.0" type="line"/>
      <point x="110.5" y="468.0"/>
      <point x="136.0" y="482.5"/>
      <point x="250.0" y="482.5" type="curve" smooth="yes"/>
      <point x="351.5" y="482.5" type="line"/>
      <point x="22.0" y="13.5" type="line"/>
      <point x="22.0" y="0.0" type="line"/>
      <point x="509.0" y="0.0" type="line"/>
    </contour>
  </outline>
</glyph>
<glyph name="braceleft" format="2">
  <advance width="344.5"/>
  <unicode hex="007B"/>
  <outline>
    <contour>
      <point x="222.5" y="198.0" type="line" smooth="yes"/>
      <point x="222.5" y="278.0"/>
      <point x="203.0" y="326.0"/>
      <point x="112.0" y="340.0" type="curve"/>
      <point x="112.0" y="345.0" type="line"/>
      <point x="208.5" y="363.0"/>
      <point x="222.5" y="419.0"/>
      <point x="222.5" y="501.0" type="curve" smooth="yes"/>
      <point x="222.5" y="677.5" type="line" smooth="yes"/>
      <point x="222.5" y="747.0"/>
      <point x="243.0" y="786.5"/>
      <point x="306.5" y="802.0" type="curve"/>
      <point x="306.5" y="830.0" type="line"/>
      <point x="149.0" y="830.0"/>
      <point x="115.5" y="786.0"/>
      <point x="115.5" y="659.0" type="curve" smooth="yes"/>
      <point x="115.5" y="486.5" type="line" smooth="yes"/>
      <point x="115.5" y="410.5"/>
      <point x="101.0" y="372.5"/>
      <point x="24.0" y="357.5" type="curve"/>
      <point x="24.0" y="327.5" type="line"/>
      <point x="94.0" y="321.5"/>
      <point x="115.5" y="257.5"/>
      <point x="115.5" y="197.5" type="curve" smooth="yes"/>
      <point x="115.5" y="4.0" type="line" smooth="yes"/>
      <point x="115.5" y="-117.0"/>
      <point x="161.5" y="-150.0"/>
      <point x="311.0" y="-150.0" type="curve"/>
      <point x="311.0" y="-123.0" type="line"/>
      <point x="241.0" y="-104.5"/>
      <point x="222.5" y="-68.0"/>
      <point x="222.5" y="2.5" type="curve" smooth="yes"/>
    </contour>
  </outline>
</glyph>
<glyph name="bar" format="2">
  <advance width="292.5"/>
  <unicode hex="007C"/>
  <outline>
    <contour>
      <point x="99.5" y="820.0" type="line"/>
      <point x="99.5" y="-250.0" type="line"/>
      <point x="193.0" y="-250.0" type="line"/>
      <point x="193.0" y="820.0" type="line"/>
    </contour>
  </outline>
</glyph>
<glyph name="braceright" format="2">
  <advance width="344.5"/>
  <unicode hex="007D"/>
  <outline>
    <contour>
      <point x="122.0" y="2.5" type="line"/>
      <point x="122.0" y="-68.0"/>
      <point x="103.5" y="-104.5"/>
      <point x="33.5" y="-123.0" type="curve"/>
      <point x="33.5" y="-150.0" type="line"/>
      <point x="183.0" y="-150.0"/>
      <point x="229.0" y="-117.0"/>
      <point x="229.0" y="4.0" type="curve" smooth="yes"/>
      <point x="229.0" y="197.5" type="line" smooth="yes"/>
      <point x="229.0" y="257.5"/>
      <point x="250.5" y="321.5"/>
      <point x="320.5" y="327.5" type="curve"/>
      <point x="320.5" y="357.5" type="line"/>
      <point x="243.5" y="372.5"/>
      <point x="229.0" y="410.5"/>
      <point x="229.0" y="486.5" type="curve" smooth="yes"/>
      <point x="229.0" y="659.0" type="line" smooth="yes"/>
      <point x="229.0" y="786.0"/>
      <point x="195.5" y="830.0"/>
      <point x="38.0" y="830.0" type="curve"/>
      <point x="38.0" y="802.0" type="line"/>
      <point x="101.5" y="786.5"/>
      <point x="122.0" y="747.0"/>
      <point x="122.0" y="677.5" type="curve" smooth="yes"/>
      <point x="122.0" y="501.0" type="line" smooth="yes"/>
      <point x="122.0" y="419.0"/>
      <point x="136.0" y="363.0"/>
      <point x="232.5" y="345.0" type="curve"/>
      <point x="232.5" y="340.0" type="line"/>
      <point x="141.5" y="326.0"/>
      <point x="122.0" y="278.0"/>
      <point x="122.0" y="198.0" type="curve" smooth="yes"/>
    </contour>
  </outline>
</glyph>
<glyph name="asciitilde" format="2">
  <advance width="557.5"/>
  <unicode hex="007E"/>
  <outline>
    <contour>
      <point x="118.5" y="249.0" type="line"/>
      <point x="128.5" y="280.5"/>
      <point x="138.5" y="289.0"/>
      <point x="165.0" y="289.0" type="curve" smooth="yes"/>
      <point x="233.5" y="289.0"/>
      <point x="308.0" y="241.0"/>
      <point x="368.0" y="241.0" type="curve" smooth="yes"/>
      <point x="426.0" y="241.0"/>
      <point x="468.5" y="290.0"/>
      <point x="481.0" y="369.0" type="curve"/>
      <point x="442.0" y="369.0" type="line"/>
      <point x="432.0" y="337.5"/>
      <point x="419.5" y="327.0"/>
      <point x="393.0" y="327.0" type="curve" smooth="yes"/>
      <point x="332.5" y="327.0"/>
      <point x="252.5" y="373.0"/>
      <point x="195.0" y="373.0" type="curve" smooth="yes"/>
      <point x="136.0" y="373.0"/>
      <point x="91.0" y="325.0"/>
      <point x="78.5" y="249.0" type="curve"/>
    </contour>
  </outline>
</glyph>
<glyph name="exclamdown" format="2">
  <advance width="309.5"/>
  <unicode hex="00A1"/>
  <outline>
    <contour>
      <point x="84.0" y="710.0" type="curve" smooth="yes"/>
      <point x="84.0" y="670.5"/>
      <point x="115.5" y="639.0"/>
      <point x="154.5" y="639.0" type="curve" smooth="yes"/>
      <point x="194.5" y="639.0"/>
      <point x="225.5" y="670.5"/>
      <point x="225.5" y="710.0" type="curve" smooth="yes"/>
      <point x="225.5" y="749.5"/>
      <point x="194.5" y="780.0"/>
      <point x="154.5" y="780.0" type="curve" smooth="yes"/>
      <point x="115.0" y="780.0"/>
      <point x="84.0" y="749.0"/>
    </contour>
    <contour>
      <point x="128.0" y="563.0" type="line"/>
      <point x="128.0" y="395.0"/>
      <point x="118.5" y="320.0"/>
      <point x="105.0" y="242.0" type="curve" smooth="yes"/>
      <point x="91.5" y="163.5"/>
      <point x="83.5" y="129.0"/>
      <point x="83.5" y="68.0" type="curve" smooth="yes"/>
      <point x="83.5" y="20.0"/>
      <point x="109.0" y="-10.0"/>
      <point x="155.0" y="-10.0" type="curve" smooth="yes"/>
      <point x="201.0" y="-10.0"/>
      <point x="226.5" y="20.0"/>
      <point x="226.5" y="68.0" type="curve" smooth="yes"/>
      <point x="226.5" y="127.5"/>
      <point x="219.0" y="163.5"/>
      <point x="205.0" y="244.0" type="curve" smooth="yes"/>
      <point x="192.0" y="320.0"/>
      <point x="182.0" y="396.0"/>
      <point x="182.0" y="563.0" type="curve"/>
    </contour>
  </outline>
</glyph>
<glyph name="cent" format="2">
  <advance width="567.0"/>
  <unicode hex="00A2"/>
  <outline>
    <contour>
      <point x="286.5" y="683.0" type="line"/>
      <point x="286.5" y="537.0" type="line"/>
      <point x="142.5" y="519.0"/>
      <point x="48.5" y="415.0"/>
      <point x="48.5" y="261.0" type="curve" smooth="yes"/>
      <point x="48.5" y="102.0"/>
      <point x="145.5" y="-5.5"/>
      <point x="286.5" y="-10.0" type="curve"/>
      <point x="286.5" y="-147.0" type="line"/>
      <point x="343.5" y="-147.0" type="line"/>
      <point x="343.5" y="-6.5" type="line"/>
      <point x="415.5" y="3.0"/>
      <point x="481.0" y="35.5"/>
      <point x="521.5" y="83.0" type="curve"/>
      <point x="493.5" y="116.5" type="line"/>
      <point x="446.0" y="74.0"/>
      <point x="399.0" y="54.0"/>
      <point x="343.5" y="52.0" type="curve"/>
      <point x="343.5" y="483.5" type="line"/>
      <point x="365.5" y="476.5"/>
      <point x="381.5" y="460.0"/>
      <point x="401.0" y="431.0" type="curve"/>
      <point x="426.5" y="393.0"/>
      <point x="444.5" y="384.5"/>
      <point x="469.0" y="384.5" type="curve" smooth="yes"/>
      <point x="505.5" y="384.5"/>
      <point x="524.0" y="408.0"/>
      <point x="524.0" y="435.5" type="curve" smooth="yes"/>
      <point x="524.0" y="488.5"/>
      <point x="457.5" y="537.0"/>
      <point x="343.5" y="540.0" type="curve"/>
      <point x="343.5" y="683.0" type="line"/>
    </contour>
    <contour>
      <point x="182.5" y="276.0" type="curve" smooth="yes"/>
      <point x="182.5" y="399.5"/>
      <point x="218.0" y="471.0"/>
      <point x="286.5" y="485.0" type="curve"/>
      <point x="286.5" y="59.5" type="line"/>
      <point x="218.5" y="81.5"/>
      <point x="182.5" y="155.5"/>
    </contour>
  </outline>
</glyph>
<glyph name="sterling" format="2">
  <advance width="694.0"/>
  <unicode hex="00A3"/>
  <outline>
    <contour>
      <point x="238.5" y="80.0" type="curve"/>
      <point x="216.5" y="58.5"/>
      <point x="187.0" y="47.0"/>
      <point x="155.5" y="47.0" type="curve" smooth="yes"/>
      <point x="125.0" y="47.0"/>
      <point x="108.0" y="57.0"/>
      <point x="108.0" y="79.0" type="curve" smooth="yes"/>
      <point x="108.0" y="99.0"/>
      <point x="124.0" y="111.0"/>
      <point x="149.0" y="111.0" type="curve" smooth="yes"/>
      <point x="173.0" y="111.0"/>
      <point x="200.5" y="101.0"/>
    </contour>
    <contour>
      <point x="297.5" y="534.0" type="line" smooth="yes"/>
      <point x="290.0" y="559.5"/>
      <point x="284.0" y="598.5"/>
      <point x="284.0" y="621.0" type="curve" smooth="yes"/>
      <point x="284.0" y="685.5"/>
      <point x="331.5" y="727.0"/>
      <point x="405.0" y="727.0" type="curve" smooth="yes"/>
      <point x="527.0" y="727.0"/>
      <point x="484.5" y="611.5"/>
      <point x="567.0" y="611.5" type="curve" smooth="yes"/>
      <point x="598.5" y="611.5"/>
      <point x="616.0" y="628.0"/>
      <point x="616.0" y="660.0" type="curve" smooth="yes"/>
      <point x="616.0" y="729.5"/>
      <point x="531.0" y="780.0"/>
      <point x="414.5" y="780.0" type="curve" smooth="yes"/>
      <point x="264.5" y="780.0"/>
      <point x="168.5" y="697.0"/>
      <point x="168.5" y="565.0" type="curve" smooth="yes"/>
      <point x="168.5" y="527.0"/>
      <point x="176.0" y="483.0"/>
      <point x="192.0" y="431.0" type="curve"/>
      <point x="76.5" y="431.0" type="line"/>
      <point x="76.5" y="370.0" type="line"/>
      <point x="211.5" y="370.0" type="line"/>
      <point x="241.5" y="305.0"/>
      <point x="261.0" y="237.0"/>
      <point x="261.0" y="196.5" type="curve" smooth="yes"/>
      <point x="261.0" y="181.0"/>
      <point x="259.0" y="150.5"/>
      <point x="256.0" y="138.5" type="curve"/>
      <point x="219.5" y="157.5"/>
      <point x="180.0" y="167.5"/>
      <point x="146.5" y="167.5" type="curve" smooth="yes"/>
      <point x="83.0" y="167.5"/>
      <point x="37.0" y="127.5"/>
      <point x="37.0" y="71.5" type="curve" smooth="yes"/>
      <point x="37.0" y="21.0"/>
      <point x="75.5" y="-11.0"/>
      <point x="137.5" y="-11.0" type="curve" smooth="yes"/>
      <point x="195.5" y="-11.0"/>
      <point x="260.0" y="17.0"/>
      <point x="286.5" y="54.0" type="curve"/>
      <point x="390.5" y="5.0"/>
      <point x="442.0" y="-10.0"/>
      <point x="497.5" y="-10.0" type="curve" smooth="yes"/>
      <point x="594.0" y="-10.0"/>
      <point x="649.5" y="42.0"/>
      <point x="649.5" y="154.0" type="curve"/>
      <point x="639.0" y="158.0" type="line"/>
      <point x="601.5" y="117.0"/>
      <point x="554.5" y="99.0"/>
      <point x="487.5" y="99.0" type="curve" smooth="yes"/>
      <point x="439.0" y="99.0"/>
      <point x="367.5" y="107.5"/>
      <point x="319.5" y="118.5" type="curve"/>
      <point x="345.0" y="159.0"/>
      <point x="356.5" y="206.0"/>
      <point x="356.5" y="270.5" type="curve" smooth="yes"/>
      <point x="356.5" y="306.0"/>
      <point x="353.0" y="330.5"/>
      <point x="342.5" y="370.0" type="curve"/>
      <point x="544.0" y="370.0" type="line"/>
      <point x="544.0" y="431.0" type="line"/>
      <point x="329.0" y="431.0" type="line"/>
    </contour>
  </outline>
</glyph>
<glyph name="currency" format="2">
  <advance width="611.5"/>
  <unicode hex="00A4"/>
  <outline>
    <contour>
      <point x="58.5" y="57.0" type="line"/>
      <point x="93.5" y="23.0" type="line"/>
      <point x="166.0" y="94.0" type="line"/>
      <point x="204.0" y="63.0"/>
      <point x="251.0" y="46.0"/>
      <point x="305.5" y="46.0" type="curve" smooth="yes"/>
      <point x="359.0" y="46.0"/>
      <point x="406.0" y="62.0"/>
      <point x="445.0" y="93.0" type="curve"/>
      <point x="517.5" y="22.0" type="line"/>
      <point x="553.5" y="57.0" type="line"/>
      <point x="481.0" y="128.0" type="line"/>
      <point x="511.5" y="165.0"/>
      <point x="529.0" y="211.0"/>
      <point x="529.0" y="263.0" type="curve" smooth="yes"/>
      <point x="529.0" y="315.0"/>
      <point x="511.5" y="361.0"/>
      <point x="479.5" y="399.0" type="curve"/>
      <point x="553.5" y="471.0" type="line"/>
      <point x="517.5" y="506.0" type="line"/>
      <point x="444.0" y="434.0" type="line"/>
      <point x="405.0" y="464.0"/>
      <point x="359.0" y="481.0"/>
      <point x="305.5" y="481.0" type="curve" smooth="yes"/>
      <point x="252.0" y="481.0"/>
      <point x="205.0" y="464.0"/>
      <point x="167.0" y="434.0" type="curve"/>
      <point x="93.5" y="506.0" type="line"/>
      <point x="57.5" y="471.0" type="line"/>
      <point x="131.0" y="399.0" type="line"/>
      <point x="99.5" y="361.0"/>
      <point x="83.0" y="315.0"/>
      <point x="83.0" y="263.0" type="curve" smooth="yes"/>
      <point x="83.0" y="211.0"/>
      <point x="100.5" y="165.0"/>
      <point x="131.0" y="128.0" type="curve"/>
    </contour>
    <contour>
      <point x="139.5" y="263.0" type="curve" smooth="yes"/>
      <point x="139.5" y="352.5"/>
      <point x="214.0" y="426.0"/>
      <point x="305.5" y="426.0" type="curve" smooth="yes"/>
      <point x="397.0" y="426.0"/>
      <point x="472.5" y="352.5"/>
      <point x="472.5" y="263.0" type="curve" smooth="yes"/>
      <point x="472.5" y="174.0"/>
      <point x="397.0" y="101.0"/>
      <point x="305.5" y="101.0" type="curve" smooth="yes"/>
      <point x="214.0" y="101.0"/>
      <point x="139.5" y="174.0"/>
    </contour>
  </outline>
</glyph>
<glyph name="yen" format="2">
  <advance width="826.5"/>
  <unicode hex="00A5"/>
  <outline>
    <contour>
      <point x="643.5" y="235.0" type="line"/>
      <point x="475.5" y="235.0" type="line"/>
      <point x="475.5" y="301.5" type="line"/>
      <point x="643.5" y="301.5" type="line"/>
      <point x="643.5" y="364.0" type="line"/>
      <point x="512.5" y="364.0" type="line"/>
      <point x="632.5" y="568.0" type="line" smooth="yes"/>
      <point x="715.0" y="708.0"/>
      <point x="741.0" y="731.0"/>
      <point x="798.5" y="731.0" type="curve"/>
      <point x="798.5" y="770.0" type="line"/>
      <point x="558.5" y="770.0" type="line"/>
      <point x="558.5" y="731.0" type="line"/>
      <point x="609.5" y="731.0"/>
      <point x="625.0" y="721.5"/>
      <point x="625.0" y="698.0" type="curve" smooth="yes"/>
      <point x="625.0" y="673.5"/>
      <point x="612.0" y="643.5"/>
      <point x="564.5" y="563.0" type="curve" smooth="yes"/>
      <point x="449.0" y="368.0" type="line"/>
      <point x="445.0" y="368.0" type="line"/>
      <point x="296.0" y="638.0" type="line" smooth="yes"/>
      <point x="281.0" y="665.0"/>
      <point x="274.0" y="684.5"/>
      <point x="274.0" y="698.0" type="curve" smooth="yes"/>
      <point x="274.0" y="722.0"/>
      <point x="289.0" y="731.0"/>
      <point x="358.0" y="731.0" type="curve"/>
      <point x="358.0" y="770.0" type="line"/>
      <point x="29.0" y="770.0" type="line"/>
      <point x="29.0" y="731.0" type="line"/>
      <point x="85.5" y="731.0"/>
      <point x="105.5" y="716.0"/>
      <point x="146.0" y="646.0" type="curve" smooth="yes"/>
      <point x="309.0" y="364.0" type="line"/>
      <point x="178.5" y="364.0" type="line"/>
      <point x="178.5" y="301.5" type="line"/>
      <point x="349.5" y="301.5" type="line"/>
      <point x="349.5" y="235.0" type="line"/>
      <point x="178.5" y="235.0" type="line"/>
      <point x="178.5" y="172.5" type="line"/>
      <point x="349.5" y="172.5" type="line"/>
      <point x="348.5" y="61.5"/>
      <point x="335.5" y="39.5"/>
      <point x="242.0" y="38.0" type="curve"/>
      <point x="242.0" y="0.0" type="line"/>
      <point x="584.0" y="0.0" type="line"/>
      <point x="584.0" y="38.0" type="line"/>
      <point x="491.0" y="39.5"/>
      <point x="476.5" y="59.5"/>
      <point x="475.5" y="172.5" type="curve"/>
      <point x="643.5" y="172.5" type="line"/>
    </contour>
  </outline>
</glyph>
<glyph name="brokenbar" format="2">
  <advance width="301.0"/>
  <unicode hex="00A6"/>
  <outline>
    <contour>
      <point x="103.5" y="750.0" type="line"/>
      <point x="103.5" y="365.0" type="line"/>
      <point x="197.5" y="365.0" type="line"/>
      <point x="197.5" y="750.0" type="line"/>
    </contour>
    <contour>
      <point x="103.5" y="205.0" type="line"/>
      <point x="103.5" y="-180.0" type="line"/>
      <point x="197.5" y="-180.0" type="line"/>
      <point x="197.5" y="205.0" type="line"/>
    </contour>
  </outline>
</glyph>
<glyph name="section" format="2">
  <advance width="563.0"/>
  <unicode hex="00A7"/>
  <outline>
    <contour>
      <point x="210.5" y="299.5" type="line" smooth="yes"/>
      <point x="167.5" y="324.0"/>
      <point x="140.0" y="359.5"/>
      <point x="140.0" y="396.5" type="curve" smooth="yes"/>
      <point x="140.0" y="425.5"/>
      <point x="157.0" y="448.5"/>
      <point x="203.0" y="473.5" type="curve"/>
      <point x="339.5" y="394.5" type="line" smooth="yes"/>
      <point x="392.5" y="363.5"/>
      <point x="427.5" y="320.0"/>
      <point x="428.0" y="278.5" type="curve" smooth="yes"/>
      <point x="428.0" y="252.0"/>
      <point x="413.5" y="230.0"/>
      <point x="376.5" y="203.5" type="curve"/>
    </contour>
    <contour>
      <point x="291.5" y="109.5" type="line" smooth="yes"/>
      <point x="387.5" y="55.0"/>
      <point x="412.5" y="27.0"/>
      <point x="412.5" y="-18.5" type="curve" smooth="yes"/>
      <point x="412.5" y="-85.0"/>
      <point x="362.5" y="-124.0"/>
      <point x="277.0" y="-124.0" type="curve" smooth="yes"/>
      <point x="206.0" y="-124.0"/>
      <point x="141.0" y="-98.0"/>
      <point x="141.0" y="-69.0" type="curve" smooth="yes"/>
      <point x="141.0" y="-45.5"/>
      <point x="186.0" y="-26.5"/>
      <point x="186.0" y="16.5" type="curve" smooth="yes"/>
      <point x="186.0" y="51.5"/>
      <point x="155.5" y="80.5"/>
      <point x="118.5" y="80.5" type="curve" smooth="yes"/>
      <point x="79.0" y="80.5"/>
      <point x="53.5" y="47.0"/>
      <point x="53.5" y="-5.0" type="curve" smooth="yes"/>
      <point x="53.5" y="-103.5"/>
      <point x="145.0" y="-174.0"/>
      <point x="272.5" y="-174.0" type="curve" smooth="yes"/>
      <point x="406.0" y="-174.0"/>
      <point x="498.5" y="-96.5"/>
      <point x="498.5" y="15.0" type="curve" smooth="yes"/>
      <point x="498.5" y="75.0"/>
      <point x="471.5" y="130.0"/>
      <point x="422.0" y="172.0" type="curve"/>
      <point x="483.0" y="215.5"/>
      <point x="508.5" y="259.5"/>
      <point x="508.5" y="321.0" type="curve" smooth="yes"/>
      <point x="508.5" y="398.0"/>
      <point x="467.5" y="456.5"/>
      <point x="361.0" y="520.0" type="curve" smooth="yes"/>
      <point x="278.5" y="569.5" type="line" smooth="yes"/>
      <point x="185.5" y="624.5"/>
      <point x="166.0" y="652.5"/>
      <point x="166.0" y="692.5" type="curve" smooth="yes"/>
      <point x="166.0" y="752.5"/>
      <point x="206.5" y="785.0"/>
      <point x="277.0" y="785.0" type="curve" smooth="yes"/>
      <point x="333.0" y="785.0"/>
      <point x="375.0" y="765.0"/>
      <point x="375.0" y="739.0" type="curve" smooth="yes"/>
      <point x="375.0" y="718.0"/>
      <point x="346.0" y="712.5"/>
      <point x="346.0" y="676.0" type="curve" smooth="yes"/>
      <point x="346.0" y="641.5"/>
      <point x="372.0" y="617.5"/>
      <point x="408.5" y="617.5" type="curve" smooth="yes"/>
      <point x="448.0" y="617.5"/>
      <point x="472.5" y="646.0"/>
      <point x="472.5" y="690.0" type="curve" smooth="yes"/>
      <point x="472.5" y="771.5"/>
      <point x="391.0" y="830.0"/>
      <point x="277.5" y="830.0" type="curve" smooth="yes"/>
      <point x="157.5" y="830.0"/>
      <point x="80.0" y="764.0"/>
      <point x="80.0" y="661.0" type="curve" smooth="yes"/>
      <point x="80.0" y="599.5"/>
      <point x="108.0" y="541.0"/>
      <point x="155.5" y="504.0" type="curve"/>
      <point x="91.0" y="475.5"/>
      <point x="56.5" y="424.0"/>
      <point x="56.5" y="353.5" type="curve" smooth="yes"/>
      <point x="56.5" y="272.5"/>
      <point x="101.0" y="216.5"/>
      <point x="208.0" y="156.5" type="curve" smooth="yes"/>
    </contour>
  </outline>
</glyph>
<glyph name="dieresis" format="2">
  <advance width="344.0"/>
  <unicode hex="00A8"/>
  <anchor x="172.5" y="651.0" name="_top"/>
  <outline>
    <contour>
      <point x="20.0" y="724.5" type="curve" smooth="yes"/>
      <point x="20.0" y="690.0"/>
      <point x="46.5" y="663.5"/>
      <point x="81.0" y="663.5" type="curve" smooth="yes"/>
      <point x="116.0" y="663.5"/>
      <point x="142.5" y="690.0"/>
      <point x="142.5" y="724.5" type="curve" smooth="yes"/>
      <point x="142.5" y="759.5"/>
      <point x="116.0" y="786.0"/>
      <point x="81.0" y="786.0" type="curve" smooth="yes"/>
      <point x="46.5" y="786.0"/>
      <point x="20.0" y="759.5"/>
    </contour>
    <contour>
      <point x="201.5" y="724.5" type="curve" smooth="yes"/>
      <point x="201.5" y="690.0"/>
      <point x="228.0" y="663.5"/>
      <point x="262.5" y="663.5" type="curve" smooth="yes"/>
      <point x="297.5" y="663.5"/>
      <point x="324.0" y="690.0"/>
      <point x="324.0" y="724.5" type="curve" smooth="yes"/>
      <point x="324.0" y="759.5"/>
      <point x="297.5" y="786.0"/>
      <point x="262.5" y="786.0" type="curve" smooth="yes"/>
      <point x="228.0" y="786.0"/>
      <point x="201.5" y="759.5"/>
    </contour>
  </outline>
</glyph>
<glyph name="copyright" format="2">
  <advance width="895.0"/>
  <unicode hex="00A9"/>
  <outline>
    <contour>
      <point x="844.0" y="386.0" type="curve" smooth="yes"/>
      <point x="844.0" y="605.0"/>
      <point x="666.0" y="780.0"/>
      <point x="444.5" y="780.0" type="curve" smooth="yes"/>
      <point x="226.0" y="780.0"/>
      <point x="51.0" y="602.0"/>
      <point x="51.0" y="385.0" type="curve" smooth="yes"/>
      <point x="51.0" y="168.0"/>
      <point x="227.0" y="-10.0"/>
      <point x="445.5" y="-10.0" type="curve" smooth="yes"/>
      <point x="666.0" y="-10.0"/>
      <point x="844.0" y="166.0"/>
    </contour>
    <contour>
      <point x="790.0" y="386.0" type="curve" smooth="yes"/>
      <point x="790.0" y="197.0"/>
      <point x="635.0" y="43.0"/>
      <point x="445.5" y="43.0" type="curve" smooth="yes"/>
      <point x="255.5" y="43.0"/>
      <point x="105.0" y="197.0"/>
      <point x="105.0" y="385.0" type="curve" smooth="yes"/>
      <point x="105.0" y="572.5"/>
      <point x="254.5" y="727.0"/>
      <point x="444.5" y="727.0" type="curve" smooth="yes"/>
      <point x="635.0" y="727.0"/>
      <point x="790.0" y="576.0"/>
    </contour>
    <contour>
      <point x="596.0" y="305.0" type="line"/>
      <point x="577.0" y="238.5"/>
      <point x="532.5" y="203.0"/>
      <point x="466.0" y="203.0" type="curve" smooth="yes"/>
      <point x="373.5" y="203.0"/>
      <point x="323.0" y="265.0"/>
      <point x="323.0" y="379.0" type="curve" smooth="yes"/>
      <point x="323.0" y="495.0"/>
      <point x="374.5" y="564.0"/>
      <point x="464.0" y="564.0" type="curve" smooth="yes"/>
      <point x="530.5" y="564.0"/>
      <point x="581.5" y="529.0"/>
      <point x="598.0" y="472.0" type="curve"/>
      <point x="624.5" y="472.0" type="line"/>
      <point x="619.5" y="603.0" type="line"/>
      <point x="598.0" y="603.0" type="line"/>
      <point x="588.0" y="563.0" type="line"/>
      <point x="540.5" y="595.5"/>
      <point x="503.5" y="609.0"/>
      <point x="458.5" y="609.0" type="curve" smooth="yes"/>
      <point x="318.0" y="609.0"/>
      <point x="221.5" y="514.0"/>
      <point x="221.5" y="375.0" type="curve" smooth="yes"/>
      <point x="221.5" y="243.0"/>
      <point x="311.5" y="157.0"/>
      <point x="452.5" y="157.0" type="curve" smooth="yes"/>
      <point x="554.0" y="157.0"/>
      <point x="610.5" y="217.0"/>
      <point x="630.0" y="305.0" type="curve"/>
    </contour>
  </outline>
</glyph>
<glyph name="ordfeminine" format="2">
  <advance width="379.5"/>
  <unicode hex="00AA"/>
  <outline>
    <contour>
      <point x="214.5" y="620.0" type="line" smooth="yes"/>
      <point x="214.5" y="580.5"/>
      <point x="192.0" y="547.0"/>
      <point x="165.0" y="547.0" type="curve" smooth="yes"/>
      <point x="145.0" y="547.0"/>
      <point x="131.5" y="561.0"/>
      <point x="131.5" y="580.0" type="curve" smooth="yes"/>
      <point x="131.5" y="604.0"/>
      <point x="154.0" y="627.5"/>
      <point x="214.5" y="651.5" type="curve"/>
    </contour>
    <contour>
      <point x="148.0" y="653.5" type="line" smooth="yes"/>
      <point x="80.0" y="624.0"/>
      <point x="58.0" y="601.0"/>
      <point x="58.0" y="566.0" type="curve" smooth="yes"/>
      <point x="58.0" y="531.0"/>
      <point x="88.0" y="507.0"/>
      <point x="134.5" y="507.0" type="curve" smooth="yes"/>
      <point x="169.5" y="507.0"/>
      <point x="199.0" y="524.0"/>
      <point x="215.5" y="550.0" type="curve"/>
      <point x="219.5" y="550.0" type="line"/>
      <point x="219.5" y="522.0"/>
      <point x="235.5" y="507.0"/>
      <point x="270.0" y="507.0" type="curve" smooth="yes"/>
      <point x="296.5" y="507.0"/>
      <point x="324.0" y="518.0"/>
      <point x="334.0" y="534.0" type="curve"/>
      <point x="326.5" y="551.0" type="line"/>
      <point x="320.5" y="541.5"/>
      <point x="312.5" y="538.0"/>
      <point x="302.0" y="538.0" type="curve" smooth="yes"/>
      <point x="286.5" y="538.0"/>
      <point x="279.5" y="558.0"/>
      <point x="279.5" y="596.0" type="curve" smooth="yes"/>
      <point x="279.5" y="703.0" type="line" smooth="yes"/>
      <point x="279.5" y="759.0"/>
      <point x="252.5" y="780.0"/>
      <point x="177.5" y="780.0" type="curve" smooth="yes"/>
      <point x="105.5" y="780.0"/>
      <point x="64.5" y="752.5"/>
      <point x="64.5" y="722.0" type="curve" smooth="yes"/>
      <point x="64.5" y="701.5"/>
      <point x="77.5" y="693.5"/>
      <point x="93.0" y="693.5" type="curve" smooth="yes"/>
      <point x="107.5" y="693.5"/>
      <point x="116.5" y="702.0"/>
      <point x="122.0" y="720.0" type="curve" smooth="yes"/>
      <point x="129.5" y="745.5"/>
      <point x="138.5" y="751.0"/>
      <point x="168.5" y="751.0" type="curve" smooth="yes"/>
      <point x="200.5" y="751.0"/>
      <point x="214.5" y="735.5"/>
      <point x="214.5" y="701.0" type="curve" smooth="yes"/>
      <point x="214.5" y="684.5" type="line"/>
    </contour>
  </outline>
</glyph>
<glyph name="logicalnot" format="2">
  <advance width="631.0"/>
  <unicode hex="00AC"/>
  <outline>
    <contour>
      <point x="490.0" y="110.0" type="line"/>
      <point x="551.0" y="110.0" type="line"/>
      <point x="551.0" y="368.0" type="line"/>
      <point x="77.0" y="368.0" type="line"/>
      <point x="77.0" y="308.0" type="line"/>
      <point x="490.0" y="308.0" type="line"/>
    </contour>
  </outline>
</glyph>
<glyph name="uni00AD" format="2">
  <advance width="465.0"/>
  <unicode hex="00AD"/>
  <outline>
    <contour>
      <point x="393.5" y="245.0" type="line"/>
      <point x="393.5" y="334.0" type="line"/>
      <point x="71.5" y="334.0" type="line"/>
      <point x="71.5" y="245.0" type="line"/>
    </contour>
  </outline>
</glyph>
<glyph name="registered" format="2">
  <advance width="895.0"/>
  <unicode hex="00AE"/>
  <outline>
    <contour>
      <point x="844.0" y="386.0" type="curve" smooth="yes"/>
      <point x="844.0" y="605.0"/>
      <point x="666.0" y="780.0"/>
      <point x="444.5" y="780.0" type="curve" smooth="yes"/>
      <point x="226.0" y="780.0"/>
      <point x="51.0" y="602.0"/>
      <point x="51.0" y="385.0" type="curve" smooth="yes"/>
      <point x="51.0" y="168.0"/>
      <point x="227.0" y="-10.0"/>
      <point x="445.5" y="-10.0" type="curve" smooth="yes"/>
      <point x="666.0" y="-10.0"/>
      <point x="844.0" y="166.0"/>
    </contour>
    <contour>
      <point x="790.0" y="386.0" type="curve" smooth="yes"/>
      <point x="790.0" y="197.0"/>
      <point x="635.0" y="43.0"/>
      <point x="445.5" y="43.0" type="curve" smooth="yes"/>
      <point x="255.5" y="43.0"/>
      <point x="105.0" y="197.0"/>
      <point x="105.0" y="385.0" type="curve" smooth="yes"/>
      <point x="105.0" y="572.5"/>
      <point x="254.5" y="727.0"/>
      <point x="444.5" y="727.0" type="curve" smooth="yes"/>
      <point x="635.0" y="727.0"/>
      <point x="790.0" y="576.0"/>
    </contour>
    <contour>
      <point x="604.0" y="507.0" type="curve" smooth="yes"/>
      <point x="604.0" y="574.0"/>
      <point x="539.5" y="615.0"/>
      <point x="427.0" y="615.0" type="curve" smooth="yes"/>
      <point x="247.5" y="615.0" type="line"/>
      <point x="247.5" y="587.5" type="line"/>
      <point x="287.5" y="585.5"/>
      <point x="294.0" y="575.5"/>
      <point x="294.0" y="524.5" type="curve" smooth="yes"/>
      <point x="294.0" y="270.5" type="line" smooth="yes"/>
      <point x="294.0" y="219.5"/>
      <point x="286.5" y="209.5"/>
      <point x="241.5" y="207.5" type="curve"/>
      <point x="241.5" y="183.0" type="line"/>
      <point x="444.5" y="183.0" type="line"/>
      <point x="444.5" y="207.5" type="line"/>
      <point x="381.0" y="207.5"/>
      <point x="373.0" y="219.5"/>
      <point x="373.0" y="273.5" type="curve" smooth="yes"/>
      <point x="373.0" y="383.0" type="line"/>
      <point x="397.0" y="383.0"/>
      <point x="408.0" y="378.0"/>
      <point x="427.0" y="354.0" type="curve" smooth="yes"/>
      <point x="568.5" y="183.0" type="line"/>
      <point x="684.5" y="183.0" type="line"/>
      <point x="684.5" y="207.5" type="line"/>
      <point x="653.5" y="212.5"/>
      <point x="635.0" y="222.5"/>
      <point x="615.5" y="245.5" type="curve" smooth="yes"/>
      <point x="488.5" y="393.0" type="line"/>
      <point x="569.0" y="405.0"/>
      <point x="604.0" y="447.0"/>
    </contour>
    <contour>
      <point x="373.0" y="573.5" type="line" smooth="yes"/>
      <point x="373.0" y="578.5"/>
      <point x="375.0" y="582.5"/>
      <point x="382.5" y="582.5" type="curve" smooth="yes"/>
      <point x="427.0" y="582.5" type="line" smooth="yes"/>
      <point x="486.0" y="582.5"/>
      <point x="511.5" y="561.0"/>
      <point x="511.5" y="504.0" type="curve" smooth="yes"/>
      <point x="511.5" y="442.0"/>
      <point x="479.0" y="416.0"/>
      <point x="411.5" y="416.0" type="curve" smooth="yes"/>
      <point x="373.0" y="416.0" type="line"/>
    </contour>
  </outline>
</glyph>
<glyph name="macron" format="2">
  <advance width="318.0"/>
  <unicode hex="00AF"/>
  <anchor x="159.0" y="651.0" name="_top"/>
  <outline>
    <contour>
      <point x="297.5" y="697.0" type="line"/>
      <point x="297.5" y="754.5" type="line"/>
      <point x="20.5" y="754.5" type="line"/>
      <point x="20.5" y="697.0" type="line"/>
    </contour>
  </outline>
</glyph>
<glyph name="degree" format="2">
  <advance width="340.0"/>
  <unicode hex="00B0"/>
  <outline>
    <contour>
      <point x="47.0" y="660.0" type="curve" smooth="yes"/>
      <point x="47.0" y="594.0"/>
      <point x="102.5" y="540.0"/>
      <point x="170.0" y="540.0" type="curve" smooth="yes"/>
      <point x="237.5" y="540.0"/>
      <point x="293.0" y="594.0"/>
      <point x="293.0" y="660.0" type="curve" smooth="yes"/>
      <point x="293.0" y="726.0"/>
      <point x="237.5" y="780.0"/>
      <point x="170.0" y="780.0" type="curve" smooth="yes"/>
      <point x="102.5" y="780.0"/>
      <point x="47.0" y="726.0"/>
    </contour>
    <contour>
      <point x="85.0" y="660.0" type="curve" smooth="yes"/>
      <point x="85.0" y="705.0"/>
      <point x="124.0" y="741.5"/>
      <point x="170.0" y="741.5" type="curve" smooth="yes"/>
      <point x="216.0" y="741.5"/>
      <point x="253.5" y="705.0"/>
      <point x="253.5" y="660.0" type="curve" smooth="yes"/>
      <point x="253.5" y="615.0"/>
      <point x="216.0" y="577.5"/>
      <point x="170.0" y="577.5" type="curve" smooth="yes"/>
      <point x="124.0" y="577.5"/>
      <point x="85.0" y="615.0"/>
    </contour>
  </outline>
</glyph>
<glyph name="plusminus" format="2">
  <advance width="631.0"/>
  <unicode hex="00B1"/>
  <outline>
    <contour>
      <point x="345.5" y="230.5" type="line"/>
      <point x="345.5" y="439.5" type="line"/>
      <point x="555.5" y="439.5" type="line"/>
      <point x="555.5" y="496.5" type="line"/>
      <point x="345.5" y="496.5" type="line"/>
      <point x="345.5" y="705.5" type="line"/>
      <point x="285.5" y="705.5" type="line"/>
      <point x="285.5" y="496.5" type="line"/>
      <point x="75.5" y="496.5" type="line"/>
      <point x="75.5" y="439.5" type="line"/>
      <point x="285.5" y="439.5" type="line"/>
      <point x="285.5" y="230.5" type="line"/>
    </contour>
    <contour>
      <point x="555.5" y="148.5" type="line"/>
      <point x="75.5" y="148.5" type="line"/>
      <point x="75.5" y="91.5" type="line"/>
      <point x="555.5" y="91.5" type="line"/>
    </contour>
  </outline>
</glyph>
<glyph name="twosuperior" format="2">
  <advance width="284.5"/>
  <unicode hex="00B2"/>
  <outline>
    <contour>
      <point x="101.0" y="513.5" type="line"/>
      <point x="179.5" y="570.5"/>
      <point x="243.0" y="629.0"/>
      <point x="243.0" y="694.0" type="curve" smooth="yes"/>
      <point x="243.0" y="744.0"/>
      <point x="199.0" y="780.0"/>
      <point x="137.0" y="780.0" type="curve" smooth="yes"/>
      <point x="77.0" y="780.0"/>
      <point x="33.0" y="745.0"/>
      <point x="33.0" y="697.0" type="curve" smooth="yes"/>
      <point x="33.0" y="662.0"/>
      <point x="56.5" y="637.0"/>
      <point x="87.5" y="637.0" type="curve" smooth="yes"/>
      <point x="108.0" y="637.0"/>
      <point x="122.5" y="648.0"/>
      <point x="124.5" y="663.0" type="curve"/>
      <point x="101.0" y="663.0"/>
      <point x="84.5" y="680.0"/>
      <point x="84.5" y="706.0" type="curve" smooth="yes"/>
      <point x="84.5" y="732.0"/>
      <point x="104.0" y="752.0"/>
      <point x="129.5" y="752.0" type="curve" smooth="yes"/>
      <point x="161.5" y="752.0"/>
      <point x="181.0" y="730.0"/>
      <point x="181.0" y="694.0" type="curve" smooth="yes"/>
      <point x="181.0" y="638.5"/>
      <point x="152.5" y="591.0"/>
      <point x="31.5" y="483.5" type="curve"/>
      <point x="31.5" y="468.0" type="line"/>
      <point x="237.5" y="468.0" type="line"/>
      <point x="252.5" y="553.0" type="line"/>
      <point x="229.5" y="553.0" type="line"/>
      <point x="219.0" y="518.0"/>
      <point x="208.0" y="509.5"/>
      <point x="183.0" y="509.5" type="curve" smooth="yes"/>
      <point x="101.0" y="509.5" type="line"/>
    </contour>
  </outline>
</glyph>
<glyph name="threesuperior" format="2">
  <advance width="281.0"/>
  <unicode hex="00B3"/>
  <outline>
    <contour>
      <point x="183.0" y="555.0" type="curve" smooth="yes"/>
      <point x="183.0" y="595.0"/>
      <point x="165.5" y="618.5"/>
      <point x="136.0" y="618.5" type="curve"/>
      <point x="127.0" y="614.5"/>
      <point x="116.0" y="611.5"/>
      <point x="108.0" y="611.5" type="curve" smooth="yes"/>
      <point x="95.5" y="611.5"/>
      <point x="87.5" y="619.5"/>
      <point x="87.5" y="630.0" type="curve" smooth="yes"/>
      <point x="87.5" y="640.5"/>
      <point x="95.5" y="646.5"/>
      <point x="107.0" y="646.5" type="curve" smooth="yes"/>
      <point x="114.5" y="646.5"/>
      <point x="124.0" y="644.5"/>
      <point x="133.0" y="641.5" type="curve"/>
      <point x="158.5" y="641.5"/>
      <point x="176.0" y="668.0"/>
      <point x="176.0" y="706.0" type="curve" smooth="yes"/>
      <point x="176.0" y="738.0"/>
      <point x="162.5" y="753.0"/>
      <point x="133.5" y="753.0" type="curve" smooth="yes"/>
      <point x="109.0" y="753.0"/>
      <point x="94.5" y="741.5"/>
      <point x="94.5" y="723.0" type="curve" smooth="yes"/>
      <point x="94.5" y="708.5"/>
      <point x="104.5" y="698.5"/>
      <point x="120.5" y="698.5" type="curve"/>
      <point x="118.5" y="687.5"/>
      <point x="103.0" y="678.5"/>
      <point x="86.5" y="678.5" type="curve" smooth="yes"/>
      <point x="62.0" y="678.5"/>
      <point x="43.0" y="698.5"/>
      <point x="43.0" y="723.5" type="curve" smooth="yes"/>
      <point x="43.0" y="758.0"/>
      <point x="78.5" y="780.0"/>
      <point x="133.5" y="780.0" type="curve" smooth="yes"/>
      <point x="197.0" y="780.0"/>
      <point x="238.0" y="752.0"/>
      <point x="238.0" y="708.5" type="curve" smooth="yes"/>
      <point x="238.0" y="673.5"/>
      <point x="210.5" y="643.5"/>
      <point x="173.5" y="635.5" type="curve"/>
      <point x="173.5" y="631.5" type="line"/>
      <point x="217.5" y="621.0"/>
      <point x="248.0" y="590.0"/>
      <point x="248.0" y="551.0" type="curve" smooth="yes"/>
      <point x="248.0" y="501.0"/>
      <point x="199.0" y="464.0"/>
      <point x="132.5" y="464.0" type="curve" smooth="yes"/>
      <point x="73.5" y="464.0"/>
      <point x="31.0" y="494.0"/>
      <point x="31.0" y="535.0" type="curve" smooth="yes"/>
      <point x="31.0" y="564.0"/>
      <point x="52.5" y="586.0"/>
      <point x="80.0" y="586.0" type="curve" smooth="yes"/>
      <point x="98.0" y="586.0"/>
      <point x="114.0" y="576.5"/>
      <point x="117.5" y="563.0" type="curve"/>
      <point x="100.0" y="563.0"/>
      <point x="86.5" y="548.5"/>
      <point x="86.5" y="530.0" type="curve" smooth="yes"/>
      <point x="86.5" y="508.0"/>
      <point x="104.5" y="493.0"/>
      <point x="131.0" y="493.0" type="curve" smooth="yes"/>
      <point x="165.0" y="493.0"/>
      <point x="183.0" y="514.5"/>
    </contour>
  </outline>
</glyph>
<glyph name="acute" format="2">
  <advance width="287.0"/>
  <unicode hex="00B4"/>
  <anchor x="113.0" y="651.0" name="_top"/>
  <outline>
    <contour>
      <point x="71.0" y="651.0" type="line"/>
      <point x="209.0" y="713.5" type="line" smooth="yes"/>
      <point x="246.0" y="730.0"/>
      <point x="269.0" y="746.0"/>
      <point x="269.0" y="768.0" type="curve" smooth="yes"/>
      <point x="269.0" y="793.0"/>
      <point x="250.5" y="808.0"/>
      <point x="222.5" y="808.0" type="curve" smooth="yes"/>
      <point x="198.5" y="808.0"/>
      <point x="175.0" y="796.5"/>
      <point x="146.5" y="770.0" type="curve" smooth="yes"/>
      <point x="18.0" y="651.0" type="line"/>
    </contour>
  </outline>
</glyph>
<glyph name="mu" format="2">
  <advance width="732.5"/>
  <unicode hex="00B5"/>
  <anchor x="352.5" y="651.0" name="top"/>
  <anchor x="330.0" y="0.0" name="bottom"/>
  <outline>
    <contour>
      <point x="204.5" y="87.0" type="line"/>
      <point x="235.5" y="22.0"/>
      <point x="284.0" y="-10.0"/>
      <point x="342.0" y="-10.0" type="curve" smooth="yes"/>
      <point x="408.5" y="-10.0"/>
      <point x="461.0" y="23.0"/>
      <point x="496.5" y="93.5" type="curve"/>
      <point x="500.5" y="93.5" type="line"/>
      <point x="511.5" y="-11.0" type="line"/>
      <point x="693.5" y="1.0" type="line"/>
      <point x="693.5" y="38.0" type="line"/>
      <point x="630.0" y="38.0"/>
      <point x="616.5" y="45.0"/>
      <point x="610.5" y="78.0" type="curve" smooth="yes"/>
      <point x="606.0" y="102.0"/>
      <point x="604.0" y="148.0"/>
      <point x="604.0" y="223.0" type="curve" smooth="yes"/>
      <point x="604.0" y="530.0" type="line"/>
      <point x="401.0" y="530.0" type="line"/>
      <point x="401.0" y="492.5" type="line"/>
      <point x="477.0" y="488.5"/>
      <point x="486.0" y="475.0"/>
      <point x="486.0" y="367.5" type="curve" smooth="yes"/>
      <point x="486.0" y="272.0" type="line" smooth="yes"/>
      <point x="486.0" y="217.0"/>
      <point x="479.5" y="178.5"/>
      <point x="466.0" y="146.5" type="curve" smooth="yes"/>
      <point x="435.5" y="77.5"/>
      <point x="399.5" y="49.5"/>
      <point x="346.5" y="49.5" type="curve" smooth="yes"/>
      <point x="273.0" y="49.5"/>
      <point x="241.0" y="111.5"/>
      <point x="241.0" y="257.0" type="curve" smooth="yes"/>
      <point x="241.0" y="530.0" type="line"/>
      <point x="38.5" y="530.0" type="line"/>
      <point x="38.5" y="492.5" type="line"/>
      <point x="114.5" y="489.0"/>
      <point x="123.5" y="475.0"/>
      <point x="123.5" y="367.5" type="curve" smooth="yes"/>
      <point x="123.5" y="-188.0" type="line" smooth="yes"/>
      <point x="123.5" y="-229.0"/>
      <point x="151.5" y="-260.0"/>
      <point x="190.0" y="-260.0" type="curve" smooth="yes"/>
      <point x="228.0" y="-260.0"/>
      <point x="252.5" y="-233.0"/>
      <point x="252.5" y="-189.5" type="curve" smooth="yes"/>
      <point x="252.5" y="-147.5"/>
      <point x="223.5" y="-6.5"/>
      <point x="200.5" y="86.0" type="curve"/>
    </contour>
  </outline>
</glyph>
<glyph name="paragraph" format="2">
  <advance width="645.0"/>
  <unicode hex="00B6"/>
  <outline>
    <contour>
      <point x="492.5" y="570.5" type="line" smooth="yes"/>
      <point x="492.5" y="642.5"/>
      <point x="496.0" y="672.5"/>
      <point x="504.0" y="693.5" type="curve" smooth="yes"/>
      <point x="515.0" y="721.5"/>
      <point x="535.0" y="729.5"/>
      <point x="597.0" y="729.5" type="curve"/>
      <point x="597.0" y="770.0" type="line"/>
      <point x="314.0" y="770.0" type="line" smooth="yes"/>
      <point x="133.0" y="770.0"/>
      <point x="34.5" y="696.0"/>
      <point x="34.5" y="561.5" type="curve" smooth="yes"/>
      <point x="34.5" y="436.0"/>
      <point x="109.5" y="362.0"/>
      <point x="236.5" y="362.0" type="curve" smooth="yes"/>
      <point x="252.0" y="362.0"/>
      <point x="260.5" y="363.0"/>
      <point x="271.5" y="363.0" type="curve"/>
      <point x="271.5" y="65.5" type="line" smooth="yes"/>
      <point x="271.5" y="0.5"/>
      <point x="267.0" y="-68.5"/>
      <point x="261.5" y="-85.5" type="curve" smooth="yes"/>
      <point x="252.0" y="-113.5"/>
      <point x="221.5" y="-124.5"/>
      <point x="149.5" y="-124.5" type="curve"/>
      <point x="149.5" y="-165.0" type="line"/>
      <point x="357.5" y="-165.0" type="line"/>
      <point x="357.5" y="721.0" type="line"/>
      <point x="407.5" y="721.0" type="line"/>
      <point x="407.5" y="-165.0" type="line"/>
      <point x="597.0" y="-165.0" type="line"/>
      <point x="597.0" y="-124.5" type="line"/>
      <point x="539.5" y="-124.5"/>
      <point x="514.5" y="-114.5"/>
      <point x="506.0" y="-88.5" type="curve" smooth="yes"/>
      <point x="497.5" y="-67.5"/>
      <point x="492.5" y="-9.5"/>
      <point x="492.5" y="65.5" type="curve" smooth="yes"/>
    </contour>
  </outline>
</glyph>
<glyph name="periodcentered" format="2">
  <advance width="283.0"/>
  <unicode hex="00B7"/>
  <outline>
    <contour>
      <point x="71.0" y="274.0" type="curve" smooth="yes"/>
      <point x="71.0" y="235.5"/>
      <point x="102.0" y="204.5"/>
      <point x="141.0" y="204.5" type="curve" smooth="yes"/>
      <point x="181.5" y="204.5"/>
      <point x="212.5" y="235.5"/>
      <point x="212.5" y="274.0" type="curve" smooth="yes"/>
      <point x="212.5" y="314.0"/>
      <point x="181.5" y="345.5"/>
      <point x="141.0" y="345.5" type="curve" smooth="yes"/>
      <point x="102.0" y="345.5"/>
      <point x="71.0" y="314.0"/>
    </contour>
  </outline>
</glyph>
<glyph name="cedilla" format="2">
  <advance width="237.5"/>
  <unicode hex="00B8"/>
  <anchor x="125.0" y="0.0" name="_bottom"/>
  <outline>
    <contour>
      <point x="160.0" y="12.0" type="line"/>
      <point x="101.0" y="12.0" type="line"/>
      <point x="47.0" y="-111.0" type="line"/>
      <point x="49.5" y="-115.0" type="line"/>
      <point x="59.0" y="-114.0"/>
      <point x="76.0" y="-113.0"/>
      <point x="86.5" y="-113.0" type="curve" smooth="yes"/>
      <point x="136.5" y="-113.0"/>
      <point x="164.0" y="-132.0"/>
      <point x="164.0" y="-167.0" type="curve" smooth="yes"/>
      <point x="164.0" y="-195.5"/>
      <point x="145.0" y="-214.5"/>
      <point x="117.0" y="-214.5" type="curve" smooth="yes"/>
      <point x="95.0" y="-214.5"/>
      <point x="84.0" y="-205.0"/>
      <point x="71.5" y="-175.0" type="curve" smooth="yes"/>
      <point x="59.5" y="-148.5"/>
      <point x="51.0" y="-140.5"/>
      <point x="34.5" y="-140.5" type="curve" smooth="yes"/>
      <point x="14.0" y="-140.5"/>
      <point x="1.0" y="-154.5"/>
      <point x="1.0" y="-179.0" type="curve" smooth="yes"/>
      <point x="1.0" y="-226.5"/>
      <point x="52.0" y="-260.0"/>
      <point x="124.0" y="-260.0" type="curve" smooth="yes"/>
      <point x="204.0" y="-260.0"/>
      <point x="258.0" y="-219.0"/>
      <point x="258.0" y="-156.5" type="curve" smooth="yes"/>
      <point x="258.0" y="-99.0"/>
      <point x="211.5" y="-67.0"/>
      <point x="128.5" y="-67.0" type="curve"/>
    </contour>
  </outline>
</glyph>
<glyph name="onesuperior" format="2">
  <advance width="247.5"/>
  <unicode hex="00B9"/>
  <outline>
    <contour>
      <point x="152.0" y="780.0" type="line"/>
      <point x="121.5" y="771.0"/>
      <point x="85.5" y="764.0"/>
      <point x="55.0" y="763.0" type="curve"/>
      <point x="55.0" y="740.5" type="line"/>
      <point x="82.5" y="740.5"/>
      <point x="96.0" y="738.5"/>
      <point x="98.0" y="727.5" type="curve" smooth="yes"/>
      <point x="100.0" y="722.5"/>
      <point x="100.0" y="700.5"/>
      <point x="100.0" y="669.5" type="curve" smooth="yes"/>
      <point x="100.0" y="537.5" type="line" smooth="yes"/>
      <point x="100.0" y="499.5"/>
      <point x="94.0" y="492.5"/>
      <point x="57.0" y="490.5" type="curve"/>
      <point x="57.0" y="468.0" type="line"/>
      <point x="195.0" y="468.0" type="line"/>
      <point x="195.0" y="490.5" type="line"/>
      <point x="158.0" y="491.5"/>
      <point x="152.0" y="499.5"/>
      <point x="152.0" y="540.5" type="curve" smooth="yes"/>
    </contour>
  </outline>
</glyph>
